<svg id="airplane" xmlns="http://www.w3.org/2000/svg" width="45.651" height="45.651" viewBox="0 0 45.651 45.651">
  <g id="Group_259" data-name="Group 259" transform="translate(0.669 0.668)">
    <path id="Path_1227" data-name="Path 1227" d="M376.042,369.584l.257.257a1.575,1.575,0,0,0,2.228,0l4.464-4.464-2.485-2.485-4.464,4.464A1.576,1.576,0,0,0,376.042,369.584Z" transform="translate(-342.762 -331.204)" fill="#60b7ff"/>
    <path id="Path_1228" data-name="Path 1228" d="M337.941,292.811l.257.257a1.575,1.575,0,0,0,2.228,0l4.464-4.464-2.485-2.485-4.464,4.464A1.576,1.576,0,0,0,337.941,292.811Z" transform="translate(-308.058 -261.276)" fill="#60b7ff"/>
    <path id="Path_1229" data-name="Path 1229" d="M105.082,382.826l2.832,7.514a1.34,1.34,0,0,1-.306,1.42l-1.035,1.035a.532.532,0,0,1-.81-.067l-5.03-7.058,2.133-3.639Z" transform="translate(-92.419 -348.637)" fill="#0593fc"/>
    <path id="Path_1230" data-name="Path 1230" d="M339.17,148.888l6.35,24.341a1.253,1.253,0,0,1-.326,1.2l-1.266,1.266a1.252,1.252,0,0,1-1.98-.277L330,153.909l3.063-7.21Z" transform="translate(-301.246 -134.288)" fill="#0593fc"/>
    <path id="Path_1231" data-name="Path 1231" d="M412.776,186.123l-6.35-24.341-2.585-.927,6.048,23.184a1.252,1.252,0,0,1-.326,1.2l-1.266,1.266c-.021.021-.043.038-.065.058l.971,1.748a1.252,1.252,0,0,0,1.98.277l1.266-1.266A1.252,1.252,0,0,0,412.776,186.123Z" transform="translate(-368.503 -147.182)" fill="#0182fc"/>
    <path id="Path_1232" data-name="Path 1232" d="M66.717,60.259,66.46,60a1.575,1.575,0,0,1,0-2.228l4.464-4.464,2.485,2.485-4.464,4.464A1.575,1.575,0,0,1,66.717,60.259Z" transform="translate(-60.783 -49.225)" fill="#60b7ff"/>
    <path id="Path_1233" data-name="Path 1233" d="M143.49,98.361l-.257-.257a1.575,1.575,0,0,1,0-2.228l4.464-4.464,2.485,2.485-4.464,4.464A1.576,1.576,0,0,1,143.49,98.361Z" transform="translate(-130.711 -83.93)" fill="#60b7ff"/>
    <path id="Path_1234" data-name="Path 1234" d="M17.625,332.678l-7.514-2.832a1.34,1.34,0,0,0-1.42.306l-1.035,1.035a.532.532,0,0,0,.067.81l7.058,5.03,3.639-2.133Z" transform="translate(-7.5 -301.026)" fill="#0593fc"/>
    <path id="Path_1235" data-name="Path 1235" d="M63.145,13.89,38.8,7.541a1.252,1.252,0,0,0-1.2.326L36.337,9.133a1.252,1.252,0,0,0,.277,1.98l21.51,11.946L65.334,20Z" transform="translate(-33.431 -7.5)" fill="#0593fc"/>
    <path id="Path_1236" data-name="Path 1236" d="M102.723,10.824c-.69-.69-6.016-2.276-12.078,3.786-4.406,4.406-29.224,30.893-25.913,34.2s29.8-21.506,34.2-25.913C105.012,16.827,103.413,11.514,102.723,10.824Z" transform="translate(-59.354 -9.88)" fill="#f9f3f1"/>
    <path id="Path_1237" data-name="Path 1237" d="M102.727,12.438a3.007,3.007,0,0,0-1.335-.554c.452,2.074.2,6.194-4.343,10.74C93.1,26.577,71.376,46.954,64.556,48.717a1.75,1.75,0,0,0,.181,1.711c3.311,3.311,29.8-21.506,34.2-25.913C105.016,18.44,103.417,13.128,102.727,12.438Z" transform="translate(-59.357 -11.493)" fill="#ebe5e3"/>
  </g>
  <g id="Group_260" data-name="Group 260" transform="translate(0 0)">
    <path id="Path_1238" data-name="Path 1238" d="M370.592,381.5a2.238,2.238,0,0,1-1.587-.656l-.257-.257a2.247,2.247,0,0,1,0-3.174l2.764-2.764a.669.669,0,1,1,.946.946l-2.764,2.764a.908.908,0,0,0,0,1.282l.257.257a.908.908,0,0,0,1.282,0l2.282-2.283a.669.669,0,1,1,.946.946l-2.282,2.283A2.237,2.237,0,0,1,370.592,381.5Z" transform="translate(-335.272 -341.069)"/>
    <path id="Path_1239" data-name="Path 1239" d="M332.492,306.585a2.237,2.237,0,0,1-1.587-.656l-.257-.257a2.247,2.247,0,0,1,0-3.174l2.583-2.583a.669.669,0,0,1,.946.946l-2.583,2.583a.908.908,0,0,0,0,1.282l.257.257a.908.908,0,0,0,1.282,0l2.022-2.022a.669.669,0,0,1,.946.946l-2.022,2.022A2.237,2.237,0,0,1,332.492,306.585Z" transform="translate(-300.569 -272.996)"/>
    <path id="Path_1240" data-name="Path 1240" d="M110.47,410.7q-.05,0-.1,0a1.2,1.2,0,0,1-.878-.5l-3.943-5.532a.669.669,0,0,1,1.089-.776l3.849,5.4.921-.921a.673.673,0,0,0,.153-.711l-2.249-5.968a.669.669,0,1,1,1.251-.472l2.249,5.968a2.013,2.013,0,0,1-.459,2.129l-1.035,1.035A1.2,1.2,0,0,1,110.47,410.7Z" transform="translate(-96.024 -365.048)"/>
    <path id="Path_1241" data-name="Path 1241" d="M349.374,241.324a1.958,1.958,0,0,1-.272-.019,1.906,1.906,0,0,1-1.413-.97l-10.657-19.19a.669.669,0,1,1,1.169-.649l10.658,19.19a.584.584,0,0,0,.923.129l1.266-1.266a.586.586,0,0,0,.152-.56l-5.1-19.538a.669.669,0,1,1,1.294-.338l5.1,19.538a1.928,1.928,0,0,1-.5,1.843l-1.266,1.266A1.9,1.9,0,0,1,349.374,241.324Z" transform="translate(-306.903 -198.211)"/>
    <path id="Path_1242" data-name="Path 1242" d="M61,76.844a2.237,2.237,0,0,1-1.587-.656l-.257-.257a2.244,2.244,0,0,1,0-3.174l2.282-2.282a.669.669,0,0,1,.946.946L60.1,73.7a.907.907,0,0,0,0,1.282l.257.257a.908.908,0,0,0,1.282,0l2.764-2.764a.669.669,0,1,1,.946.946l-2.764,2.764A2.237,2.237,0,0,1,61,76.844Z" transform="translate(-53.283 -64.013)"/>
    <path id="Path_1243" data-name="Path 1243" d="M137.785,117.6a2.229,2.229,0,0,1-1.587-.657l-.257-.257a2.247,2.247,0,0,1,0-3.174l2.022-2.022a.669.669,0,1,1,.946.946l-2.022,2.022a.908.908,0,0,0,0,1.282l.257.257a.907.907,0,0,0,1.282,0l2.583-2.583a.669.669,0,0,1,.946.946l-2.583,2.583A2.229,2.229,0,0,1,137.785,117.6Z" transform="translate(-123.222 -101.373)"/>
    <path id="Path_1244" data-name="Path 1244" d="M6.424,329.782a.665.665,0,0,1-.388-.124L.5,325.715a1.2,1.2,0,0,1-.152-1.827l1.035-1.035a2.012,2.012,0,0,1,2.129-.459l5.968,2.249a.669.669,0,0,1-.472,1.252l-5.968-2.249a.673.673,0,0,0-.711.154l-.921.921,5.4,3.849a.669.669,0,0,1-.389,1.213Z" transform="translate(0 -293.531)"/>
    <path id="Path_1245" data-name="Path 1245" d="M407.667,58.11h0a.669.669,0,0,1-.668-.669,4.545,4.545,0,0,0-.521-2.429,4.594,4.594,0,0,0-2.42-.513h0a.669.669,0,0,1,0-1.337,5.268,5.268,0,0,1,3.369.907,5.277,5.277,0,0,1,.911,3.373A.669.669,0,0,1,407.667,58.11Z" transform="translate(-367.42 -48.422)"/>
    <path id="Path_1246" data-name="Path 1246" d="M58.7,42.969a1.749,1.749,0,0,1-1.318-.5c-.995-.995-1.2-3.34,6.086-12.725a.669.669,0,1,1,1.056.82c-7.288,9.385-6.33,10.825-6.2,10.958.173.173,2.082,1.356,15.79-10.1,7.711-6.445,15.5-13.844,17.469-15.81,5.838-5.838,4.22-10.654,3.784-11.134-.453-.411-5.389-1.953-11.13,3.788-2.212,2.212-10.355,10.807-17.018,18.927a.669.669,0,0,1-1.034-.848c6.7-8.159,14.882-16.8,17.106-19.024C86.655,3.959,89.742,2.953,91.74,2.7c2.163-.273,3.975.223,4.581.83.484.484,1.139,2.155.835,4.576-.251,2-1.257,5.084-4.621,8.448-1.977,1.977-9.811,9.416-17.557,15.891C64.883,40.883,60.67,42.969,58.7,42.969Z" transform="translate(-51.81 -2.39)"/>
    <path id="Line_2" data-name="Line 2" d="M-6.086-5.417a.667.667,0,0,1-.473-.2L-7.3-6.358a.669.669,0,0,1,0-.946.669.669,0,0,1,.946,0l.746.746a.669.669,0,0,1,0,.946A.667.667,0,0,1-6.086-5.417Z" transform="translate(41.288 17.28)"/>
    <path id="Line_3" data-name="Line 3" d="M-6.086-5.417a.667.667,0,0,1-.473-.2L-7.3-6.358a.669.669,0,0,1,0-.946.669.669,0,0,1,.946,0l.746.746a.669.669,0,0,1,0,.946A.667.667,0,0,1-6.086-5.417Z" transform="translate(38.043 20.525)"/>
    <path id="Line_4" data-name="Line 4" d="M-6.086-5.417a.667.667,0,0,1-.473-.2L-7.3-6.358a.669.669,0,0,1,0-.946.669.669,0,0,1,.946,0l.746.746a.669.669,0,0,1,0,.946A.667.667,0,0,1-6.086-5.417Z" transform="translate(34.797 23.77)"/>
    <path id="Line_5" data-name="Line 5" d="M-6.086-5.417a.667.667,0,0,1-.473-.2L-7.3-6.358a.669.669,0,0,1,0-.946.669.669,0,0,1,.946,0l.746.746a.669.669,0,0,1,0,.946A.667.667,0,0,1-6.086-5.417Z" transform="translate(31.552 27.016)"/>
    <path id="Line_6" data-name="Line 6" d="M-6.086-5.417a.667.667,0,0,1-.473-.2L-7.3-6.358a.669.669,0,0,1,0-.946.669.669,0,0,1,.946,0l.746.746a.669.669,0,0,1,0,.946A.667.667,0,0,1-6.086-5.417Z" transform="translate(28.307 30.261)"/>
    <path id="Line_7" data-name="Line 7" d="M-6.086-5.417a.667.667,0,0,1-.473-.2L-7.3-6.358a.669.669,0,0,1,0-.946.669.669,0,0,1,.946,0l.746.746a.669.669,0,0,1,0,.946A.667.667,0,0,1-6.086-5.417Z" transform="translate(25.061 33.507)"/>
    <path id="Path_1247" data-name="Path 1247" d="M48.969,15.614a.666.666,0,0,1-.324-.084L29.455,4.872a1.921,1.921,0,0,1-.426-3.038L30.295.568a1.928,1.928,0,0,1,1.843-.5l24,6.261A.669.669,0,1,1,55.8,7.623l-24-6.261a.586.586,0,0,0-.56.152L29.975,2.78A.584.584,0,0,0,30.1,3.7l19.19,10.657a.669.669,0,0,1-.325,1.253Z" transform="translate(-25.928 -0.006)"/>
  </g>
</svg>
