<svg xmlns="http://www.w3.org/2000/svg" width="436.536" height="406" viewBox="0 0 436.536 406">
  <g id="OBJECTS" transform="translate(-24.777 -40.532)">
    <g id="Group_2205" data-name="Group 2205" transform="translate(24.777 40.532)">
      <g id="Group_2191" data-name="Group 2191" transform="translate(0 319.519)">
        <g id="Group_2183" data-name="Group 2183" transform="translate(73.523)">
          <g id="Group_2177" data-name="Group 2177">
            <path id="Path_12399" data-name="Path 12399" d="M118.706,398.808q.715,0,1.419.056-.07-.964-.071-1.943a26.691,26.691,0,0,1,52.684-6.065,17.257,17.257,0,0,1,27.45,8.333,18.064,18.064,0,1,1,3.706,35.743H120.054v-.05q-.667.049-1.348.05a18.063,18.063,0,1,1,0-36.125Z" transform="translate(-100.643 -370.232)" fill="#4f8467" fill-rule="evenodd"/>
            <path id="Path_12400" data-name="Path 12400" d="M138.631,407.468c.313,0,.624.013.93.036-.029-.421-.047-.845-.047-1.273a17.515,17.515,0,0,1,34.571-3.979A11.325,11.325,0,0,1,192.1,407.72a11.852,11.852,0,1,1,2.431,23.453H139.515v-.033c-.292.02-.586.033-.884.033a11.852,11.852,0,0,1,0-23.7Z" transform="translate(-101.45 -370.803)" fill="#4a7567" fill-rule="evenodd"/>
            <g id="Group_2176" data-name="Group 2176" transform="translate(19.098 35.639)">
              <path id="Path_12401" data-name="Path 12401" d="M124.562,411.769c.481,0,.873-1.069.873-2.381s-.392-2.381-.873-2.381-.872,1.07-.872,2.381S124.082,411.769,124.562,411.769Z" transform="translate(-120.453 -407.007)" fill="#9fbb9e" fill-rule="evenodd"/>
              <path id="Path_12402" data-name="Path 12402" d="M120.57,407.664c.417-.24,1.288.487,1.947,1.626s.852,2.257.433,2.5-1.289-.487-1.947-1.625S120.152,407.9,120.57,407.664Z" transform="translate(-120.35 -407.026)" fill="#9fbb9e" fill-rule="evenodd"/>
              <path id="Path_12403" data-name="Path 12403" d="M128.441,407.664c-.418-.24-1.289.487-1.947,1.626s-.852,2.257-.434,2.5,1.29-.487,1.947-1.625S128.859,407.9,128.441,407.664Z" transform="translate(-120.519 -407.026)" fill="#9fbb9e" fill-rule="evenodd"/>
            </g>
          </g>
          <g id="Group_2182" data-name="Group 2182" transform="translate(149.955 9.133)">
            <g id="Group_2179" data-name="Group 2179">
              <path id="Path_12404" data-name="Path 12404" d="M269.634,402.213c.379,0,.751.015,1.12.044-.036-.506-.055-1.018-.055-1.533a21.07,21.07,0,0,1,41.589-4.787,13.621,13.621,0,0,1,21.669,6.577,14.4,14.4,0,0,1,2.927-.3,14.258,14.258,0,0,1,0,28.516H270.7v-.039c-.352.025-.707.039-1.066.039a14.258,14.258,0,0,1,0-28.516Z" transform="translate(-255.376 -379.656)" fill="#4f8467" fill-rule="evenodd"/>
              <path id="Path_12405" data-name="Path 12405" d="M277.539,411.574c.262,0,.52.011.778.03q-.039-.528-.04-1.066a14.645,14.645,0,0,1,28.907-3.327,9.468,9.468,0,0,1,15.06,4.572,9.911,9.911,0,1,1,2.033,19.611h-46v-.027c-.244.016-.49.027-.738.027a9.91,9.91,0,1,1,0-19.82Z" transform="translate(-255.754 -380.158)" fill="#4a7567" fill-rule="evenodd"/>
              <g id="Group_2178" data-name="Group 2178" transform="translate(41.757 26.506)">
                <path id="Path_12406" data-name="Path 12406" d="M302.675,411.769c.481,0,.872-1.069.872-2.381s-.392-2.381-.872-2.381-.872,1.07-.872,2.381S302.195,411.769,302.675,411.769Z" transform="translate(-298.567 -407.007)" fill="#9fbb9e" fill-rule="evenodd"/>
                <path id="Path_12407" data-name="Path 12407" d="M298.682,407.664c.419-.24,1.289.487,1.948,1.626s.852,2.257.433,2.5-1.289-.487-1.946-1.625S298.266,407.9,298.682,407.664Z" transform="translate(-298.463 -407.026)" fill="#9fbb9e" fill-rule="evenodd"/>
                <path id="Path_12408" data-name="Path 12408" d="M306.556,407.664c-.419-.24-1.289.487-1.948,1.626s-.852,2.257-.433,2.5,1.289-.487,1.946-1.625S306.972,407.9,306.556,407.664Z" transform="translate(-298.633 -407.026)" fill="#9fbb9e" fill-rule="evenodd"/>
              </g>
            </g>
            <g id="Group_2181" data-name="Group 2181" transform="translate(91.658 18.233)">
              <path id="Path_12409" data-name="Path 12409" d="M402.361,412.976c-.244,0-.483.009-.721.027.022-.326.036-.654.036-.987a13.548,13.548,0,0,0-26.741-3.079A8.758,8.758,0,0,0,361,413.168a9.168,9.168,0,1,0-1.879,18.142h42.554v-.025c.227.017.455.025.685.025a9.167,9.167,0,1,0,0-18.334Z" transform="translate(-349.954 -398.47)" fill="#467c66" fill-rule="evenodd"/>
              <g id="Group_2180" data-name="Group 2180" transform="translate(36.902 14.236)">
                <path id="Path_12410" data-name="Path 12410" d="M392.243,417.922c.481,0,.874-1.069.874-2.38s-.393-2.382-.874-2.382-.872,1.07-.872,2.382S391.763,417.922,392.243,417.922Z" transform="translate(-388.135 -413.16)" fill="#9fbb9e" fill-rule="evenodd"/>
                <path id="Path_12411" data-name="Path 12411" d="M388.253,413.818c.417-.241,1.289.487,1.946,1.625s.852,2.257.435,2.5-1.289-.486-1.946-1.625S387.834,414.058,388.253,413.818Z" transform="translate(-388.032 -413.179)" fill="#9fbb9e" fill-rule="evenodd"/>
                <path id="Path_12412" data-name="Path 12412" d="M396.124,413.818c-.419-.241-1.289.487-1.946,1.625s-.852,2.257-.435,2.5,1.289-.486,1.948-1.625S396.543,414.058,396.124,413.818Z" transform="translate(-388.202 -413.179)" fill="#9fbb9e" fill-rule="evenodd"/>
              </g>
            </g>
          </g>
        </g>
        <g id="Group_2190" data-name="Group 2190" transform="translate(0 53.432)">
          <path id="Path_12413" data-name="Path 12413" d="M30.927,437.667h104.78a4.223,4.223,0,0,1,0,8.447h-20.9a6.168,6.168,0,0,0-6.151,6.15h0a6.169,6.169,0,0,0,6.151,6.151H371.277a6.171,6.171,0,0,0,6.152-6.151h0a6.17,6.17,0,0,0-6.152-6.15H280.486a4.223,4.223,0,1,1,0-8.447H455.163a6.168,6.168,0,0,0,6.15-6.15h0a6.168,6.168,0,0,0-6.15-6.151H30.927a6.168,6.168,0,0,0-6.15,6.151h0A6.169,6.169,0,0,0,30.927,437.667Z" transform="translate(-24.777 -425.366)" fill="#084e7d" fill-rule="evenodd"/>
          <g id="Group_2189" data-name="Group 2189" transform="translate(46.569 2.417)">
            <g id="Group_2184" data-name="Group 2184" transform="translate(84.502 20.339)">
              <path id="Path_12414" data-name="Path 12414" d="M164.237,453.609c.481,0,.873-1.07.873-2.381s-.392-2.381-.873-2.381-.872,1.069-.872,2.381S163.756,453.609,164.237,453.609Z" transform="translate(-160.127 -448.847)" fill="#eabc4e" fill-rule="evenodd"/>
              <path id="Path_12415" data-name="Path 12415" d="M160.245,449.5c.417-.241,1.288.487,1.947,1.626s.852,2.257.433,2.5-1.289-.487-1.947-1.626S159.826,449.744,160.245,449.5Z" transform="translate(-160.024 -448.866)" fill="#eabc4e" fill-rule="evenodd"/>
              <path id="Path_12416" data-name="Path 12416" d="M168.117,449.5c-.419-.241-1.29.487-1.947,1.626s-.853,2.257-.435,2.5,1.29-.487,1.947-1.626S168.534,449.744,168.117,449.5Z" transform="translate(-160.194 -448.866)" fill="#eabc4e" fill-rule="evenodd"/>
            </g>
            <g id="Group_2185" data-name="Group 2185" transform="translate(134.181 1.657)">
              <path id="Path_12417" data-name="Path 12417" d="M215.5,434.332c.482,0,.872-1.07.872-2.381s-.391-2.381-.872-2.381-.873,1.069-.873,2.381S215.018,434.332,215.5,434.332Z" transform="translate(-211.39 -429.57)" fill="#eabc4e" fill-rule="evenodd"/>
              <path id="Path_12418" data-name="Path 12418" d="M211.506,430.227c.419-.24,1.29.487,1.947,1.626s.854,2.257.435,2.5-1.29-.487-1.947-1.625S211.089,430.469,211.506,430.227Z" transform="translate(-211.286 -429.589)" fill="#eabc4e" fill-rule="evenodd"/>
              <path id="Path_12419" data-name="Path 12419" d="M219.378,430.227c-.418-.24-1.289.487-1.946,1.626s-.853,2.257-.434,2.5,1.288-.487,1.947-1.625S219.8,430.469,219.378,430.227Z" transform="translate(-211.456 -429.589)" fill="#eabc4e" fill-rule="evenodd"/>
            </g>
            <g id="Group_2186" data-name="Group 2186" transform="translate(188.185 9.278)">
              <path id="Path_12420" data-name="Path 12420" d="M271.224,442.2c.479,0,.872-1.07.872-2.381s-.393-2.381-.872-2.381-.874,1.069-.874,2.381S270.744,442.2,271.224,442.2Z" transform="translate(-267.114 -437.434)" fill="#eabc4e" fill-rule="evenodd"/>
              <path id="Path_12421" data-name="Path 12421" d="M267.231,438.091c.419-.241,1.289.487,1.946,1.625s.852,2.258.435,2.5-1.289-.488-1.948-1.626S266.813,438.332,267.231,438.091Z" transform="translate(-267.011 -437.453)" fill="#eabc4e" fill-rule="evenodd"/>
              <path id="Path_12422" data-name="Path 12422" d="M275.1,438.091c-.417-.241-1.289.487-1.946,1.625s-.852,2.258-.433,2.5,1.287-.488,1.946-1.626S275.521,438.332,275.1,438.091Z" transform="translate(-267.181 -437.453)" fill="#eabc4e" fill-rule="evenodd"/>
            </g>
            <g id="Group_2187" data-name="Group 2187" transform="translate(0 0.332)">
              <path id="Path_12423" data-name="Path 12423" d="M77.041,432.965c.482,0,.873-1.069.873-2.382s-.392-2.38-.873-2.38-.872,1.07-.872,2.38S76.561,432.965,77.041,432.965Z" transform="translate(-72.933 -428.203)" fill="#eabc4e" fill-rule="evenodd"/>
              <path id="Path_12424" data-name="Path 12424" d="M73.05,428.859c.418-.239,1.289.487,1.948,1.627s.852,2.257.433,2.5-1.289-.487-1.947-1.625S72.632,429.1,73.05,428.859Z" transform="translate(-72.83 -428.222)" fill="#eabc4e" fill-rule="evenodd"/>
              <path id="Path_12425" data-name="Path 12425" d="M80.922,428.859c-.418-.239-1.289.487-1.947,1.627s-.852,2.257-.434,2.5,1.29-.487,1.947-1.625S81.34,429.1,80.922,428.859Z" transform="translate(-72.999 -428.222)" fill="#eabc4e" fill-rule="evenodd"/>
            </g>
            <g id="Group_2188" data-name="Group 2188" transform="translate(363.118)">
              <path id="Path_12426" data-name="Path 12426" d="M451.73,432.622c.481,0,.872-1.069.872-2.38s-.392-2.382-.872-2.382-.874,1.069-.874,2.382S451.25,432.622,451.73,432.622Z" transform="translate(-447.621 -427.86)" fill="#eabc4e" fill-rule="evenodd"/>
              <path id="Path_12427" data-name="Path 12427" d="M447.737,428.519c.419-.241,1.289.487,1.946,1.625s.854,2.258.435,2.5-1.289-.487-1.946-1.625S447.32,428.76,447.737,428.519Z" transform="translate(-447.518 -427.879)" fill="#eabc4e" fill-rule="evenodd"/>
              <path id="Path_12428" data-name="Path 12428" d="M455.608,428.519c-.417-.241-1.287.487-1.946,1.625s-.852,2.258-.433,2.5,1.289-.487,1.946-1.625S456.027,428.76,455.608,428.519Z" transform="translate(-447.687 -427.879)" fill="#eabc4e" fill-rule="evenodd"/>
            </g>
          </g>
        </g>
      </g>
      <g id="Group_2199" data-name="Group 2199" transform="translate(9.704 175.332)">
        <g id="Group_2193" data-name="Group 2193" transform="translate(223.295 0.316)">
          <path id="Path_12429" data-name="Path 12429" d="M349.669,278.2l9.9,13.973c5.427,1.315,16.473,4.88,22.017,5.53,0,0,2.532-1.611,3.074-1.805s2.65-.684,2.65-.684c2.84.1.076,1.585-1.162,2.872,8.611,1.918,7.874,3.908,3.593,4.642-8.775,1.5-33.917-.3-37.455-4.986C349.7,294.31,340.39,278.1,340.39,278.1Z" transform="translate(-267.522 -223.516)" fill="#d98c80" fill-rule="evenodd"/>
          <path id="Path_12430" data-name="Path 12430" d="M322.441,231.085c-3.178,2.446-2.319,5.151-.26,10.559a65.7,65.7,0,0,0,4.123,8.928s1.63-14.765,1.114-15.538S324.757,230.312,322.441,231.085Z" transform="translate(-266.903 -222.061)" fill="#381f4c" fill-rule="evenodd"/>
          <path id="Path_12431" data-name="Path 12431" d="M335.7,257.567c10.473,8.583,17.512,23.521,17.512,23.521l-8.412,9.271S335.53,267.01,335.7,257.567Z" transform="translate(-267.378 -222.882)" fill="#f1cc1f" fill-rule="evenodd"/>
          <path id="Path_12432" data-name="Path 12432" d="M318.762,411.626l-.735,9.013H313.22l-.769-9.356Z" transform="translate(-266.66 -227.629)" fill="#d98c80" fill-rule="evenodd"/>
          <path id="Path_12433" data-name="Path 12433" d="M338.714,411.626l-.225,9.013H343.3l1.766-9.356Z" transform="translate(-267.464 -227.629)" fill="#d98c80" fill-rule="evenodd"/>
          <path id="Path_12434" data-name="Path 12434" d="M337.957,419.52v5.666h16.225L343.8,419.52h-5.839Z" transform="translate(-267.447 -227.883)" fill="#381f4c" fill-rule="evenodd"/>
          <path id="Path_12435" data-name="Path 12435" d="M312.8,419.52v5.666h16.225l-10.388-5.666H312.8Z" transform="translate(-266.67 -227.883)" fill="#381f4c" fill-rule="evenodd"/>
          <path id="Path_12436" data-name="Path 12436" d="M314.832,324.028l-.581,45.356-5.8,43.029,11.743-.618,14.078-68.4,3.682,30.19-2.1,38.211,9.89.824,5.976-40.381-.824-49.652S324.721,319.5,314.832,324.028Z" transform="translate(-266.536 -224.858)" fill="#381f4c" fill-rule="evenodd"/>
          <path id="Path_12437" data-name="Path 12437" d="M313.965,293.565c.288,8.567-.337,22.686-.165,22.822,8.637,6.81,26.992,7.518,36.263-.094.212-.174-3.339-23.527-3.339-28.085,0-23.665-10.6-32.055-17.724-32.432C320.056,255.305,312.964,263.665,313.965,293.565Z" transform="translate(-266.7 -222.826)" fill="#ebebeb" fill-rule="evenodd"/>
          <path id="Path_12438" data-name="Path 12438" d="M325.1,243.834l.721,12.362s-.515,5.768,4.635,7.519,3.091-6.283,3.091-6.283l-.206-5.768S329.835,240.641,325.1,243.834Z" transform="translate(-267.05 -222.44)" fill="#d18074" fill-rule="evenodd"/>
          <path id="Path_12439" data-name="Path 12439" d="M325.073,240.066c-1.65-1.747-3.4,1.543-1.557,2.837a3.371,3.371,0,0,0,1.713.512s.31,3.967,5.048,6.644,9.271.824,9.477-6.387.721-11.64.721-11.64l-12.054-.721S327.805,236.873,325.073,240.066Z" transform="translate(-266.977 -222.071)" fill="#d98c80" fill-rule="evenodd"/>
          <path id="Path_12440" data-name="Path 12440" d="M325.138,242.645c2.137-3.48,5.05-5.737,3.562-8.713,0,0,3.091.387,3.734-.472a3.433,3.433,0,0,0,.687-1.159,13.494,13.494,0,0,0,7.584.935c11.155-2.729-9.1-12.372-14.436-4.034-.3.471-1.517-.7-1.414-.225-1.058-.726-1.95-1.012-1.227-.217s-.047.022-.047.022-2.319.129-2.19,1.073c.047.336.746.5,1.552.517a3.718,3.718,0,0,0-1.819,2.852c0,.986,2.405,2.734,3.237,4.526C325.123,239.392,324.621,243.486,325.138,242.645Z" transform="translate(-266.927 -221.904)" fill="#381f4c" fill-rule="evenodd"/>
          <path id="Path_12441" data-name="Path 12441" d="M341.455,238.155a.483.483,0,0,0-.331-.132H325.415a.486.486,0,1,0,0,.973h4.931c.131.805.572,2.73,1.807,3.071a3.716,3.716,0,0,0,.808.133,2.436,2.436,0,0,0,1.522-.405,2.789,2.789,0,0,0,1.049-1.622,5.915,5.915,0,0,0,.187-1.177h.594a5.712,5.712,0,0,0,.187,1.177,2.786,2.786,0,0,0,1.049,1.622,2.42,2.42,0,0,0,1.52.405,3.754,3.754,0,0,0,.81-.133c1.567-.433,1.855-3.416,1.855-3.425A.481.481,0,0,0,341.455,238.155Z" transform="translate(-267.045 -222.279)" fill="#381f4c" fill-rule="evenodd"/>
          <path id="Path_12442" data-name="Path 12442" d="M308.369,278.2l-9.9,13.973c-5.425,1.315-16.473,4.88-22.016,5.53,0,0-2.532-1.611-3.076-1.805s-2.65-.684-2.65-.684c-2.84.1-.076,1.585,1.162,2.872-8.611,1.918-7.874,3.908-3.593,4.642,8.775,1.5,33.917-.3,37.455-4.986,2.588-3.429,11.9-19.638,11.9-19.638Z" transform="translate(-265.201 -223.516)" fill="#d98c80" fill-rule="evenodd"/>
          <path id="Path_12443" data-name="Path 12443" d="M323.448,257.567c-10.473,8.583-17.51,23.521-17.51,23.521l8.412,9.271S323.621,267.01,323.448,257.567Z" transform="translate(-266.459 -222.882)" fill="#f1cc1f" fill-rule="evenodd"/>
          <g id="Group_2192" data-name="Group 2192" transform="translate(62.346 41.935)">
            <path id="Path_12444" data-name="Path 12444" d="M332.013,265.783l7.329,36.646-2.748,5.5-5.726-5.955Z" transform="translate(-329.574 -265.071)" fill="#381f4c" fill-rule="evenodd"/>
            <path id="Path_12445" data-name="Path 12445" d="M334.53,266.923l-2.151,3.808-2.845-3.271,2.15-2.412Z" transform="translate(-329.533 -265.048)" fill="#381f4c" fill-rule="evenodd"/>
          </g>
          <path id="Path_12446" data-name="Path 12446" d="M377.748,295.227l-.2,8.746S353.3,300.594,351.51,298.8s-3.579-7.157-3.579-7.157l6.36,35.583L344.155,333l-4.774-46.68-5.167-29.455s8.548,4.572,11.53,10.734,13.518,23.457,13.518,23.457Z" transform="translate(-267.332 -222.86)" fill="#2c3b5b" fill-rule="evenodd"/>
          <path id="Path_12447" data-name="Path 12447" d="M324.264,254.605c-1.392,8.15-.2,79.316-.2,79.316l-14.908-6.56,2.981-37.372s-4.373,10.338-8.15,11.331-26.836,1.788-26.836,1.788l-1.192-6.559,22.066-5.764S311.145,260.171,324.264,254.605Z" transform="translate(-265.533 -222.791)" fill="#2c3b5b" fill-rule="evenodd"/>
          <path id="Path_12448" data-name="Path 12448" d="M320.688,236.619c-2.586-7.355,1.887-9.591,2.782-9.393s-2.932-2.385-1.241-2.236,1.988,1.093,1.988,1.093,2.086-3.182,2.684-2.337-1.094,1.889-1.094,1.889,11.183-6.261,13.915-2.833-10.585,8.846-11.33,9.194S323.371,240.893,320.688,236.619Z" transform="translate(-266.889 -221.777)" fill="#381f4c" fill-rule="evenodd"/>
        </g>
        <g id="Group_2195" data-name="Group 2195" transform="translate(84.695 2.018)">
          <path id="Path_12449" data-name="Path 12449" d="M157.587,234.828c1.292,3.679-2.683,6.66-4.473,9.146s0,7.155.3,9.541-2.087,3.577-4.075,7.454-6.76,18.983,23.755,17.891,23.358-15.8,16.9-19.681-.4-7.156-3.876-11.628-9.741-6.163-8.647-10.139S157.587,234.828,157.587,234.828Z" transform="translate(-122.976 -223.875)" fill="#381f4c" fill-rule="evenodd"/>
          <path id="Path_12450" data-name="Path 12450" d="M148.833,280.4l-6.524,9.872a181.576,181.576,0,0,1-11.629-15.283s.336-2.982.273-3.555-.549-2.681-.549-2.681c-1.333-2.509-1.458.626-2.069,2.3-5.5-6.893-6.968-5.358-5.749-1.191,2.5,8.545,15.332,30.7,21.1,31.823,4.217.821,11.848-17.77,11.848-17.77Z" transform="translate(-122.185 -224.854)" fill="#d98c80" fill-rule="evenodd"/>
          <path id="Path_12451" data-name="Path 12451" d="M189.587,411.626l.224,9.013H185l-1.766-9.356Z" transform="translate(-124.07 -229.331)" fill="#d98c80" fill-rule="evenodd"/>
          <path id="Path_12452" data-name="Path 12452" d="M190.035,419.52v5.666H173.811L184.2,419.52h5.837Z" transform="translate(-123.779 -229.585)" fill="#381f4c" fill-rule="evenodd"/>
          <path id="Path_12453" data-name="Path 12453" d="M160.686,229.615c-9.783,12.085,4.535,20.792,4.807,17.254.085-1.115.428-18.541.428-18.541Z" transform="translate(-123.268 -223.681)" fill="#381f4c" fill-rule="evenodd"/>
          <path id="Path_12454" data-name="Path 12454" d="M178.346,228.752c6.46,4.015,2.254,9.138,2.1,13.847s4.357,7.2,4.357,7.2-6.462,6.092-14.874,4.984-9.688-5.421-9.688-5.421,4.881-2.193,4.881-11.471S172.187,225.706,178.346,228.752Z" transform="translate(-123.36 -223.659)" fill="#381f4c" fill-rule="evenodd"/>
          <path id="Path_12455" data-name="Path 12455" d="M162.486,411.626l.225,9.013H157.9l-1.766-9.356Z" transform="translate(-123.233 -229.331)" fill="#d98c80" fill-rule="evenodd"/>
          <path id="Path_12456" data-name="Path 12456" d="M162.935,419.52v5.666H146.71L157.1,419.52h5.837Z" transform="translate(-122.942 -229.585)" fill="#381f4c" fill-rule="evenodd"/>
          <path id="Path_12457" data-name="Path 12457" d="M185.237,324.028c2.68,28.431,4.376,47.917,4.555,49.608.628,5.9,1.84,30.519,2.26,38.159l-9.888.825-5.976-39.19-8.67-31.066-4.2,35.2.909,34.234-9.889.825-4.782-36.406.425-53.628S175.348,319.5,185.237,324.028Z" transform="translate(-123.03 -226.56)" fill="#381f4c" fill-rule="evenodd"/>
          <path id="Path_12458" data-name="Path 12458" d="M186.237,293.565c-.287,8.567,1.929,33.421,1.757,33.556-8.638,6.809-30.173,7.122-39.443-.491-.212-.174,4.929-33.864,4.929-38.422,0-23.665,10.605-32.055,17.724-32.432C180.145,255.305,187.241,263.665,186.237,293.565Z" transform="translate(-122.998 -224.528)" fill="#eabc4e" fill-rule="evenodd"/>
          <path id="Path_12459" data-name="Path 12459" d="M176.031,243.834,175.31,256.2s.515,5.768-4.635,7.519-3.091-6.283-3.091-6.283l.206-5.768S171.293,240.641,176.031,243.834Z" transform="translate(-123.574 -224.142)" fill="#d18074" fill-rule="evenodd"/>
          <path id="Path_12460" data-name="Path 12460" d="M175.77,240.066c1.65-1.747,3.4,1.543,1.557,2.837a3.369,3.369,0,0,1-1.712.512s-.31,3.967-5.049,6.644-9.271.824-9.477-6.387-.721-11.64-.721-11.64l12.054-.721S173.038,236.873,175.77,240.066Z" transform="translate(-123.364 -223.773)" fill="#d98c80" fill-rule="evenodd"/>
          <path id="Path_12461" data-name="Path 12461" d="M166.229,257.068c-9.32,3.09-14.365,8.974-17.471,18.588s-5.524,11.115-5.524,11.115l11.65,1.546Z" transform="translate(-122.834 -224.569)" fill="#eabc4e" fill-rule="evenodd"/>
          <path id="Path_12462" data-name="Path 12462" d="M157.375,231.153c1.876,2.475,7.5-3.026,8.146.069.969,4.664,4.146,8.615,8.706,11.644,2.762,1.835,3.373,5.385,3.609,4.542.858-3.063,2.258-17.141.451-18.479-4.273-3.164-16.193.757-20.574.643C157.173,229.559,157,230.666,157.375,231.153Z" transform="translate(-123.265 -223.662)" fill="#381f4c" fill-rule="evenodd"/>
          <path id="Path_12463" data-name="Path 12463" d="M160.28,239.046c.625.117.826-1.935,1.9-3.933.965-1.787,2.81-3.53,3.4-3.632,5.131-.9,12.139-2.187,12.121-2.981-.18-7.839-14.922-5.051-19.23-.827C156.374,229.732,154.381,237.94,160.28,239.046Z" transform="translate(-123.24 -223.533)" fill="#381f4c" fill-rule="evenodd"/>
          <path id="Path_12464" data-name="Path 12464" d="M175.863,256.315c.3.1,2.11.426,2.409.541,6.792,2.571,12.257,7.835,14.888,19.549l2.746,12.23-15.451-.612Z" transform="translate(-123.842 -224.546)" fill="#eabc4e" fill-rule="evenodd"/>
          <path id="Path_12465" data-name="Path 12465" d="M178.3,233.331c1.967,4,3.217,4.851,4.936,6.03a24.732,24.732,0,0,1,3.675,2.957c2.3,2.25,3.152,4.061,3.071,5.926-.078,1.822-1.039,3.519-2.382,5.677a3.751,3.751,0,0,0-.348.712,3.435,3.435,0,0,0,.623,3.141,9.786,9.786,0,0,0,2.809,2.555,7.594,7.594,0,0,0,1.4.709l-.617,1.769a9.541,9.541,0,0,1-1.773-.887,11.678,11.678,0,0,1-3.358-3.075,5.207,5.207,0,0,1-.85-4.828,5.619,5.619,0,0,1,.524-1.088c1.192-1.917,2.044-3.4,2.1-4.759.057-1.315-.636-2.685-2.507-4.51a23.13,23.13,0,0,0-3.424-2.751c-1.955-1.34-3.374-2.313-5.558-6.748Z" transform="translate(-123.866 -223.836)" fill="#381f4c" fill-rule="evenodd"/>
          <path id="Path_12466" data-name="Path 12466" d="M192.232,280.4l6.524,9.872a181.589,181.589,0,0,0,11.629-15.283s-.336-2.982-.273-3.555.55-2.681.55-2.681c1.333-2.509,1.458.626,2.069,2.3,5.5-6.893,6.969-5.358,5.749-1.191-2.5,8.545-15.332,30.7-21.1,31.823-4.216.821-11.847-17.77-11.847-17.77Z" transform="translate(-124.141 -224.854)" fill="#d98c80" fill-rule="evenodd"/>
          <path id="Path_12467" data-name="Path 12467" d="M176.5,256.966c9.32,3.091,14.067,7.483,17.174,17.1s4.53,12.705,4.53,12.705l-11.652,1.546Z" transform="translate(-123.862 -224.566)" fill="#eabc4e" fill-rule="evenodd"/>
          <path id="Path_12468" data-name="Path 12468" d="M177.417,256.527c-3.579,68.383,8.349,112.91,8.349,112.91l11.529-6.36s-4.374-25.842-6.958-48.7-2.585-24.054-2.585-24.054,4.375,14.91,11.531,12.127,14.513-20.873,14.513-20.873l-4.971-4.77s-9.542,12.722-10.734,10.933S194.71,261.3,177.417,256.527Z" transform="translate(-123.869 -224.552)" fill="#cf801c" fill-rule="evenodd"/>
          <path id="Path_12469" data-name="Path 12469" d="M164.083,257.528c.571,67.647-11.067,112.133-11.067,112.133l-11.4-6.6s4.908-25.746,7.965-48.548,3.082-23.995,3.082-23.995-4.681,14.815-11.778,11.885-14.076-21.17-14.076-21.17l5.068-4.666s9.276,12.917,10.506,11.155S146.694,261.939,164.083,257.528Z" transform="translate(-122.327 -224.583)" fill="#cf801c" fill-rule="evenodd"/>
          <g id="Group_2194" data-name="Group 2194" transform="translate(22.338 108.497)">
            <path id="Path_12470" data-name="Path 12470" d="M147.421,335.664a22.223,22.223,0,0,0,5.069.764l.5,0-.029.492c0,.031-.615,10.9-5.153,11.764-.575.109-1.066.182-1.489.226a8.432,8.432,0,0,1-1.082.053l.018-.935a7.83,7.83,0,0,0,.969-.049c.393-.042.861-.11,1.411-.216,3.318-.631,4.185-8.4,4.354-10.42a24.966,24.966,0,0,1-4.8-.775Z" transform="translate(-145.234 -335.493)" fill="#b0651c" fill-rule="evenodd"/>
            <path id="Path_12471" data-name="Path 12471" d="M193.211,336.39a25.157,25.157,0,0,1-5.44.95c.169,2.019,1.035,9.789,4.353,10.42a15.577,15.577,0,0,0,1.7.241,5.52,5.52,0,0,0,1.021,0l.107.932a6.361,6.361,0,0,1-1.2,0,16.153,16.153,0,0,1-1.806-.256c-4.537-.865-5.15-11.733-5.151-11.764l-.03-.492.5,0a22.74,22.74,0,0,0,5.689-.934Z" transform="translate(-146.517 -335.487)" fill="#b0651c" fill-rule="evenodd"/>
          </g>
        </g>
        <g id="Group_2197" data-name="Group 2197">
          <path id="Path_12472" data-name="Path 12472" d="M63.485,249.331a1.889,1.889,0,1,0-1.889-1.889A1.893,1.893,0,0,0,63.485,249.331Z" transform="translate(-35.618 -222.195)" fill="#381f4c" fill-rule="evenodd"/>
          <path id="Path_12473" data-name="Path 12473" d="M58.4,245.417a2.137,2.137,0,1,0-2.136-2.137A2.14,2.14,0,0,0,58.4,245.417Z" transform="translate(-35.453 -222.059)" fill="#381f4c" fill-rule="evenodd"/>
          <path id="Path_12474" data-name="Path 12474" d="M55.062,237.1a2.286,2.286,0,1,0-2.286-2.285A2.289,2.289,0,0,0,55.062,237.1Z" transform="translate(-35.346 -221.793)" fill="#381f4c" fill-rule="evenodd"/>
          <path id="Path_12475" data-name="Path 12475" d="M57.625,233.611a3.925,3.925,0,1,0-3.926-3.926A3.933,3.933,0,0,0,57.625,233.611Z" transform="translate(-35.374 -221.584)" fill="#381f4c" fill-rule="evenodd"/>
          <path id="Path_12476" data-name="Path 12476" d="M68.72,229.853a4.97,4.97,0,1,0,5.358-6.186,4.076,4.076,0,0,0-6.709-.807,5.764,5.764,0,0,0-9.526,3.951,2.234,2.234,0,0,0-1.992,3.314,5.276,5.276,0,0,0-.9,5.123,4.373,4.373,0,0,0,2.887,7.257,4.224,4.224,0,1,0,4.792-4.514,5.267,5.267,0,0,0,2.55-4.513,5.458,5.458,0,0,0-.047-.7A5.787,5.787,0,0,0,68.72,229.853Z" transform="translate(-35.379 -221.451)" fill="#381f4c" fill-rule="evenodd"/>
          <path id="Path_12477" data-name="Path 12477" d="M86.674,274.654l6.524,9.872a181.731,181.731,0,0,0,11.629-15.282s-.336-2.983-.273-3.556.549-2.681.549-2.681c1.333-2.509,1.458.626,2.069,2.3,5.5-6.893,6.968-5.358,5.749-1.191-2.5,8.545-15.332,30.7-21.1,31.823-4.218.82-11.848-17.77-11.848-17.77Z" transform="translate(-36.186 -222.659)" fill="#d98c80" fill-rule="evenodd"/>
          <path id="Path_12478" data-name="Path 12478" d="M70.751,257.068c4.548.393,10.368,7.014,14.993,14.632,3.394,5.588,7.481,11.387,7.315,11.465L82.1,288.315Z" transform="translate(-35.901 -222.551)" fill="#381f4c" fill-rule="evenodd"/>
          <path id="Path_12479" data-name="Path 12479" d="M55.925,411.626l-1.889,9.013H49.228l.429-9.356Z" transform="translate(-35.236 -227.313)" fill="#d98c80" fill-rule="evenodd"/>
          <path id="Path_12480" data-name="Path 12480" d="M76.647,411.626l-.225,9.013H81.23l1.765-9.356Z" transform="translate(-36.076 -227.313)" fill="#d98c80" fill-rule="evenodd"/>
          <path id="Path_12481" data-name="Path 12481" d="M75.892,419.52v5.666H92.115L81.729,419.52H75.892Z" transform="translate(-36.06 -227.567)" fill="#2c3b5b" fill-rule="evenodd"/>
          <path id="Path_12482" data-name="Path 12482" d="M48.7,419.52v5.666H64.92L54.534,419.52H48.7Z" transform="translate(-35.22 -227.567)" fill="#2c3b5b" fill-rule="evenodd"/>
          <path id="Path_12483" data-name="Path 12483" d="M52.765,324.028l-1.713,45.964-4.674,42.42,11.743-.618,12.362-69.432,5.4,31.22-2.1,38.211,9.89.824,5.975-40.381-.824-49.652S62.654,319.5,52.765,324.028Z" transform="translate(-35.148 -224.542)" fill="#2c3b5b" fill-rule="evenodd"/>
          <path id="Path_12484" data-name="Path 12484" d="M51.848,293.566c.288,8.567-1.927,33.421-1.756,33.556,3.853,3.039,10.275,4.784,17.027,5.108,1.506.072.345-7.381,1.759-7.55,2.811-.336,7.255-.841,10.375-.344.793.126.462,6.273,1.191,6.476,3.418.953,7.04-2.5,9.089-4.18.211-.173-4.929-33.864-4.929-38.422,0-23.665-10.605-32.055-17.725-32.432-2.657-.14-8.532,2.687-10.7,4.442C51.059,264.366,51.144,272.553,51.848,293.566Z" transform="translate(-35.263 -222.511)" fill="#381f4c" fill-rule="evenodd"/>
          <path id="Path_12485" data-name="Path 12485" d="M61.8,257.7l6.559,68.781s10.338-.2,11.33-1.392-2.782-54.268-4.771-61.622-2.385-6.163-2.385-6.163S65.975,253.722,61.8,257.7Z" transform="translate(-35.624 -222.512)" fill="#99b1d9" fill-rule="evenodd"/>
          <path id="Path_12486" data-name="Path 12486" d="M63.03,243.834l.721,12.362s-.516,5.768,4.635,7.519,3.09-6.283,3.09-6.283l-.206-5.768S67.769,240.641,63.03,243.834Z" transform="translate(-35.662 -222.124)" fill="#d18074" fill-rule="evenodd"/>
          <path id="Path_12487" data-name="Path 12487" d="M63.007,240.066c-1.651-1.747-3.4,1.543-1.558,2.837a3.371,3.371,0,0,0,1.713.512s.309,3.967,5.048,6.644,9.271.824,9.478-6.387.72-11.64.72-11.64l-12.053-.721S65.737,236.873,63.007,240.066Z" transform="translate(-35.589 -221.755)" fill="#d98c80" fill-rule="evenodd"/>
          <path id="Path_12488" data-name="Path 12488" d="M63.08,240.609c1.362-2.942,5.05-3.763,3.563-6.738,0,0,3.09.387,3.735-.472a3.41,3.41,0,0,0,.686-1.159c2.749,1.24,9.417,2.358,10.431-1.588.858-3.347-5.194-2.962-5.194-2.962s-.15-2.7-2.447-3.326a3.38,3.38,0,0,0-3.6,1.522s-1.824-2.767-3.8-1.759a4.083,4.083,0,0,0-2.059,3.282s-2.427-.623-3.306.752.666,3.133.666,3.133-2.381-.622-2.381,1.74C59.368,234.923,61.425,239.367,63.08,240.609Z" transform="translate(-35.549 -221.527)" fill="#381f4c" fill-rule="evenodd"/>
          <path id="Path_12489" data-name="Path 12489" d="M50.674,280.555c-2.359,5.721-5.152,11.863-5.152,11.863L64.5,311.988s3.69-.121,4.385.013,3.234.935,3.234.935a1.322,1.322,0,0,1-1.31,1.191,11.726,11.726,0,0,0-1.617.264L73.261,319c2.987,3.384-.8,3.085-4.771,2.743-2.419-.207-8.008-4.8-8.008-4.8s-21.054-17.42-23.168-21.176,2.863-15.919,2.863-15.919Z" transform="translate(-34.852 -223.254)" fill="#d98c80" fill-rule="evenodd"/>
          <path id="Path_12490" data-name="Path 12490" d="M60.663,258.5c-10.35-.836-24.988,25.772-24.651,25.921l12.576,5.6L56.9,276.386Z" transform="translate(-34.828 -222.595)" fill="#381f4c" fill-rule="evenodd"/>
          <g id="Group_2196" data-name="Group 2196" transform="translate(31.493 43.045)">
            <path id="Path_12491" data-name="Path 12491" d="M69.767,266.6,77.1,303.25l-2.748,5.5-5.726-5.955Z" transform="translate(-67.328 -265.891)" fill="#381f4c" fill-rule="evenodd"/>
            <path id="Path_12492" data-name="Path 12492" d="M72.283,267.744l-2.151,3.807-2.844-3.272,2.15-2.411Z" transform="translate(-67.287 -265.868)" fill="#381f4c" fill-rule="evenodd"/>
          </g>
          <path id="Path_12493" data-name="Path 12493" d="M63.253,310.57l-4.771,4.573s-23.258-16.7-23.655-22.265a19.2,19.2,0,0,1,2.584-10.338l3.976-4.373,10.734,5.764s-4.174,5.467-2.981,9.442S63.253,310.57,63.253,310.57Z" transform="translate(-34.79 -223.202)" fill="#381f4c" fill-rule="evenodd"/>
          <path id="Path_12494" data-name="Path 12494" d="M103.173,270.476c6.361,3.577,6.562,2.187,6.361,3.577s-14.513,24.252-17.494,23.259S81.9,284.788,81.9,284.788l8.349-5.963,3.578,4.97Z" transform="translate(-36.245 -222.965)" fill="#381f4c" fill-rule="evenodd"/>
        </g>
        <g id="Group_2198" data-name="Group 2198" transform="translate(322.575 0.017)">
          <path id="Path_12495" data-name="Path 12495" d="M405.777,274.775l-6.524,9.872-15.52-17.119a7.583,7.583,0,0,0-3.176-2.234c-1.974-.686-7.664-.825-7.664-.825.017.9.433,1.058,1.1,1.512-1.8,0-10.365-.685-4.069,2.168,3.25,1.473,8.97,2.965,10.895,3.927,2.746,1.374,15.6,23.167,19.812,23.988s11.846-17.77,11.846-17.77Z" transform="translate(-367.643 -222.796)" fill="#d98c80" fill-rule="evenodd"/>
          <path id="Path_12496" data-name="Path 12496" d="M410.208,287.8c-3.148,6.077-7.817,11.925-11.719,9.425s-15.746-20.372-15.339-22.117,3.8-4.984,4.4-4.375,11.779,9.935,12.735,10.811l.957.873,3.182-4.049Z" transform="translate(-368.122 -222.987)" fill="#381f4c" fill-rule="evenodd"/>
          <path id="Path_12497" data-name="Path 12497" d="M381.857,273.916a3.74,3.74,0,0,0,1.279,1.076s4.7-3.219,4.534-3.689a2.1,2.1,0,0,0-.963-1.081C386.421,270.134,382.439,272.223,381.857,273.916Z" transform="translate(-368.082 -222.974)" fill="#381f4c" fill-rule="evenodd"/>
          <path id="Path_12498" data-name="Path 12498" d="M422.469,257.068c-4.55.393-10.369,7.014-15,14.632-3.394,5.588-5.868,9.266-5.724,9.378l9.373,7.238Z" transform="translate(-368.696 -222.568)" fill="#68abe1" fill-rule="evenodd"/>
          <path id="Path_12499" data-name="Path 12499" d="M443.575,411.626l.226,9.013h-4.808l-1.764-9.356Z" transform="translate(-369.792 -227.33)" fill="#d98c80" fill-rule="evenodd"/>
          <path id="Path_12500" data-name="Path 12500" d="M418.651,411.626l.225,9.013H414.07l-1.766-9.356Z" transform="translate(-369.022 -227.33)" fill="#d98c80" fill-rule="evenodd"/>
          <path id="Path_12501" data-name="Path 12501" d="M419.1,419.52v5.666H402.877l10.388-5.666H419.1Z" transform="translate(-368.731 -227.584)" fill="#2c3b5b" fill-rule="evenodd"/>
          <path id="Path_12502" data-name="Path 12502" d="M444.081,419.52v5.666H427.856l10.388-5.666h5.837Z" transform="translate(-369.503 -227.584)" fill="#2c3b5b" fill-rule="evenodd"/>
          <path id="Path_12503" data-name="Path 12503" d="M441.763,324.028l.579,45.356,2.625,43.029-8.561-.618-14.08-68.4-3.68,30.19,2.1,38.211-9.888.824-5.976-40.381.824-49.652S431.872,319.5,441.763,324.028Z" transform="translate(-368.793 -224.559)" fill="#2c3b5b" fill-rule="evenodd"/>
          <path id="Path_12504" data-name="Path 12504" d="M439.244,239.249c-2.061,6.18-11.868,12.506-9.207,14.91s1.837,7.88,9.379,7.668-11.971-1.241-12.4-6.393-.949-3.037-1.551-6.385-8.029-16.239-8.029-16.239l-.085,7.125s-3.434-7.468-3.176-9.357c.183-1.342,4.624-5.313,8.741-7.417,10.134-5.179,10.9,3.161,11.268,3.275C439.31,228.031,441.237,233.269,439.244,239.249Z" transform="translate(-369.08 -221.468)" fill="#793323" fill-rule="evenodd"/>
          <path id="Path_12505" data-name="Path 12505" d="M442.4,293.565c-.286,8.567,1.928,25.867,1.757,26-8.637,6.81-30.172,7.122-39.442-.491-.214-.174,4.929-26.31,4.929-30.868,0-23.665,10.605-32.055,17.724-32.432C436.311,255.305,443.408,263.665,442.4,293.565Z" transform="translate(-368.788 -222.527)" fill="#68abe1" fill-rule="evenodd"/>
          <path id="Path_12506" data-name="Path 12506" d="M432.2,243.834l-.721,12.362s.515,5.768-4.635,7.519-3.091-6.283-3.091-6.283l.206-5.768S427.459,240.641,432.2,243.834Z" transform="translate(-369.363 -222.141)" fill="#d18074" fill-rule="evenodd"/>
          <path id="Path_12507" data-name="Path 12507" d="M431.959,240.124c1.65-1.747,3.4,1.543,1.557,2.837a3.372,3.372,0,0,1-1.713.512s-.31,3.967-5.048,6.644-9.271.824-9.477-6.387a56.153,56.153,0,0,1,.371-10.348c8.464,5.833,14.289-.406,14.261-.194A20.92,20.92,0,0,0,431.959,240.124Z" transform="translate(-369.175 -221.83)" fill="#d98c80" fill-rule="evenodd"/>
          <path id="Path_12508" data-name="Path 12508" d="M447.963,279.6l6.233,7.468-10.529,16.395a7.589,7.589,0,0,0-1.872,3.4c-.67,2.919-2.55,5.43-.314,6.481l1.713-2.518.7,8.847a6.249,6.249,0,0,0,1.9-2.548c1.112-3.391,1.97-9.242,2.716-11.258,1.066-2.879,17.049-15.069,17.4-19.349s-11.745-15.161-11.745-15.161Z" transform="translate(-369.891 -223.009)" fill="#d98c80" fill-rule="evenodd"/>
          <path id="Path_12509" data-name="Path 12509" d="M444.368,302.859a3.726,3.726,0,0,0-.645,1.54s4.473,3.53,4.87,3.231a2.1,2.1,0,0,0,.746-1.242C449.339,306.09,446.158,302.909,444.368,302.859Z" transform="translate(-369.993 -223.982)" fill="#381f4c" fill-rule="evenodd"/>
          <path id="Path_12510" data-name="Path 12510" d="M460.044,276.143c5.962,4.571,8.646,9.045,6.857,13.318s-15.6,16.3-17.395,16.2-5.565-2.883-5.068-3.577,7.751-13.32,8.448-14.412l.7-1.094-3.282-4.472Z" transform="translate(-370.013 -223.157)" fill="#381f4c" fill-rule="evenodd"/>
          <path id="Path_12511" data-name="Path 12511" d="M432.65,256.817c4.46-.986,11.991,3.593,18.684,9.476,4.91,4.317,10.545,8.629,10.41,8.751l-10.467,9.4-11.983-10.549Z" transform="translate(-369.651 -222.556)" fill="#68abe1" fill-rule="evenodd"/>
          <path id="Path_12512" data-name="Path 12512" d="M431.768,253.216c.621-.273,1.938-.373,2.608,2.759a8.7,8.7,0,0,1-5.491,9.964c-5.069,1.988-7.7-2.336-6.808-6.66s1.192-5.467,1.74-4.522-.248,4.572,3.28,4.025S431.221,256.248,431.768,253.216Z" transform="translate(-369.319 -222.445)" fill="#381f4c" fill-rule="evenodd"/>
        </g>
      </g>
      <g id="Group_2200" data-name="Group 2200" transform="translate(146.108)">
        <path id="Path_12513" data-name="Path 12513" d="M246.558,42.9c37.8,0,69.466,33.864,69.466,71.172,0,55.64-52.1,51.265-52.1,93.863q-1.285,8.9-6.447,12.735c-2.577,1.915-10.128,2.95-15.374,1.2-6.484-2.167-9.5-6.788-9.5-12.588v-4.5c0-57.066,51.791-51.036,51.791-92.415,0-21.313-18.8-37.834-39.541-37.834q-22.561,0-35.251,23.931l-2.512,12.313a16.047,16.047,0,0,1-5.855,12.269c-3.276,2.776-6.634,4.209-10.136,4.209-10.389-2.222-15.557-7.391-15.557-15.455q0-33.183,32.51-57.786Q227.9,42.926,246.558,42.9Zm1.964,187.363a19.688,19.688,0,0,1,5.293.7c8.658,2.412,13.571,10.676,13.685,19a21.386,21.386,0,0,1-6.158,15.493c-11.192,10.775-34.012,3.748-34.012-14.623C227.331,238.278,236.2,230.263,248.523,230.263Z" transform="translate(-175.54 -40.605)" fill="#4c878b" fill-rule="evenodd"/>
        <path id="Path_12514" data-name="Path 12514" d="M256.108,40.532c19.368,0,37.168,8.582,50.192,21.927,13.252,13.575,21.569,32.1,21.569,51.54,0,30.729-15.241,43.691-29.467,55.789-11.682,9.934-22.634,19.248-22.634,38.074V208l-.025.186q-1.239,8.572-5.909,13.033c-3.169,3.029-13.557,7.1-25.509-1.326a14.133,14.133,0,0,1-4.467-10.686v-4.5c0-31.894,15.547-44.671,29.846-56.422,11.4-9.367,21.947-18.036,21.947-35.994A34.35,34.35,0,0,0,280.76,87.4a38.385,38.385,0,0,0-26.354-10.644A32.692,32.692,0,0,0,235.6,82.326,42.443,42.443,0,0,0,223.972,94.69c-.915,1.418-4.127,11.748-4.127,11.748l-1.44,7.054s.409,10.408-9.17,13.445a16.291,16.291,0,0,1-8.585,2.537h-.224l-.252-.053q-8.442-1.805-12.8-6.147a15.588,15.588,0,0,1-4.572-11.547,64.549,64.549,0,0,1,8.427-32.161q8.366-14.87,25-27.454l.1-.077.167-.094a95.579,95.579,0,0,1,20.02-8.525,70.336,70.336,0,0,1,19.6-2.883Zm46.913,25.119c-12.2-12.495-28.833-20.53-46.912-20.53a65.8,65.8,0,0,0-18.328,2.685,90.971,90.971,0,0,0-18.9,8.038Q203.1,67.812,195.22,81.8a60.055,60.055,0,0,0-7.834,29.92,11.192,11.192,0,0,0,3.21,8.3q3.343,3.322,10.271,4.854a11.865,11.865,0,0,0,5.984-1.855c7.458-2.477,7.1-10.59,7.1-10.59l1.35-6.614s2.358-9.646,4.322-12.843a46.6,46.6,0,0,1,13.411-14.437,37.154,37.154,0,0,1,21.37-6.379A42.988,42.988,0,0,1,283.915,84.1a38.9,38.9,0,0,1,12.321,28.193c0,20.105-11.36,29.441-23.629,39.526-13.491,11.088-28.161,23.143-28.161,52.891v4.5a9.73,9.73,0,0,0,3.033,7.37q3.227,3.07,9.874,4.6,5.954-.055,9.326-3.274,3.468-3.314,4.5-10.189c.058-20.83,11.77-30.794,24.264-41.419,13.437-11.428,27.835-23.674,27.835-52.294,0-18.218-7.815-35.6-20.259-48.348ZM258.071,227.9a23.116,23.116,0,0,1,3.006.2,21.307,21.307,0,0,1,2.9.59,20.123,20.123,0,0,1,11,7.742,23.692,23.692,0,0,1,4.354,13.435,24.833,24.833,0,0,1-1.743,9.434,21.96,21.96,0,0,1-5.112,7.734,21.187,21.187,0,0,1-14.837,5.732,24.738,24.738,0,0,1-9.274-1.82,23,23,0,0,1-7.916-5.311,20.982,20.982,0,0,1-5.868-14.873c0-6.851,2.422-12.512,6.538-16.505,4.2-4.072,10.105-6.361,16.949-6.361Zm2.416,4.74a18.421,18.421,0,0,0-2.416-.15c-5.63,0-10.424,1.816-13.757,5.054-3.234,3.139-5.139,7.67-5.139,13.224a16.485,16.485,0,0,0,4.575,11.7,18.462,18.462,0,0,0,6.34,4.236,20.146,20.146,0,0,0,7.552,1.477,16.646,16.646,0,0,0,11.664-4.44,17.408,17.408,0,0,0,4.038-6.121,20.279,20.279,0,0,0,1.419-7.695A19.075,19.075,0,0,0,271.27,239.1a15.585,15.585,0,0,0-8.512-6A16.489,16.489,0,0,0,260.487,232.635Z" transform="translate(-175.764 -40.532)" fill="#cde1f5" fill-rule="evenodd"/>
      </g>
      <g id="Group_2204" data-name="Group 2204" transform="translate(33.899 7.563)">
        <g id="Group_2201" data-name="Group 2201" transform="translate(29.533)">
          <path id="Path_12515" data-name="Path 12515" d="M130.226,98.477l.262-.024.175-.016.176-.014.176-.013.176-.012.177-.011.177-.01.178-.008.177-.008.179-.006.178,0,.179,0,.178,0h.18l.179,0V96.934H132.6l-.187,0-.187,0-.186.006-.187.006-.186.008-.186.008-.185.011-.186.012-.185.013-.185.014-.184.015-.184.016-.269.025.123,1.4,2.746-.135.18,0h.179l.179,0,.178,0,.178,0,.209.007.062-1.407-.226-.008-.186-.006-.188,0-.187,0h-.376l-2.75,1.543Zm5.225-.025.183.017.175.016.174.018.175.019.173.02.174.02.173.022.173.023.173.025.172.025.173.026.172.028.17.029.172.03.171.031.119.021.265-1.384-.128-.023-.179-.033-.18-.031-.179-.03-.181-.029-.18-.028-.18-.027-.182-.026-.18-.025-.183-.023-.182-.022-.183-.02-.183-.02-.183-.019-.183-.018-.192-.017-.128,1.4Zm4.062.667.223.054.166.043.167.044.166.044.165.046.165.047.164.048.164.047.165.049.162.05.163.051.162.052.162.053.161.054.162.055.119.042.468-1.329-.129-.046-.17-.058-.17-.056-.17-.056-.171-.054-.172-.054-.172-.052-.172-.051-.173-.05-.173-.049-.173-.048-.173-.047-.174-.046-.174-.046-.175-.045-.231-.057-.331,1.366Zm3.919,1.265.176.073.156.065.156.067.154.067.153.068.154.069.152.07.3.142.153.073.151.074.15.075.149.076.15.077.148.077.174.091.665-1.241-.188-.1-.158-.081-.157-.079-.157-.079-.159-.078-.159-.078-.159-.077-.16-.076-.161-.075-.161-.074-.162-.073-.162-.072-.163-.07-.163-.07-.164-.068-.185-.077-.531,1.305Zm3.685,1.834.232.139.142.087.141.088.142.089.141.09.141.09.141.091.14.092.139.093.139.094.138.094.138.1.137.1.136.1.25.182.836-1.133-.122-.089-.141-.1-.141-.1-.143-.1-.143-.1-.143-.1-.144-.1-.145-.1-.146-.1-.146-.1-.147-.095-.147-.095-.149-.093-.148-.093-.15-.091-.238-.144-.731,1.209Zm3.373,2.359.246.2.127.107.127.108.126.109.126.109.125.11.124.11.123.111.123.112.244.227.12.114.119.115.12.116.191.188,1-1-.2-.2-.125-.121-.126-.121-.127-.12-.129-.119-.128-.119-.129-.117-.13-.117-.131-.116-.132-.115-.132-.115-.133-.114-.134-.113-.134-.112-.135-.111-.118-.1-.894,1.087Zm2.992,2.836.125.138.11.124.11.125.109.126.11.126.107.126.107.127.213.258.1.129.1.13.205.262.1.132.1.133.139.184,1.133-.836-.146-.2-.107-.14-.107-.139-.107-.138-.109-.138-.11-.137-.109-.136-.111-.136-.111-.135-.112-.134-.112-.133L155,107l-.115-.132-.114-.131-.117-.131-.13-.143-1.045.948Zm2.539,3.241.127.191.092.14.09.141.09.141.088.141.089.142.087.142.086.143.085.143.086.144.083.144.082.145.083.145.08.146.08.146.082.153,1.246-.657-.091-.169-.085-.154-.084-.154-.086-.154-.088-.153-.087-.152-.09-.151-.09-.151-.091-.15-.092-.15-.093-.148-.093-.149-.095-.148-.095-.147-.1-.147-.132-.2-1.17.784Zm2.029,3.58.127.271.07.153.069.154.068.154.066.154.067.156.065.156.064.156.063.157.062.157.062.157.061.158.059.159.059.159.085.238,1.33-.468-.092-.254-.062-.167-.062-.167-.063-.166-.064-.166-.066-.165-.066-.165-.068-.164-.068-.164-.07-.163-.071-.163-.071-.162-.072-.162-.074-.161-.131-.279-1.278.593Zm1.478,3.844.069.235.048.164.047.165.046.166.045.165.043.166.043.167.042.167.04.168.039.167.038.168.038.169.036.169.035.169.053.266,1.384-.265-.057-.283-.036-.177-.039-.177-.039-.177-.04-.176-.042-.176-.042-.175-.044-.175-.045-.175-.047-.174-.047-.173-.047-.173L161,118.09l-.05-.173-.072-.243-1.35.4Zm.886,4.021.038.264.02.173.021.173.02.174.019.174.019.174.016.175.016.175.016.175.014.176.014.176.012.176.012.177.009.177.009.192,1.408-.053-.011-.209-.01-.186-.011-.185-.014-.186-.014-.185-.015-.184-.016-.184-.016-.184-.019-.184-.019-.183-.02-.183-.021-.183-.022-.182-.022-.182-.039-.272-1.395.192Zm.282,4.111,0,.217,0,.178,0,.179,0,.178-.007.178-.008.178-.009.177-.009.177-.012.176-.012.176-.014.176-.014.176-.016.175-.016.175-.022.223,1.4.151.024-.24.016-.183.016-.184.015-.184.014-.185.014-.185.011-.186.01-.186.01-.186.008-.186.007-.187,0-.187,0-.188,0-.188v-.226l-1.408-.013Zm-.323,4.1-.023.149-.027.172-.029.171-.029.171-.031.171-.032.17-.033.17-.034.17-.035.169-.036.169-.038.168-.038.168-.039.167-.04.167-.042.167-.045.173,1.363.36.048-.189.044-.175.042-.175.042-.176.04-.176.039-.177.039-.177.036-.177.037-.178.034-.178.033-.179.033-.179.032-.179.029-.18.029-.18.023-.149-1.392-.217Zm-.927,4.01-.047.151-.052.163-.053.161-.054.162-.054.16-.056.16-.057.16-.058.16-.059.159-.059.159-.061.158-.062.158-.062.157-.063.157-.064.156-.084.2,1.294.556.091-.215.068-.164.066-.165.066-.165.064-.166.063-.167.062-.166.062-.167.061-.168.059-.168.059-.169.058-.169.058-.17.055-.171.055-.17.048-.15-1.341-.431Zm-1.517,3.83-.114.234-.075.15-.076.15-.078.149-.078.148-.079.148-.079.147-.08.147-.08.146-.083.145-.082.145-.083.145-.086.143-.085.143-.086.142-.074.121,1.2.738.078-.128.091-.15.09-.151.09-.152.087-.152.088-.153.086-.153.084-.154.085-.154.084-.155.083-.156.081-.156.08-.157.079-.157.079-.158.119-.243-1.268-.616Zm-2.066,3.559-.09.13-.1.137-.1.137-.1.135-.1.136-.1.135-.2.267-.1.133-.1.132-.205.262-.1.13-.1.129-.272.329,1.076.909.177-.212.111-.136.109-.136.11-.137.109-.137.107-.139.107-.139.107-.14.1-.141.1-.141.1-.141.1-.141.1-.141.1-.142.19-.274-1.154-.8Zm-2.575,3.218-.133.143-.114.12-.114.12-.116.12-.117.118-.235.236-.118.116-.12.116-.119.115-.12.114-.244.227-.123.112-.123.111-.167.148.929,1.059.179-.16.13-.117.129-.118.128-.118.129-.119.127-.12.126-.121.125-.122.249-.245.246-.248.12-.125.121-.126.12-.127.141-.148-1.035-.962Zm-3.017,2.8c-.1.083-.208.166-.313.247l-.133.1-.133.1-.267.2-.135.1-.135.1-.136.1-.137.1-.138.095-.138.095-.139.094-.139.093-.14.092-.149.1.76,1.186.164-.107.146-.1.145-.1.144-.1.143-.1.143-.1.143-.1.141-.1.141-.1.141-.1.141-.1.14-.106.139-.106.139-.108.139-.108.189-.15-.871-1.1Zm-3.4,2.326-.248.141-.145.082-.146.081-.146.08-.146.079-.148.078-.148.078-.148.078-.15.077-.149.076-.15.074-.151.074-.153.073c-.135.064-.269.127-.407.189l.58,1.284.271-.125.16-.076.159-.077.159-.078.159-.078.157-.079.157-.08.158-.08.155-.082.156-.082.154-.084.155-.084.154-.085.153-.086.255-.146-.7-1.221Zm-3.706,1.8-.186.074-.158.061-.159.059-.159.059-.16.058-.159.056-.16.056-.162.055-.161.054-.162.053-.162.052-.163.051-.162.05-.165.049-.164.048-.161.047.385,1.355.17-.048.173-.05.172-.051.172-.052.172-.053.171-.055.17-.055.17-.057.17-.058.169-.059.168-.06.169-.061.167-.062.168-.063.166-.063.195-.077-.519-1.313Zm-3.932,1.225-.17.039-.169.037-.169.036-.169.036-.17.034-.171.033-.171.032-.171.031-.172.03-.17.029-.173.028-.173.026-.172.025-.173.025-.173.023-.144.019.178,1.4.154-.019.18-.025.182-.026.18-.027.18-.028.181-.029.179-.03.18-.031.179-.033.18-.034.178-.035.178-.036.178-.037.177-.038.176-.04.179-.041-.318-1.372Zm-4.067.624-.237.017-.177.012-.176.011-.177.01-.178.009-.178.007-.178.007-.178,0-.178,0-.179,0-.179,0h-.36l-.18,0-.19,0-.036,1.408.208,0h.752l.187,0,.188,0,.186,0,.187-.007.186-.008.186-.009.185-.011.185-.011.185-.013.246-.017-.1-1.4Zm-4.121.019-.208-.015-.176-.015-.175-.016-.175-.016-.175-.016-.175-.019-.174-.019-.174-.02-.173-.021-.173-.022-.173-.023-.173-.025-.172-.025-.172-.026-.258-.042-.238,1.388.274.046.18.028.181.027.18.026.182.025.183.023.182.022.183.021.183.02.183.019.183.017.184.017.184.016.184.015.217.016.1-1.405Zm-4.074-.584-.263-.059-.167-.039-.168-.041-.167-.042-.166-.042-.167-.043-.166-.045-.165-.046-.165-.046-.165-.047-.164-.048-.164-.049-.162-.05-.164-.051-.24-.079-.444,1.336.259.084.172.053.172.052.172.051.173.05.173.049.173.048.174.047.174.047.174.045.175.045.175.044.175.042.176.041.269.061.306-1.37Zm-3.942-1.185-.222-.086-.158-.062-.156-.063-.156-.064-.155-.066-.156-.066-.154-.067-.154-.068-.153-.069-.155-.072-.3-.142-.152-.073-.151-.074-.15-.074-.135-.068-.635,1.257.142.072.159.079.158.078.16.077.16.076.16.075.162.074.161.073.163.072.163.071.163.069.164.069.165.067.164.067.166.065.23.089.509-1.313Zm-3.721-1.759-.135-.078-.145-.083-.143-.084-.142-.085-.143-.086-.142-.087-.141-.088-.141-.089-.141-.089-.141-.091-.141-.091-.141-.092-.138-.093-.14-.094-.137-.095-.209-.146-.816,1.148.222.156.143.1.144.1.145.1.146.1.146.1.147.095.147.094.148.094.149.092.149.092.15.09.151.09.151.089.152.088.135.078.708-1.223Zm-3.423-2.295-.16-.126-.13-.1-.13-.1-.257-.212-.128-.107-.126-.108-.126-.109-.126-.11-.125-.109-.124-.111-.123-.111-.123-.112-.244-.227-.154-.147-.978,1.014.166.158.129.119.128.118.129.118.13.117.131.117.132.115.132.114.132.114.134.113.135.112.135.111.136.111.136.11.138.11.166.131.868-1.106Zm-3.044-2.772c-.094-.1-.185-.2-.278-.3l-.112-.123-.11-.123-.11-.124-.11-.124-.11-.125-.109-.127-.107-.126-.107-.127-.213-.257-.1-.129-.1-.13-.211-.268-1.117.858.117.151.109.137.109.137.11.136.111.136.111.135.112.134.112.133.114.133.115.132.114.131.117.13.117.13.117.129.118.128.172.182,1.024-.967Zm-2.6-3.19-.162-.233-.095-.139-.092-.139-.093-.14-.092-.14-.09-.141-.09-.141-.089-.142-.088-.141-.087-.143-.087-.142-.085-.143-.085-.143-.083-.145-.144-.255-1.23.687.065.117.088.153.087.152.09.152.09.151.09.15.093.149.093.149.092.149.1.148.095.147.1.146.1.146.1.145.1.144.166.24,1.157-.8Zm-2.106-3.542-.078-.159-.074-.151-.072-.151-.141-.3-.07-.154-.069-.153-.068-.154-.066-.155-.067-.155-.065-.156-.064-.156-.063-.157-.062-.157-.061-.158-.074-.193-1.32.492.08.209.064.166.066.165.066.165.068.164.068.164.07.163.071.163.07.162.073.162.074.162.074.16.076.16.076.159.078.159.082.166,1.259-.625Zm-1.551-3.811-.086-.273-.05-.163-.049-.164-.048-.164-.048-.164-.047-.165-.046-.165-.045-.166-.043-.166-.043-.166-.042-.167-.04-.167-.04-.167-.037-.168-.05-.229-1.379.291.053.246.041.176.042.176.042.175.044.175.045.175.046.174.048.174.046.173.048.173.05.172.05.173.053.172.052.172.089.283,1.342-.432Zm-.967-4-.047-.294-.025-.173-.025-.172-.023-.173-.021-.173-.021-.173-.02-.174-.02-.174-.019-.174-.016-.175-.016-.175-.016-.175-.014-.176-.014-.176-.012-.173-1.406.089.014.183.013.185.016.184.016.184.016.183.019.184.019.183.02.183.021.183.021.183.023.182.024.182.025.182.028.18.047.3,1.393-.222Zm-.362-4.1,0-.233v-.538l0-.179,0-.178,0-.178.007-.178.008-.177.009-.177.009-.177.012-.177.012-.176.014-.176.016-.2-1.4-.124-.018.215-.013.185-.014.186-.011.185-.011.186-.01.186-.007.186-.007.187-.006.187,0,.188,0,.188,0,.188v.376l0,.241,1.409-.016Zm.241-4.113.023-.176.025-.173.025-.172.026-.173.028-.172.028-.172.03-.171.03-.171.032-.171.034-.17.033-.17.036-.169.036-.169.038-.169.037-.168.033-.141-1.371-.326-.034.148-.041.176-.038.177-.039.177-.036.177-.037.178-.034.178-.033.178-.034.18-.031.179-.03.179-.028.181-.028.18-.028.181-.025.182-.025.185,1.4.186Zm.847-4.029.056-.188.049-.164.05-.163.051-.162.051-.162.053-.161.054-.162.055-.161.056-.16.058-.16.058-.159.058-.159.061-.159.061-.158.061-.157.062-.157-1.3-.533-.069.173-.064.166-.063.166-.063.167-.061.167-.061.168-.061.169-.058.168-.059.17-.057.169-.055.171-.055.171-.054.171-.052.172-.053.172-.057.2,1.351.392Zm1.437-3.854.132-.283.072-.151.074-.151.074-.15.076-.15.076-.15.078-.149.078-.148.079-.148.079-.147.079-.146.081-.146.083-.145.082-.145.129-.221-1.213-.717-.137.236-.088.153-.086.154-.086.154-.084.154-.083.155-.083.156-.081.156-.08.157-.079.158-.079.158-.078.158-.078.159-.076.16-.076.16-.06.13,1.278.592Zm2-3.6.115-.173.092-.139.095-.138.095-.138.1-.137.1-.137.1-.136.1-.136.1-.135.2-.267.1-.133.1-.132.205-.262.128-.16-1.092-.891-.139.173-.109.138-.107.138-.107.139-.107.14-.1.14-.1.141-.1.142-.1.141-.1.142-.1.143-.1.143-.1.144-.1.145-.1.145-.119.18,1.173.775Zm2.508-3.266.167-.186.112-.123.227-.243.114-.12.114-.12.116-.119.117-.119.234-.235.119-.116.119-.116.119-.115.121-.114c.076-.071.166-.165.244-.227l-.948-1.042-.135.124-.129.119-.127.12-.126.121-.125.121-.249.246-.246.248-.12.125-.121.126-.12.127-.12.127-.118.129-.117.129-.173.193,1.051.942Zm2.96-2.862.222-.183.13-.1.13-.1.263-.205.133-.1.132-.1.267-.2.134-.1.135-.1.137-.1.137-.1.138-.1.244-.167-.789-1.168-.113.078-.143.1-.143.1-.143.1-.141.1-.142.1-.141.1-.141.1-.14.1-.141.106-.138.107-.14.108-.137.109-.138.109-.136.11-.23.189.9,1.087Zm3.35-2.392.146-.089.142-.085.143-.084.145-.084.144-.083.146-.082.146-.081.145-.08.147-.079.148-.078.148-.078.148-.077.15-.077.149-.076.15-.075.209-.1-.6-1.273-.222.109-.159.079-.158.079-.156.079-.158.081-.156.081-.155.082-.154.083-.156.084-.153.085-.153.086-.152.087-.152.088-.151.089-.151.09-.145.088.726,1.21Zm3.671-1.872.228-.095.156-.064.158-.062.157-.061.158-.061.159-.06.159-.059.16-.058.159-.057.16-.056.161-.055.161-.054.163-.053.161-.052.283-.088-.41-1.348-.3.094-.172.054-.169.056-.17.056-.17.058-.17.059-.168.059-.168.061-.168.062-.167.063-.166.063-.166.065-.166.066-.164.066-.237.1.545,1.3Zm3.906-1.3.205-.051.168-.041.167-.039.169-.039.169-.037.169-.037.169-.035.17-.035.171-.033.17-.032.172-.031.17-.03.172-.029.173-.028.286-.044-.2-1.394-.123.018-.18.028-.181.029-.18.03-.179.031-.179.033-.18.033-.178.035-.178.036-.178.037-.177.038-.177.039-.176.04-.176.042-.175.042-.215.053Z" transform="translate(-90.651 -49.836)" fill="#cfddeb" fill-rule="evenodd"/>
          <path id="Path_12516" data-name="Path 12516" d="M383.894,158.761a23.372,23.372,0,0,1,16.579,7.769,24.647,24.647,0,0,1,6.613,17.092c-.236,10.2-5.368,14.357-10.156,18.239-3.8,3.08-7.358,5.968-7.5,11.886l0,.1-.01.067a7.486,7.486,0,0,1-2.152,4.439,5.715,5.715,0,0,1-3.184,1.426l.061.009a7.338,7.338,0,0,1,1,.228,6.96,6.96,0,0,1,3.749,2.769,8.122,8.122,0,0,1,1.386,4.642,8.51,8.51,0,0,1-.67,3.222,7.577,7.577,0,0,1-1.825,2.621,7.3,7.3,0,0,1-5.163,1.86,8.446,8.446,0,0,1-3.163-.7,7.9,7.9,0,0,1-2.681-1.886,7.24,7.24,0,0,1-1.906-5.153h0l.006-.023a7.7,7.7,0,0,1,2.436-5.673,7.962,7.962,0,0,1,4.885-1.98,8.432,8.432,0,0,1-3.8-2,5,5,0,0,1-1.5-3.816l.034-1.462c.248-10.578,5.481-14.678,10.295-18.45,3.7-2.9,7.115-5.574,7.247-11.206a10.755,10.755,0,0,0-3.233-7.871,12.045,12.045,0,0,0-8.19-3.538,10.215,10.215,0,0,0-5.92,1.607,14.527,14.527,0,0,0-4.6,5.168l-1.5,6.568-.174.212a9.875,9.875,0,0,1-2.655,2.364,5.7,5.7,0,0,1-3.03.814l-.145,0-.1-.024a8.619,8.619,0,0,1-4.323-2.216,5.479,5.479,0,0,1-1.517-4.092,21.426,21.426,0,0,1,3.04-10.6,29.988,29.988,0,0,1,8.456-8.865l.076-.054.062-.033a31.467,31.467,0,0,1,6.667-2.655,23.264,23.264,0,0,1,6.508-.8Zm14.855,9.356a20.324,20.324,0,0,0-20.766-6.293,29.134,29.134,0,0,0-6.108,2.43,27.572,27.572,0,0,0-7.731,8.1,19.1,19.1,0,0,0-2.718,9.458,3.238,3.238,0,0,0,.864,2.423,6.282,6.282,0,0,0,3.066,1.528,3.488,3.488,0,0,0,1.676-.5,7.3,7.3,0,0,0,1.843-1.609l1.456-6.369.079-.143a16.982,16.982,0,0,1,5.457-6.136,12.492,12.492,0,0,1,7.233-1.974,14.419,14.419,0,0,1,9.8,4.227,13.064,13.064,0,0,1,3.91,9.568c-.157,6.745-4,9.752-8.145,13-4.4,3.444-9.175,7.188-9.4,16.652l-.034,1.462a2.76,2.76,0,0,0,.806,2.111,6.388,6.388,0,0,0,2.949,1.452,3.831,3.831,0,0,0,2.7-.888,5.174,5.174,0,0,0,1.408-3.029c.2-6.932,4.147-10.133,8.355-13.544,4.385-3.556,9.084-7.366,9.3-16.47a22.316,22.316,0,0,0-6-15.459ZM383.787,222.1a5.374,5.374,0,0,0-.7-.064v0l-.022,0h-.006a5.9,5.9,0,0,0-4.174,1.4,5.385,5.385,0,0,0-1.676,3.964h0l-.006.022a4.946,4.946,0,0,0,1.291,3.544,5.568,5.568,0,0,0,1.881,1.327,6.111,6.111,0,0,0,2.282.5,4.992,4.992,0,0,0,3.53-1.246,5.22,5.22,0,0,0,1.257-1.814,6.159,6.159,0,0,0,.488-2.323,5.793,5.793,0,0,0-.983-3.3,4.65,4.65,0,0,0-2.493-1.851A4.951,4.951,0,0,0,383.787,222.1Z" transform="translate(-98.532 -51.745)" fill="#eabc4e" fill-rule="evenodd"/>
          <path id="Path_12517" data-name="Path 12517" d="M110.845,161.149c11.42-.47,21.407,9.366,21.871,20.636.693,16.809-15.1,16.135-14.57,29-.324,3.156-1.915,4.8-4.741,4.918-3.04-.547-4.615-1.921-4.7-4.123l-.056-1.359c-.71-17.24,15.01-16.063,14.5-28.564-.266-6.439-6.151-11.2-12.417-10.937q-6.815.281-10.351,7.669l-.986,6.094c-1.3,1.821-2.717,2.771-4.247,2.834-3.167-.542-4.791-2.039-4.892-4.475q-.413-10.025,9.1-17.862a23.847,23.847,0,0,1,11.5-3.836Zm2.926,56.579a5.685,5.685,0,0,1,5.979,5.716,6.47,6.47,0,0,1-1.668,4.757c-3.248,3.394-10.229,1.555-10.457-3.995C107.469,220.414,110.048,217.882,113.771,217.729Z" transform="translate(-90.23 -51.819)" fill="#d4d52f" fill-rule="evenodd"/>
          <path id="Path_12518" data-name="Path 12518" d="M359.652,48.5a16.655,16.655,0,0,0-2.425-.162l.01,1.174a15.546,15.546,0,0,1,2.256.151l.159-1.163ZM357.525,94.11l-.038,0a6.116,6.116,0,0,0-2.431.75l.586,1.018a4.887,4.887,0,0,1,1.96-.6l.03,0-.108-1.168ZM354,95.657a5.157,5.157,0,0,0-1.34,2.251l1.126.327v0a3.979,3.979,0,0,1,1.035-1.742L354,95.657Zm-1.569,3.527a5.588,5.588,0,0,0,.379,2.568l1.082-.45a4.448,4.448,0,0,1-.292-2.036l-1.17-.082Zm1.037,3.716a5.484,5.484,0,0,0,2.039,1.621l.5-1.064a4.3,4.3,0,0,1-1.6-1.272l-.932.715Zm3.267,2.041a5.9,5.9,0,0,0,2.588.011l-.26-1.145a4.735,4.735,0,0,1-2.073-.012l-.255,1.145Zm3.831-.438a4.924,4.924,0,0,0,1.183-.853,5.169,5.169,0,0,0,.746-.927l-.993-.626a3.892,3.892,0,0,1-.576.716,3.67,3.67,0,0,1-.9.649l.543,1.041Zm.359-1.691.824.838-.824-.838Zm2.133-1.269a6.1,6.1,0,0,0,.333-2.121c0-.147-.012-.294-.026-.44L362.2,99.1c.012.116.019.234.02.35a4.886,4.886,0,0,1-.27,1.713l1.111.381Zm.04-3.835a5.5,5.5,0,0,0-1.367-2.22l-.816.844a4,4,0,0,1,.681.883,4.508,4.508,0,0,1,.386.861l1.115-.367ZM360.671,94.7a4.932,4.932,0,0,0-1.092-.438,5.405,5.405,0,0,0-1.452-.18l.012,1.174a4.328,4.328,0,0,1,1.136.14,3.749,3.749,0,0,1,.834.335l.562-1.03Zm-4.194-46.336a16.792,16.792,0,0,0-2.409.314l.234,1.15a15.72,15.72,0,0,1,2.244-.292l-.069-1.173Zm-3.59.6a20.43,20.43,0,0,0-2.288.775l.441,1.087a19.1,19.1,0,0,1,2.158-.731l-.311-1.132ZM349.5,50.211c-.659.306-1.3.643-1.93,1l-.036.02-.21.162.725.925.139-.108c.59-.336,1.194-.65,1.809-.937l-.5-1.064Zm-3.106,1.942c-.608.519-1.2,1.064-1.755,1.638l.84.818q.8-.821,1.679-1.563l-.764-.893Zm-2.574,2.524a20.025,20.025,0,0,0-1.482,1.909l.971.659a18.975,18.975,0,0,1,1.4-1.8l-.886-.77Zm-2.131,2.934a16.39,16.39,0,0,0-1.077,2.181l1.09.437a15.393,15.393,0,0,1,1-2.024l-1.013-.594Zm-1.49,3.328a15.671,15.671,0,0,0-.552,2.373l1.16.174a14.577,14.577,0,0,1,.511-2.2l-1.118-.353Zm-.689,3.584a7.672,7.672,0,0,0,.11,2.538l1.13-.32a6.766,6.766,0,0,1-.07-2.133l-1.17-.085Zm.721,3.782a4.734,4.734,0,0,0,2.156,1.521l.417-1.1a3.627,3.627,0,0,1-1.641-1.136l-.932.712Zm3.364,1.876.173.037.141.012a4.134,4.134,0,0,0,2.343-.811l-.677-.957a2.983,2.983,0,0,1-1.636.594l-.091-.02-.252,1.146Zm.295.049h-.063l-.061-.013.124.012Zm3.33-1.66a10.267,10.267,0,0,0,.717-.858l.3-1.537-1.152-.224-.246,1.266c-.151.189-.3.371-.471.547l.853.806Zm1.24-3.547L347.3,64.8l.449-2.3,1.151.224-.449,2.3Zm.937-3.138a12.326,12.326,0,0,1,1.323-1.8l-.874-.784a13.607,13.607,0,0,0-1.45,1.977l1,.612Zm2.1-2.589a8.129,8.129,0,0,1,1.8-1.232l-.518-1.052a9.33,9.33,0,0,0-2.063,1.408l.78.876Zm2.81-1.648a8.325,8.325,0,0,1,2.149-.4l-.059-1.172a9.44,9.44,0,0,0-2.455.455l.365,1.114Zm3.25-.392a9.222,9.222,0,0,1,2.165.406l.358-1.118a10.337,10.337,0,0,0-2.44-.459l-.082,1.172Zm3.2.8a9.435,9.435,0,0,1,1.891,1.133l.719-.927a10.63,10.63,0,0,0-2.125-1.275l-.485,1.07Zm2.721,1.857a8.9,8.9,0,0,1,1.367,1.72l1.007-.6A10.115,10.115,0,0,0,364.3,59.08l-.827.833Zm1.872,2.7a7.985,7.985,0,0,1,.6,2.1l1.162-.164a9.319,9.319,0,0,0-.689-2.4l-1.077.473Zm.689,3.188,1.174-.011v.256l0,.122,0,.121-.006.119,0,.119-.008.118-.008.117-.01.116-.01.115-.012.114-.014.113-.014.112-.016.111-.016.11-.016.11-.019.109-.019.108-.019.107-.021.106-.036.165-1.146-.263.03-.139.019-.093.017-.095.017-.095.016-.1.016-.1.014-.1.015-.1.012-.1.012-.1.01-.1.01-.1.008-.1.008-.1.006-.106.006-.107,0-.108,0-.109,0-.11V65.8Zm-.526,3.243c-.024.066-.051.132-.078.2l-.066.16-.034.079-.036.079c-.036.078-.074.155-.109.233a8.766,8.766,0,0,1-.711,1.178l.952.688c.155-.217.3-.438.439-.666l.049-.083.095-.167.048-.084.047-.085.046-.086.044-.086.044-.087.044-.088.044-.088.04-.09.042-.09.04-.091.038-.092.04-.092.036-.094.049-.128-1.1-.416Zm-1.728,2.8a18.117,18.117,0,0,1-1.622,1.6l.776.881a19.627,19.627,0,0,0,1.722-1.7l-.876-.78Zm-2.5,2.353c-.6.507-1.208,1.007-1.8,1.524l.772.883c.586-.513,1.189-1.008,1.785-1.51l-.758-.9Zm-2.687,2.327a19.65,19.65,0,0,0-1.664,1.755l.905.747A18.791,18.791,0,0,1,359.4,77.37l-.806-.853Zm-2.405,2.724c-.216.305-.415.62-.6.941l-.059.1-.055.1-.055.1-.055.1-.055.1-.055.1-.053.1-.051.1-.053.106-.051.106-.078.167,1.069.486c.038-.082.076-.163.115-.244a13.118,13.118,0,0,1,.768-1.354c.076-.114.151-.229.233-.34l-.959-.674ZM354.505,82.5l-.057.16-.04.119-.038.121-.038.121-.04.122-.036.123-.036.124-.034.126-.034.127-.034.128-.03.129-.032.13-.03.131L354,84.3l-.028.133-.028.135-.026.136-.028.165,1.156.2.026-.144.024-.126.024-.125.026-.123.026-.123.028-.121.028-.119.03-.119.03-.117.03-.117.032-.115.034-.114.032-.113.036-.112.034-.111.036-.11.038-.11.051-.15-1.106-.389Zm-.791,3.563-.02.2-.016.149-.012.151-.014.152-.01.154-.01.155-.01.157-.006.157-.006.158-.006.161,0,.161,0,.163v.165l0,.165,0,.158,1.174-.011V88l0-.154,0-.153,0-.151.006-.15.008-.148.008-.147.01-.145.01-.144.012-.142.012-.142.014-.141.021-.195-1.169-.122Zm-.1,3.6a3.488,3.488,0,0,0,1.084,2.505l.812-.849a2.313,2.313,0,0,1-.723-1.693l-1.174.037Zm2.184,3.273a8.034,8.034,0,0,0,1.97.666l.064.014c.174,0,.346-.006.522-.021l-.1-1.169c-.1.008-.2.014-.306.016a6.763,6.763,0,0,1-1.62-.551l-.531,1.047Zm3.86.379a3.85,3.85,0,0,0,2.046-1.757l-1.02-.579a2.689,2.689,0,0,1-1.44,1.238l.415,1.1Zm2.546-2.97a7.856,7.856,0,0,0,.227-1.128v-.273l0-.113,0-.112,0-.111,0-.11.006-.109.008-.109.01-.108.008-.106.016-.139-1.168-.131-.016.163-.012.119-.01.118-.008.121-.006.121-.006.122,0,.123,0,.123,0,.126v.208a6.737,6.737,0,0,1-.182.885l1.129.319Zm.463-3.508.038-.164.022-.093.024-.092.024-.091.026-.09.026-.09.026-.089.03-.088.028-.087.03-.087.03-.086.032-.085.032-.084.068-.169.07-.165.074-.163c.053-.111.106-.224.163-.333l-1.037-.548-.058.114-.046.091-.085.182-.044.093-.042.093-.04.094-.04.094-.04.095-.038.1-.038.1-.034.1-.036.1-.034.1-.034.1-.032.1-.032.1-.03.1-.028.1-.028.1-.028.1-.024.106-.026.106-.017.071,1.146.264Zm1.316-3.011a12.614,12.614,0,0,1,1.429-1.728l-.84-.821a13.78,13.78,0,0,0-1.559,1.888l.97.661ZM366.23,81.3c.566-.528,1.154-1.035,1.742-1.544l-.768-.888c-.6.517-1.194,1.032-1.772,1.571l.8.861Zm2.629-2.32c.6-.53,1.185-1.072,1.74-1.647l-.848-.813c-.532.551-1.1,1.072-1.67,1.583l.778.877Zm2.554-2.541a15.375,15.375,0,0,0,1.113-1.464l.123-.185c.068-.108.137-.214.2-.323l-1-.607a13.848,13.848,0,0,1-1.327,1.817l.893.762Zm2.028-3.047.095-.2.049-.107.049-.108.049-.109.048-.11.046-.11.048-.11.045-.112.046-.113.044-.114.042-.115.044-.116.04-.117.04-.118.04-.119.04-.119.038-.121.038-.122.042-.15-1.13-.315-.038.131-.034.111-.034.11-.036.11-.036.109-.074.214-.04.107-.038.1-.042.1-.04.1-.042.1-.042.1-.044.1-.044.1-.044.1-.091.2-.089.186,1.054.514Zm1.166-3.473.04-.205.024-.136.022-.137.022-.138.022-.139.02-.141.019-.141.017-.141.019-.143.015-.144.016-.145.016-.147.012-.148.014-.149.01-.15.014-.2-1.172-.06-.014.186-.01.141-.01.14-.014.14-.014.138-.014.136-.017.136-.016.134-.017.133-.019.131-.018.13-.021.129-.02.128-.022.127-.022.125-.036.2,1.152.223Zm.333-3.618-1.174.011a16.175,16.175,0,0,0-.163-2.26l1.162-.171a17.136,17.136,0,0,1,.174,2.42Zm-.39-3.615a17.2,17.2,0,0,0-.677-2.332l-1.1.409a16.255,16.255,0,0,1,.632,2.174l1.147-.251Zm-1.132-3.456a19.117,19.117,0,0,0-1.124-2.145l-1,.612a17.508,17.508,0,0,1,1.054,2.012l1.071-.48Zm-1.789-3.16a18.724,18.724,0,0,0-1.513-1.888l-.865.792a18.37,18.37,0,0,1,1.42,1.774l.958-.678Zm-2.356-2.757a18.287,18.287,0,0,0-1.849-1.567l-.695.946a17.448,17.448,0,0,1,1.73,1.467l.814-.846Zm-2.845-2.255a17.886,17.886,0,0,0-2.129-1.171l-.487,1.068a16.36,16.36,0,0,1,1.982,1.092l.634-.989Zm-3.248-1.643a16.887,16.887,0,0,0-2.326-.7l-.254,1.146a15.776,15.776,0,0,1,2.167.649Z" transform="translate(-97.926 -48.336)" fill="#cfddeb" fill-rule="evenodd"/>
          <path id="Path_12519" data-name="Path 12519" d="M210.053,192.382a16.591,16.591,0,0,0-3.945-.443l.016,1.878a14.733,14.733,0,0,1,3.5.393l.427-1.829Zm-3.071,45.3a6.611,6.611,0,0,0-3.217.831l.936,1.628a4.741,4.741,0,0,1,2.292-.581h.03a4.227,4.227,0,0,1,.708.055l.059.01.049.01c.049.01.1.02.144.033h0l.014,0h0l.016,0h0l.011,0h0l.044.012a3.369,3.369,0,0,1,1.622.987l1.374-1.28a5.232,5.232,0,0,0-2.508-1.52l-.09-.023h0c-.119-.031-.246-.058-.367-.079h0a4.326,4.326,0,0,0,2.079-1.134,4.494,4.494,0,0,0,.721-.952l-1.635-.926a2.587,2.587,0,0,1-2.344,1.28l.067,1.64Zm-4.9,2.322a6.026,6.026,0,0,0-1.13,3.7c0,.172.01.341.025.51l1.869-.183c-.012-.112-.016-.229-.017-.343a4.165,4.165,0,0,1,.766-2.565L202.078,240Zm-.465,6.349c.017.032.036.063.053.1a5.852,5.852,0,0,0,3.348,2.648l.567-1.792a3.994,3.994,0,0,1-2.209-1.661c-.037-.06-.074-.122-.106-.184l-1.654.894Zm5.578,3.038a5.518,5.518,0,0,0,3.691-1.535c.1-.1.2-.2.3-.314l-1.422-1.228a2.46,2.46,0,0,1-.189.2,3.648,3.648,0,0,1-2.458,1l.081,1.876Zm2.375-2.876,1.315,1.341-1.315-1.341Zm2.713-.9a6.429,6.429,0,0,0,.353-2.244,6.255,6.255,0,0,0-.4-2.075l-1.756.668a4.4,4.4,0,0,1,.282,1.452A4.555,4.555,0,0,1,210.5,245l1.776.61Zm-6.193-53.673.021,1.878a15.264,15.264,0,0,0-3.5.454l-.449-1.824a17.242,17.242,0,0,1,3.932-.508Zm-5.82,1.073a24.421,24.421,0,0,0-3.558,1.607l.9,1.647a22.678,22.678,0,0,1,3.281-1.483l-.627-1.771Zm-5.222,2.829a24.938,24.938,0,0,0-2.771,2.744l1.428,1.22a22.952,22.952,0,0,1,2.563-2.536l-1.221-1.427Zm-3.979,4.3a17.625,17.625,0,0,0-1.9,3.476l1.744.7a15.605,15.605,0,0,1,1.7-3.1l-1.539-1.077Zm-2.533,5.365a16.35,16.35,0,0,0-.541,3.94l1.878.027a14.485,14.485,0,0,1,.477-3.485l-1.814-.483Zm-.171,6.177a5.089,5.089,0,0,0,3.533,2.676l.5-1.812a5.7,5.7,0,0,1-.956-.35,2.633,2.633,0,0,1-1.357-1.281l-1.716.768Zm5.964,2.538a5.754,5.754,0,0,0,1.886-1.308,9.266,9.266,0,0,0,.8-.921l.133-.174.181-.927-1.843-.359-.095.488a4.744,4.744,0,0,1-1.771,1.461l.71,1.74Zm3.357-5.174-1.843-.358.481-2.472c.246-.473.5-.93.784-1.382l1.588,1q-.31.491-.581,1l-.429,2.2Zm2.037-4.614a8.389,8.389,0,0,1,2.617-2.1l-.83-1.685a10.235,10.235,0,0,0-3.214,2.559l1.427,1.222Zm4.18-2.663a8.391,8.391,0,0,1,1.878-.222,8.912,8.912,0,0,1,1.481.113h0l.313-1.853a10.486,10.486,0,0,0-1.81-.14,10.357,10.357,0,0,0-2.292.273l.431,1.828Zm5,.324a9.094,9.094,0,0,1,2.9,1.74l1.251-1.4a10.947,10.947,0,0,0-3.5-2.1l-.654,1.761Zm4.052,2.983a7.973,7.973,0,0,1,1.42,3.015l1.834-.412a9.869,9.869,0,0,0-1.753-3.735l-1.5,1.132Zm1.617,4.68,1.877-.017V210l0,.125,0,.125,0,.123-.006.122-.008.122-.008.12-.009.12-.012.118-.012.118-.014.116-.014.117-.016.115-.016.114-.018.113-.019.113-.019.112-.02.11-.022.11-.022.109-.024.109-.024.109-.026.106-.028.107-.028.1-.029.1-.03.1-.031.1-.033.1-.034.1-.034.1-.036.1-.036.1-.038.1-.047.116-1.734-.722h0c.03-.078.061-.155.089-.234l.057-.159.053-.163.05-.165.024-.084.022-.084.022-.084.02-.086.02-.086.019-.087.019-.088.017-.089.018-.09.016-.092.016-.092.015-.092.015-.095.012-.094.012-.1.012-.1.01-.1.01-.1.008-.1.007-.1,0-.1.006-.1,0-.1,0-.1v-.334Zm-1.374,4.787a14,14,0,0,1-2.384,2.582l1.242,1.409a15.86,15.86,0,0,0,2.692-2.931l-1.551-1.06Zm-3.8,3.784c-.987.826-1.962,1.651-2.864,2.573l1.346,1.309c.854-.873,1.788-1.66,2.723-2.443l-1.206-1.439Zm-4.175,4.067c-.247.32-.478.643-.7.98l-.123.192-.061.1c-.061.1-.12.2-.179.3l-.059.1-.058.1-.113.205-.056.1-.055.1-.054.107-.054.106-.054.109-.052.11-.051.109-.051.11-.05.112-.049.112-.048.113-.048.114-.078.195,1.748.684c.048-.121.1-.239.149-.361l.043-.1.044-.095c.044-.1.088-.19.134-.285a12.634,12.634,0,0,1,1.366-2.18l-1.486-1.144Zm-2.6,5.393-.028.122-.031.135-.031.135-.029.137-.027.137-.026.139-.026.14-.024.141-.023.142-.022.142-.021.144-.021.145-.018.146-.019.148-.018.148-.017.151-.015.151-.016.152-.013.153-.013.156-.011.156-.011.158-.008.16-.008.16-.006.161-.008.256,1.878.037.007-.227.006-.147.007-.145.008-.144.009-.143.01-.141.012-.142.012-.139.014-.138.014-.137.016-.136.016-.134.016-.133.018-.131.019-.13.019-.129.019-.128.022-.126.021-.126.023-.124.023-.123.024-.12.025-.121.026-.119.026-.118.029-.122-1.83-.429Zm-.483,5.842,1.878-.057a2.215,2.215,0,0,0,1.524,2.043l-.777,1.71a4.062,4.062,0,0,1-2.625-3.7Zm9.458-.016c.024-.14.045-.278.062-.42V232.9l0-.11,0-.109,0-.109,0-.108.006-.1.008-.106.008-.1.009-.1.011-.1.01-.1.012-.1.014-.1.014-.1.016-.1.016-.1.016-.094.018-.095.017-.093.019-.093.019-.091.02-.091.021-.09.022-.089.023-.088.023-.087.024-.086.053-.172.043-.131-1.779-.6-.022.066-.033.1-.032.1-.031.106-.031.107-.029.108-.028.109-.027.109-.026.11-.024.111-.024.111-.022.113-.022.113-.02.114-.019.115-.018.116-.018.116-.016.118-.016.118-.015.119-.013.12-.013.121-.011.123-.01.123-.008.123-.007.125-.006.126,0,.127,0,.127,0,.129v.188c-.01.075-.022.148-.035.222l1.849.318Zm1.209-5.088a12.655,12.655,0,0,1,2.211-2.7l-1.3-1.353A16.69,16.69,0,0,0,211.9,226.5c-.2.273-.387.546-.567.834l-.054.087-.087.148,1.616.957Zm3.567-3.936c.957-.835,1.928-1.653,2.838-2.541l-1.312-1.341c-.883.861-1.832,1.657-2.761,2.467l1.236,1.415Zm4.184-3.968a15.674,15.674,0,0,0,1.388-1.88c.061-.1.12-.2.178-.3l.06-.1.058-.1.113-.2.057-.1.055-.1.055-.1.054-.107.053-.107.054-.108.064-.137-1.7-.788a12.963,12.963,0,0,1-1.913,2.918l1.427,1.219Zm2.909-5.227.063-.209.036-.128.034-.128.035-.129.033-.13.031-.131.032-.132.03-.133.028-.135.028-.135.027-.137.025-.137.025-.139.023-.14.023-.141.021-.141.02-.142.02-.144.017-.144.018-.146.017-.147.016-.148.015-.149.015-.15.012-.152.011-.152.014-.21-1.876-.1-.012.181-.01.139-.012.137-.012.136-.014.135-.014.133-.016.132-.016.131-.017.13-.018.128-.018.128-.019.126-.02.125-.02.123-.022.123-.022.12-.024.121-.024.119-.025.117-.026.117-.027.116-.028.114-.028.114-.029.112-.031.112-.031.11-.058.195,1.8.531Zm.689-5.885a17.671,17.671,0,0,0-.62-3.908l-1.81.5a15.72,15.72,0,0,1,.553,3.5l1.877-.091Zm-1.25-5.784a18.994,18.994,0,0,0-1.831-3.5l-1.563,1.042a17.124,17.124,0,0,1,1.649,3.149l1.744-.695Zm-3-5.083a19.237,19.237,0,0,0-2.8-2.774l-1.174,1.467a17.24,17.24,0,0,1,2.526,2.5l1.449-1.2Zm-4.406-3.929a18,18,0,0,0-3.543-1.761l-.639,1.767a15.988,15.988,0,0,1,3.17,1.578Z" transform="translate(-93.249 -52.77)" fill="#cfddeb" fill-rule="evenodd"/>
          <path id="Path_12520" data-name="Path 12520" d="M442.315,171.714a21.275,21.275,0,0,1,2.72-.177v-1.409h-.142a23.413,23.413,0,0,0-2.525.159l-.231.03.177,1.4Zm2.858-.177a21.486,21.486,0,0,1,2.72.2l.195-1.4-.386-.05a23.4,23.4,0,0,0-2.512-.159l-.017,1.409Zm4.06.427a20.91,20.91,0,0,1,2.623.728l.467-1.329a22.218,22.218,0,0,0-2.8-.778l-.289,1.379Zm3.892,1.22a20.514,20.514,0,0,1,2.427,1.233l.725-1.208a21.811,21.811,0,0,0-2.6-1.318l-.556,1.294Zm3.573,1.966a20.4,20.4,0,0,1,2.137,1.687l.948-1.043a22.311,22.311,0,0,0-2.282-1.8l-.8,1.157Zm3.12,2.631a20.844,20.844,0,0,1,1.766,2.073l1.134-.836a22.219,22.219,0,0,0-1.887-2.214l-1.013.978Zm2.542,3.191a20.357,20.357,0,0,1,1.323,2.378l1.275-.6a21.752,21.752,0,0,0-1.412-2.542l-1.186.76Zm1.865,3.628q.137.347.262.7c.218.626.407,1.25.566,1.9l1.368-.334a22.5,22.5,0,0,0-.882-2.77l-1.314.509Zm1.11,3.924a20.971,20.971,0,0,1,.3,2.707l1.408-.054c-.024-.567-.074-1.128-.141-1.692q-.042-.345-.093-.687c-.026-.171-.055-.341-.085-.512l-1.387.238Zm.312,4.07a20.478,20.478,0,0,1-.235,2.712l1.392.222c.038-.236.068-.474.1-.711.087-.729.141-1.452.155-2.186l-1.409-.036Zm-.487,4.053a21.305,21.305,0,0,1-.674,2.354c-.03.084-.061.171-.093.255l1.321.493a21.712,21.712,0,0,0,.82-2.794l-1.374-.308Zm-1.277,3.87a20.955,20.955,0,0,1-1.271,2.412l1.2.738a23.12,23.12,0,0,0,1.355-2.57l-1.284-.58Zm-2.022,3.549a20.851,20.851,0,0,1-1.716,2.113l1.031.96a22.656,22.656,0,0,0,1.835-2.256l-1.149-.817Zm-2.677,3.079a20.651,20.651,0,0,1-2.1,1.735l.824,1.144a22.052,22.052,0,0,0,2.242-1.854l-.966-1.024Zm-3.229,2.495a20.592,20.592,0,0,1-2.4,1.288l.581,1.284a22.007,22.007,0,0,0,2.563-1.376l-.746-1.2Zm-3.656,1.81q-.2.077-.413.151a21.664,21.664,0,0,1-2.194.638l.316,1.372a22.216,22.216,0,0,0,2.782-.841l-.491-1.32Zm-3.94,1.051a20.82,20.82,0,0,1-2.711.258l.036,1.408c.677-.019,1.344-.071,2.018-.15.229-.028.458-.059.687-.093l.191-.031-.221-1.392Zm-4.073.252a20.3,20.3,0,0,1-2.709-.275l-.238,1.388c.113.02.229.039.344.056.229.034.456.065.685.093.621.073,1.24.124,1.863.145l.055-1.407Zm-4.041-.546a21.341,21.341,0,0,1-2.059-.606c-.182-.065-.363-.131-.544-.2l-.509,1.313a22.315,22.315,0,0,0,2.776.861l.335-1.368Zm-3.856-1.336a20.285,20.285,0,0,1-2.389-1.3l-.761,1.187a22,22,0,0,0,2.554,1.395l.6-1.277Zm-3.513-2.071a20.331,20.331,0,0,1-2.087-1.749l-.979,1.015a22.282,22.282,0,0,0,2.228,1.868l.838-1.134Zm-3.039-2.722a20.488,20.488,0,0,1-1.706-2.123l-1.156.8a21.977,21.977,0,0,0,1.819,2.269l1.043-.948Zm-2.448-3.265a20.811,20.811,0,0,1-1.253-2.416l-1.295.556a21.662,21.662,0,0,0,1.338,2.584l1.209-.724Zm-1.758-3.685-.046-.126a21.073,21.073,0,0,1-.7-2.489l-1.378.292a21.459,21.459,0,0,0,.8,2.8l1.326-.477Zm-.99-3.956a20.7,20.7,0,0,1-.218-2.714l-1.408.017c.014.788.066,1.558.157,2.341.022.186.047.372.074.558l1.4-.2Zm-.193-4.078a20.267,20.267,0,0,1,.314-2.7l-1.384-.257c-.042.222-.078.442-.113.664s-.064.457-.093.687c-.061.508-.109,1.026-.131,1.538l1.407.071Zm.606-4.033c.151-.6.329-1.179.532-1.761.1-.278.2-.55.312-.825h0l-1.306-.533a21.8,21.8,0,0,0-.9,2.767l1.366.351Zm1.394-3.835a20.478,20.478,0,0,1,1.34-2.369l-1.177-.774a21.687,21.687,0,0,0-1.431,2.532l1.269.611Zm2.123-3.483a20.837,20.837,0,0,1,1.781-2.06l-1-.99a22.206,22.206,0,0,0-1.9,2.2l1.122.85Zm2.768-3a21.172,21.172,0,0,1,2.149-1.673l-.788-1.167a22.2,22.2,0,0,0-2.3,1.786l.935,1.053Zm3.3-2.4a20.591,20.591,0,0,1,2.434-1.216l-.542-1.3a21.925,21.925,0,0,0-2.6,1.3l.709,1.217Zm3.706-1.7a20.855,20.855,0,0,1,2.629-.709l-.274-1.382a21.952,21.952,0,0,0-2.806.758Z" transform="translate(-100.506 -52.097)" fill="#cfddeb" fill-rule="evenodd"/>
        </g>
        <g id="Group_2202" data-name="Group 2202" transform="translate(0 39.972)">
          <path id="Path_12521" data-name="Path 12521" d="M101.131,103.046c.224,0,.448.009.668.026-.021-.3-.033-.608-.033-.915A12.578,12.578,0,0,1,126.592,99.3a8.132,8.132,0,0,1,12.935,3.928,8.512,8.512,0,1,1,1.746,16.842H101.766v-.024q-.315.025-.635.024a8.511,8.511,0,0,1,0-17.023Z" transform="translate(-60.771 -89.581)" fill="#cfddeb" fill-rule="evenodd"/>
          <path id="Path_12522" data-name="Path 12522" d="M70.049,117.74c.272,0,.543.011.809.032-.025-.366-.041-.735-.041-1.108a15.211,15.211,0,0,1,30.023-3.456,9.834,9.834,0,0,1,15.644,4.749,10.294,10.294,0,1,1,2.111,20.369H70.818V138.3c-.254.019-.509.029-.769.029a10.293,10.293,0,1,1,0-20.586Z" transform="translate(-59.756 -89.948)" fill="#aacbec" fill-rule="evenodd"/>
        </g>
        <g id="Group_2203" data-name="Group 2203" transform="translate(282.624 50.981)">
          <path id="Path_12523" data-name="Path 12523" d="M416.5,137.815c.227,0,.449.009.67.025-.022-.3-.034-.607-.034-.915a12.578,12.578,0,0,1,24.827-2.859,8.132,8.132,0,0,1,12.935,3.928,8.512,8.512,0,1,1,1.747,16.842H417.14v-.023q-.313.023-.636.023a8.511,8.511,0,0,1,0-17.022Z" transform="translate(-353.133 -101.664)" fill="#aacbec" fill-rule="evenodd"/>
          <path id="Path_12524" data-name="Path 12524" d="M426.271,121.668c-.348,0-.689.015-1.03.04q.051-.7.051-1.409a19.359,19.359,0,0,0-38.21-4.4,12.516,12.516,0,0,0-19.909,6.044,13.1,13.1,0,1,0-2.687,25.923h60.807v-.037c.324.024.649.037.979.037a13.1,13.1,0,1,0,0-26.2Z" transform="translate(-351.385 -100.941)" fill="#98b1d2" fill-rule="evenodd"/>
        </g>
      </g>
    </g>
  </g>
</svg>
