<svg xmlns="http://www.w3.org/2000/svg" xmlns:xlink="http://www.w3.org/1999/xlink" width="116.521" height="116.498" viewBox="0 0 116.521 116.498">
  <defs>
    <linearGradient id="linear-gradient" x1="0.5" x2="0.5" y2="1" gradientUnits="objectBoundingBox">
      <stop offset="0" stop-color="#0a67ae"/>
      <stop offset="1" stop-color="#54a92a"/>
    </linearGradient>
    <linearGradient id="linear-gradient-2" x1="0.5" x2="0.5" y2="1" gradientUnits="objectBoundingBox">
      <stop offset="0" stop-color="#318a6a"/>
      <stop offset="1" stop-color="#54a92a"/>
    </linearGradient>
  </defs>
  <g id="Group_1993" data-name="Group 1993" transform="translate(-371.859 -1529)">
    <g id="Layer_2" data-name="Layer 2" transform="translate(371.859 1528.997)">
      <g id="Number" transform="translate(0 0.003)">
        <g id="_40" data-name="40" transform="translate(0 0)">
          <g id="B">
            <path id="Path_11820" data-name="Path 11820" d="M115.4,61.347C110.035,28.322,57.559-4.509,30.635.514,6.09,5.093-2.733,34.321.718,61.347,4.819,93.444,26.392,116,58.062,116S120.7,93.938,115.4,61.347ZM58.046,103.313c-24.742,0-41.6-17.615-44.809-42.7-2.7-21.118,4.207-43.957,23.381-47.534C57.657,9.155,98.659,34.8,102.857,60.613c4.139,25.481-20.062,42.7-44.811,42.7Z" transform="translate(0 -0.003)" fill="url(#linear-gradient)"/>
          </g>
        </g>
      </g>
    </g>
    <g id="expensive" transform="translate(357.766 1521.532)">
      <g id="Group_1952" data-name="Group 1952" transform="translate(32.382 12.473)">
        <g id="Group_1950" data-name="Group 1950">
          <path id="Path_11821" data-name="Path 11821" d="M226.741,117.342l16.575-9.444a1.027,1.027,0,0,1,1.535.892v71.528a1.029,1.029,0,0,1-1.027,1.027H227.249a1.029,1.029,0,0,1-1.027-1.027V118.235A1,1,0,0,1,226.741,117.342Z" transform="translate(-192.628 -90.949)" fill="#fdcd56" fill-rule="evenodd"/>
          <path id="Path_11822" data-name="Path 11822" d="M390.293,35.5l16.575-9.444a1.027,1.027,0,0,1,1.535.892v88.339a1.029,1.029,0,0,1-1.027,1.027H390.8a1.029,1.029,0,0,1-1.027-1.027V36.393a1,1,0,0,1,.519-.892Z" transform="translate(-322.586 -25.918)" fill="#c6ea94" fill-rule="evenodd"/>
          <path id="Path_11823" data-name="Path 11823" d="M63.191,199.184l16.575-9.444a1.027,1.027,0,0,1,1.535.893V248.35a1.029,1.029,0,0,1-1.027,1.027c-5.525,0-11.05-3-16.575-3a1.029,1.029,0,0,1-1.027-1.027V200.077A1,1,0,0,1,63.191,199.184Z" transform="translate(-62.672 -155.98)" fill="#f76c82" fill-rule="evenodd"/>
        </g>
        <g id="Group_1951" data-name="Group 1951" transform="translate(15.117 40.976)">
          <circle id="Ellipse_119" data-name="Ellipse 119" cx="27.791" cy="27.791" r="27.791" fill="#fdcd56"/>
          <circle id="Ellipse_120" data-name="Ellipse 120" cx="20.948" cy="20.948" r="20.948" transform="translate(6.843 6.843)" fill="#f5b945"/>
        </g>
      </g>
      <path id="Path_11824" data-name="Path 11824" d="M91.921,15.432,26.672,50.676a1.437,1.437,0,1,1-1.366-2.529L90,13.2l-5.928-1.364a1.437,1.437,0,1,1,.643-2.8l9.644,2.218a1.438,1.438,0,0,1,1.08,1.723l-2.221,9.644a1.438,1.438,0,0,1-2.8-.645Zm-9.566,70.93a6.644,6.644,0,0,1-5.6,6.326l.039,1.584a1.437,1.437,0,0,1-1.4,1.47h-.037a1.436,1.436,0,0,1-1.436-1.4l-.039-1.629a8.037,8.037,0,0,1-4.289-2.437,1.437,1.437,0,1,1,1.973-2.091c1.322,1.247,2.134,1.769,3.726,1.769,2.313,0,4.194-1.611,4.194-3.591s-1.881-3.593-4.194-3.593c-3.9,0-7.07-2.9-7.07-6.466a6.649,6.649,0,0,1,5.608-6.329l-.041-1.768a1.437,1.437,0,1,1,2.873-.069l.045,1.874a8.136,8.136,0,0,1,4.783,2.8,1.438,1.438,0,1,1-2.4,1.579,6.173,6.173,0,0,0-3.8-1.676c-2.313,0-4.195,1.612-4.195,3.593s1.882,3.591,4.195,3.591C79.184,79.894,82.356,82.794,82.356,86.362Zm-7.069,14.389a19.51,19.51,0,1,0-19.51-19.511,19.534,19.534,0,0,0,19.51,19.511Zm0-41.9A22.386,22.386,0,1,0,97.673,81.239,22.412,22.412,0,0,0,75.286,58.854Zm41.471,42.576-15.752,2V95.12a29.2,29.2,0,0,0,0-27.763V23.185l15.752-8.976Zm-41.471,6.163A26.354,26.354,0,1,0,48.933,81.239,26.383,26.383,0,0,0,75.286,107.593ZM49.57,105.43V95.12a29.186,29.186,0,0,1,0-27.763V47.83L33.815,56.806V101.43ZM67.411,40V53.088a29.319,29.319,0,0,1,15.752,0V31.02Zm51.507-29.5a1.444,1.444,0,0,0-1.435-.007L98.854,21.1a1.434,1.434,0,0,0-.725,1.249V63.024a29.364,29.364,0,0,0-12.09-8.964V28.547A1.438,1.438,0,0,0,83.888,27.3L65.261,37.91a1.436,1.436,0,0,0-.725,1.25v14.9a29.338,29.338,0,0,0-12.09,8.964V45.356a1.439,1.439,0,0,0-2.15-1.249L31.666,54.721a1.44,1.44,0,0,0-.728,1.251v46.9a1.438,1.438,0,0,0,1.438,1.437l18.63,4a1.438,1.438,0,0,0,1.438-1.437V99.454a29.194,29.194,0,0,0,45.684,0v5.414c0,.795.643-.563,1.437-.563h18.628a1.436,1.436,0,0,0,1.438-1.437V11.735a1.442,1.442,0,0,0-.715-1.243Z" transform="translate(0 0)" fill-rule="evenodd"/>
    </g>
    <path id="Subtraction_7" data-name="Subtraction 7" d="M-9369.079,63c-15.189,0-28.609-5.219-38.808-15.094A58.631,58.631,0,0,1-9420,30.83,73.97,73.97,0,0,1-9426.337,9h12.626c3.756,25.1,21.269,41.31,44.617,41.31,15.094,0,30.634-6.537,39.591-16.655,6.346-7.167,9.124-15.666,8.035-24.577a.373.373,0,0,0-.02-.078h9.852a41.177,41.177,0,0,1-9.851,33.831,56.65,56.65,0,0,1-20.984,14.841A69.261,69.261,0,0,1-9369.079,63Z" transform="translate(9799 1582)" stroke="rgba(0,0,0,0)" stroke-width="1" fill="url(#linear-gradient-2)"/>
  </g>
</svg>
