<svg xmlns="http://www.w3.org/2000/svg" width="36.791" height="36.791" viewBox="0 0 36.791 36.791">
  <path id="email_5_" data-name="email (5)" d="M18.4,0a18.4,18.4,0,1,0,18.4,18.4A18.416,18.416,0,0,0,18.4,0Zm0,35.066A16.671,16.671,0,1,1,35.066,18.4,16.69,16.69,0,0,1,18.4,35.066Zm8.645-24.252H9.75a2.1,2.1,0,0,0-2.1,2.1V23.879a2.1,2.1,0,0,0,2.1,2.1h17.29a2.1,2.1,0,0,0,2.1-2.1V12.912a2.1,2.1,0,0,0-2.1-2.1Zm-1.3,1.725L18.4,18.372,11.05,12.539Zm1.3,11.713H9.75a.373.373,0,0,1-.373-.373V13.413l8.482,6.735a.862.862,0,0,0,1.072,0l8.482-6.735V23.879a.373.373,0,0,1-.373.373Z" fill="#dc4d90"/>
</svg>
