<svg xmlns="http://www.w3.org/2000/svg" width="52.148" height="46" viewBox="0 0 52.148 46">
  <g id="bed" transform="translate(0 -30.182)">
    <g id="Group_312" data-name="Group 312" transform="translate(5.838 40.117)">
      <path id="Path_1311" data-name="Path 1311" d="M58.184,143.549H96.922a4.046,4.046,0,0,1,.867.094V131.37a3.644,3.644,0,0,0-3.644-3.644H60.961a3.644,3.644,0,0,0-3.644,3.644v12.274A4.046,4.046,0,0,1,58.184,143.549Z" transform="translate(-57.317 -127.726)" fill="#f6a96c"/>
    </g>
    <g id="Group_313" data-name="Group 313" transform="translate(38.421 40.117)">
      <path id="Path_1312" data-name="Path 1312" d="M381.469,127.726h-4.246a3.644,3.644,0,0,1,3.644,3.644v12.18h3.379a4.048,4.048,0,0,1,.867.094V131.37A3.644,3.644,0,0,0,381.469,127.726Z" transform="translate(-377.224 -127.726)" fill="#ea9b58"/>
    </g>
    <path id="Path_1313" data-name="Path 1313" d="M91.053,137.567a.764.764,0,0,1-.764-.764V124.634a2.883,2.883,0,0,0-2.88-2.88H62.457l-.952,1.74a1.122,1.122,0,0,1-1.969,0l-.951-1.74h-4.36a2.883,2.883,0,0,0-2.88,2.88v2.75a.764.764,0,0,1-1.528,0v-2.75a4.413,4.413,0,0,1,4.408-4.408h4.768a.764.764,0,0,1,.433.135,1.129,1.129,0,0,1,.349.385l.746,1.364.746-1.363a1.125,1.125,0,0,1,.35-.386.764.764,0,0,1,.432-.134H87.409a4.413,4.413,0,0,1,4.408,4.408V136.8A.764.764,0,0,1,91.053,137.567Z" transform="translate(-44.743 -80.873)"/>
    <path id="Line_2" data-name="Line 2" d="M-6.736-.118A.764.764,0,0,1-7.5-.882V-6.736A.764.764,0,0,1-6.736-7.5a.764.764,0,0,1,.764.764V-.882A.764.764,0,0,1-6.736-.118Z" transform="translate(12.574 56.811)"/>
    <g id="Group_315" data-name="Group 315" transform="translate(2.555 70.301)">
      <g id="Group_314" data-name="Group 314">
        <rect id="Rectangle_267" data-name="Rectangle 267" width="4.742" height="5.116" fill="#e2dee2"/>
        <rect id="Rectangle_268" data-name="Rectangle 268" width="4.742" height="5.116" fill="#e2dee2"/>
        <rect id="Rectangle_269" data-name="Rectangle 269" width="2.13" height="5.116" transform="translate(2.612)" fill="#cbc4cc"/>
        <rect id="Rectangle_270" data-name="Rectangle 270" width="4.742" height="5.116" transform="translate(42.296)" fill="#e2dee2"/>
        <rect id="Rectangle_271" data-name="Rectangle 271" width="2.13" height="5.116" transform="translate(44.908)" fill="#cbc4cc"/>
      </g>
    </g>
    <g id="Group_316" data-name="Group 316" transform="translate(1.791 69.639)">
      <path id="Rectangle_272" data-name="Rectangle 272" d="M-6.736-7.5h4.742a.764.764,0,0,1,.764.764v5.014a.764.764,0,0,1-.764.764H-6.736A.764.764,0,0,1-7.5-1.722V-6.736A.764.764,0,0,1-6.736-7.5Zm3.978,1.528H-5.972v3.486h3.215Z" transform="translate(7.5 7.5)"/>
      <path id="Rectangle_273" data-name="Rectangle 273" d="M-6.736-7.5h4.742a.764.764,0,0,1,.764.764v5.014a.764.764,0,0,1-.764.764H-6.736A.764.764,0,0,1-7.5-1.722V-6.736A.764.764,0,0,1-6.736-7.5Zm3.978,1.528H-5.972v3.486h3.215Z" transform="translate(49.796 7.5)"/>
    </g>
    <path id="Line_3" data-name="Line 3" d="M43.884-5.972H-6.736A.764.764,0,0,1-7.5-6.736.764.764,0,0,1-6.736-7.5h50.62a.764.764,0,0,1,.764.764A.764.764,0,0,1,43.884-5.972Z" transform="translate(7.5 82.154)"/>
    <g id="Group_317" data-name="Group 317" transform="translate(9.24 47.253)">
      <path id="Path_1314" data-name="Path 1314" d="M290.047,206.476a2.32,2.32,0,0,0,.231-1.011V200.13a2.348,2.348,0,0,0-2.341-2.341H277.763a2.348,2.348,0,0,0-2.341,2.341v5.335a2.32,2.32,0,0,0,.231,1.011Z" transform="translate(-256.61 -197.789)" fill="#fff"/>
      <path id="Path_1315" data-name="Path 1315" d="M370.2,197.789h-3.186a2.348,2.348,0,0,1,2.341,2.341v5.335a2.32,2.32,0,0,1-.231,1.011h3.186a2.32,2.32,0,0,0,.231-1.011V200.13A2.348,2.348,0,0,0,370.2,197.789Z" transform="translate(-338.872 -197.789)" fill="#f3f0f3"/>
      <path id="Path_1316" data-name="Path 1316" d="M105.349,206.476a2.32,2.32,0,0,0,.231-1.011V200.13a2.348,2.348,0,0,0-2.341-2.341H93.065a2.348,2.348,0,0,0-2.341,2.341v5.335a2.32,2.32,0,0,0,.231,1.011Z" transform="translate(-90.724 -197.789)" fill="#fff"/>
      <path id="Path_1317" data-name="Path 1317" d="M185.5,197.789h-3.185a2.348,2.348,0,0,1,2.341,2.341v5.335a2.32,2.32,0,0,1-.231,1.011h3.185a2.32,2.32,0,0,0,.231-1.011V200.13A2.348,2.348,0,0,0,185.5,197.789Z" transform="translate(-172.985 -197.789)" fill="#f3f0f3"/>
    </g>
    <g id="Group_318" data-name="Group 318" transform="translate(8.476 46.489)">
      <path id="Path_1318" data-name="Path 1318" d="M283.356,200.4a.764.764,0,0,1-.7-1.063,1.551,1.551,0,0,0,.124-.61v-5.335a1.579,1.579,0,0,0-1.577-1.577H271.027a1.579,1.579,0,0,0-1.578,1.577v5.335a1.552,1.552,0,0,0,.124.61.764.764,0,0,1-1.406.6,3.071,3.071,0,0,1-.246-1.207v-5.335a3.109,3.109,0,0,1,3.105-3.105H281.2a3.109,3.109,0,0,1,3.105,3.105v5.335a3.072,3.072,0,0,1-.246,1.207A.764.764,0,0,1,283.356,200.4Z" transform="translate(-249.11 -190.289)"/>
      <path id="Path_1319" data-name="Path 1319" d="M98.658,200.4H84.173a.764.764,0,0,1-.7-.465,3.071,3.071,0,0,1-.246-1.207v-5.335a3.109,3.109,0,0,1,3.105-3.105H96.5a3.109,3.109,0,0,1,3.105,3.105v5.335a3.072,3.072,0,0,1-.246,1.207A.764.764,0,0,1,98.658,200.4Zm-13.9-1.528H98.073q.007-.072.007-.145v-5.335a1.579,1.579,0,0,0-1.577-1.577H86.329a1.579,1.579,0,0,0-1.577,1.577v5.335Q84.752,198.8,84.758,198.874Z" transform="translate(-83.224 -190.289)"/>
    </g>
    <path id="Path_1320" data-name="Path 1320" d="M72.121,288.512v-2.279a4.15,4.15,0,0,0-4.15-4.15H29.232a4.15,4.15,0,0,0-4.15,4.15v2.279Z" transform="translate(-22.527 -226.245)" fill="#ffe5c2"/>
    <path id="Path_1321" data-name="Path 1321" d="M404.783,282.083h-4.694a4.15,4.15,0,0,1,4.15,4.15v2.279h4.694v-2.279A4.15,4.15,0,0,0,404.783,282.083Z" transform="translate(-359.339 -226.245)" fill="#fed2a4"/>
    <path id="Path_1322" data-name="Path 1322" d="M65.385,282.438H18.346a.764.764,0,0,1-.764-.764V279.5a4.919,4.919,0,0,1,4.914-4.914H50.013a.764.764,0,1,1,0,1.528H22.5A3.39,3.39,0,0,0,19.11,279.5v1.414H64.621V279.5a3.39,3.39,0,0,0-3.386-3.386H53.578a.764.764,0,1,1,0-1.528h7.656a4.919,4.919,0,0,1,4.914,4.914v2.177A.764.764,0,0,1,65.385,282.438Z" transform="translate(-15.791 -219.509)"/>
    <path id="Path_1323" data-name="Path 1323" d="M56.592,352.446H9.028A1.528,1.528,0,0,1,7.5,350.918v-5.182a1.528,1.528,0,0,1,1.528-1.528H56.592a1.528,1.528,0,0,1,1.528,1.528v5.182A1.528,1.528,0,0,1,56.592,352.446Z" transform="translate(-6.736 -282.042)" fill="#f6a96c"/>
    <path id="Path_1324" data-name="Path 1324" d="M444.143,344.208H439a1.528,1.528,0,0,1,1.528,1.528v5.182A1.528,1.528,0,0,1,439,352.446h5.143a1.528,1.528,0,0,0,1.528-1.528v-5.182A1.528,1.528,0,0,0,444.143,344.208Z" transform="translate(-394.287 -282.042)" fill="#ea9b58"/>
    <path id="Path_1325" data-name="Path 1325" d="M7.5,389.3a1.528,1.528,0,0,0,1.528,1.528H56.592A1.528,1.528,0,0,0,58.12,389.3v-2.357H7.5Z" transform="translate(-6.736 -320.428)" fill="#b5adb6"/>
    <path id="Path_1326" data-name="Path 1326" d="M445.671,389.3v-2.357h-5.144V389.3A1.528,1.528,0,0,1,439,390.832h5.143A1.528,1.528,0,0,0,445.671,389.3Z" transform="translate(-394.287 -320.428)" fill="#a79ba7"/>
    <path id="Path_1327" data-name="Path 1327" d="M49.856,346.474H17.518a.764.764,0,1,1,0-1.528H49.856a.765.765,0,0,0,.764-.764V339a.765.765,0,0,0-.764-.764H2.292a.765.765,0,0,0-.764.764v5.182a.765.765,0,0,0,.764.764H13.954a.764.764,0,1,1,0,1.528H2.292A2.294,2.294,0,0,1,0,344.182V339a2.294,2.294,0,0,1,2.292-2.292H49.856A2.294,2.294,0,0,1,52.148,339v5.182A2.294,2.294,0,0,1,49.856,346.474Z" transform="translate(0 -275.306)"/>
    <path id="Line_4" data-name="Line 4" d="M43.884-5.972H-6.736A.764.764,0,0,1-7.5-6.736.764.764,0,0,1-6.736-7.5h50.62a.764.764,0,0,1,.764.764A.764.764,0,0,1,43.884-5.972Z" transform="translate(7.5 73.255)"/>
    <path id="Path_1328" data-name="Path 1328" d="M122.073,76.912l1.1,2.014a.359.359,0,0,0,.142.142l2.014,1.1a.358.358,0,0,1,0,.628l-2.014,1.1a.359.359,0,0,0-.142.142l-1.1,2.014a.358.358,0,0,1-.628,0l-1.1-2.014a.359.359,0,0,0-.142-.142l-2.014-1.1a.358.358,0,0,1,0-.628l2.014-1.1a.359.359,0,0,0,.142-.142l1.1-2.014A.358.358,0,0,1,122.073,76.912Z" transform="translate(-105.981 -41.804)" fill="#ffe177"/>
    <g id="Group_319" data-name="Group 319" transform="translate(14.658 37.568)">
      <path id="Path_1329" data-name="Path 1329" d="M148.6,103.5l-1.461-.8-2.011,1.1a.359.359,0,0,0-.142.142l-1.078,1.971.806,1.473a.358.358,0,0,0,.628,0l1.1-2.014a.359.359,0,0,1,.142-.142l2.014-1.1A.358.358,0,0,0,148.6,103.5Z" transform="translate(-143.912 -102.699)" fill="#ffd15b"/>
    </g>
    <path id="Path_1330" data-name="Path 1330" d="M115.023,69.226a1.122,1.122,0,0,1,.984.584l1.045,1.91,1.91,1.045a1.122,1.122,0,0,1,0,1.969l-1.91,1.045-1.045,1.91a1.122,1.122,0,0,1-1.969,0l-1.045-1.91-1.91-1.045a1.122,1.122,0,0,1,0-1.969l1.91-1.045,1.045-1.91A1.122,1.122,0,0,1,115.023,69.226Zm2.555,4.523L116.214,73a1.121,1.121,0,0,1-.446-.446l-.746-1.364-.746,1.363a1.121,1.121,0,0,1-.446.446l-1.364.746,1.363.746a1.121,1.121,0,0,1,.446.446l.746,1.364.746-1.363a1.121,1.121,0,0,1,.446-.446Z" transform="translate(-99.245 -35.068)"/>
    <g id="Group_320" data-name="Group 320" transform="translate(20.064 30.629)">
      <path id="Line_5" data-name="Line 5" d="M-6.736-2.763A.764.764,0,0,1-7.5-3.527V-6.736A.764.764,0,0,1-6.736-7.5a.764.764,0,0,1,.764.764v3.209A.764.764,0,0,1-6.736-2.763Z" transform="translate(9.104 7.5)"/>
      <path id="Line_6" data-name="Line 6" d="M-3.527-5.972H-6.736A.764.764,0,0,1-7.5-6.736.764.764,0,0,1-6.736-7.5h3.209a.764.764,0,0,1,.764.764A.764.764,0,0,1-3.527-5.972Z" transform="translate(7.5 9.104)"/>
    </g>
    <g id="Group_321" data-name="Group 321" transform="translate(27.092 34.601)">
      <path id="Line_7" data-name="Line 7" d="M-6.736-3.782A.764.764,0,0,1-7.5-4.546v-2.19A.764.764,0,0,1-6.736-7.5a.764.764,0,0,1,.764.764v2.19A.764.764,0,0,1-6.736-3.782Z" transform="translate(8.595 7.5)"/>
      <path id="Line_8" data-name="Line 8" d="M-4.546-5.972h-2.19A.764.764,0,0,1-7.5-6.736.764.764,0,0,1-6.736-7.5h2.19a.764.764,0,0,1,.764.764A.764.764,0,0,1-4.546-5.972Z" transform="translate(7.5 8.595)"/>
    </g>
    <path id="Path_1331" data-name="Path 1331" d="M332.378,37.868l.856,1.565a.359.359,0,0,0,.142.142l1.565.856a.358.358,0,0,1,0,.628l-1.565.856a.359.359,0,0,0-.142.142l-.856,1.565a.358.358,0,0,1-.628,0l-.856-1.565a.359.359,0,0,0-.142-.142l-1.564-.856a.358.358,0,0,1,0-.628l1.564-.856a.359.359,0,0,0,.142-.142l.856-1.565A.358.358,0,0,1,332.378,37.868Z" transform="translate(-295.492 -6.736)" fill="#ffe177"/>
    <g id="Group_322" data-name="Group 322" transform="translate(35.66 33.096)">
      <path id="Path_1332" data-name="Path 1332" d="M353.907,59.4l-1.094-.6a.37.37,0,0,1-.077.056l-1.565.856a.359.359,0,0,0-.142.142l-.856,1.565a.364.364,0,0,1-.056.077l.6,1.094a.358.358,0,0,0,.629,0l.856-1.565a.358.358,0,0,1,.142-.142l1.565-.856A.358.358,0,0,0,353.907,59.4Z" transform="translate(-350.118 -58.798)" fill="#ffd15b"/>
    </g>
    <path id="Path_1333" data-name="Path 1333" d="M325.328,30.182a1.122,1.122,0,0,1,.984.583l.8,1.46,1.46.8a1.122,1.122,0,0,1,0,1.969l-1.46.8-.8,1.46a1.122,1.122,0,0,1-1.969,0l-.8-1.46-1.46-.8a1.122,1.122,0,0,1,0-1.969l1.46-.8.8-1.46A1.122,1.122,0,0,1,325.328,30.182Zm1.859,3.827-.914-.5a1.121,1.121,0,0,1-.446-.446l-.5-.914-.5.914a1.121,1.121,0,0,1-.446.446l-.914.5.914.5a1.121,1.121,0,0,1,.446.446l.5.914.5-.914a1.121,1.121,0,0,1,.446-.446Z" transform="translate(-288.755 0)"/>
  </g>
</svg>
