<svg xmlns="http://www.w3.org/2000/svg" width="36.248" height="46" viewBox="0 0 36.248 46">
  <g id="health-insurance" transform="translate(-29.72 -3.28)">
    <g id="Group_268" data-name="Group 268" transform="translate(30.457 4.017)">
      <g id="Group_266" data-name="Group 266" transform="translate(0 0)">
        <g id="Group_265" data-name="Group 265">
          <g id="Group_264" data-name="Group 264">
            <g id="Group_263" data-name="Group 263">
              <g id="Group_262" data-name="Group 262">
                <g id="Group_261" data-name="Group 261">
                  <path id="Path_1238" data-name="Path 1238" d="M60.6,87.785H34.621a.905.905,0,0,1-.905-.905V52.3a.905.905,0,0,1,.905-.905H60.6a.905.905,0,0,1,.905.905V86.88A.905.905,0,0,1,60.6,87.785Z" transform="translate(-33.716 -43.259)" fill="#44c7b6"/>
                  <path id="Path_1239" data-name="Path 1239" d="M73.817,84.037h-18.9a.658.658,0,0,1-.658-.658V52.054a.658.658,0,0,1,.658-.658h18.9a.658.658,0,0,1,.658.658V83.378a.659.659,0,0,1-.659.659Z" transform="translate(-50.472 -43.26)" fill="#ffe2e2"/>
                  <path id="Path_1240" data-name="Path 1240" d="M79.264,10.128H76.828a2.851,2.851,0,0,0-5.7,0H68.69a2.648,2.648,0,0,0-2.648,2.648v2.638h15.87V12.776a2.648,2.648,0,0,0-2.648-2.648Z" transform="translate(-60.081 -7.277)" fill="#87828e"/>
                  <path id="Path_1241" data-name="Path 1241" d="M57.633,84.038H54.917a.659.659,0,0,1-.659-.659V52.055a.659.659,0,0,1,.659-.657h2.716a.659.659,0,0,0-.659.657V83.379A.659.659,0,0,0,57.633,84.038Z" transform="translate(-50.47 -43.262)" fill="#ffefee"/>
                  <path id="Path_1242" data-name="Path 1242" d="M148.953,52.055V83.379a.659.659,0,0,1-.659.659h-2.716a.659.659,0,0,0,.659-.659V52.055a.659.659,0,0,0-.659-.657h2.716A.659.659,0,0,1,148.953,52.055Z" transform="translate(-124.949 -43.262)" fill="#ffcfcf"/>
                  <path id="Path_1243" data-name="Path 1243" d="M111,12.777v2.638h-2.716V12.777a2.649,2.649,0,0,0-2.649-2.649H103.2A2.853,2.853,0,0,0,101.7,7.621a2.854,2.854,0,0,1,4.209,2.507h2.435A2.649,2.649,0,0,1,111,12.777Z" transform="translate(-89.167 -7.279)" fill="#796e84"/>
                  <path id="Path_1244" data-name="Path 1244" d="M75.332,7.622a2.853,2.853,0,0,0-1.494,2.507H71.4a2.649,2.649,0,0,0-2.649,2.649v2.638H66.039V12.778a2.649,2.649,0,0,1,2.649-2.649h2.435a2.854,2.854,0,0,1,4.209-2.507Z" transform="translate(-60.078 -7.279)" fill="#a4a4a5"/>
                </g>
              </g>
            </g>
          </g>
        </g>
      </g>
      <g id="Group_267" data-name="Group 267" transform="translate(16.892 12.113)">
        <path id="Path_1245" data-name="Path 1245" d="M143.2,74.8V87.254a8.941,8.941,0,0,1-17.882,0V74.8a7.593,7.593,0,0,0,8.941-1.841A7.6,7.6,0,0,0,143.2,74.8Z" transform="translate(-125.317 -72.961)" fill="#5fcdff"/>
        <path id="Path_1246" data-name="Path 1246" d="M135.131,104.292h.005a8.946,8.946,0,0,1-9.818-8.9V82.942a7.547,7.547,0,0,0,1.756.581V95.394A8.942,8.942,0,0,0,135.131,104.292Z" transform="translate(-125.318 -81.101)" fill="#73d7f9"/>
        <path id="Path_1247" data-name="Path 1247" d="M178.861,82.942V95.394a8.956,8.956,0,0,1-9.818,8.9h.005a8.942,8.942,0,0,0,8.057-8.9V83.523a7.545,7.545,0,0,0,1.756-.581Z" transform="translate(-160.979 -81.101)" fill="#30b6ff"/>
      </g>
    </g>
    <g id="Group_269" data-name="Group 269" transform="translate(29.72 3.28)">
      <path id="Path_1248" data-name="Path 1248" d="M104.966,18.815a.927.927,0,1,0,.927.927A.927.927,0,0,0,104.966,18.815Z" transform="translate(-90.334 -15.95)" fill="#212121"/>
      <path id="Path_1249" data-name="Path 1249" d="M64.915,17.3a6.865,6.865,0,0,1-5.929-.033V13.058a1.644,1.644,0,0,0-1.643-1.641H53.026v-1.9A3.389,3.389,0,0,0,49.64,6.131H47.864a3.589,3.589,0,0,0-7.024,0H39.066A3.389,3.389,0,0,0,35.68,9.515v1.9H31.361a1.643,1.643,0,0,0-1.641,1.641V47.637a1.643,1.643,0,0,0,1.641,1.643H57.343a1.645,1.645,0,0,0,1.643-1.643V39.746a9.743,9.743,0,0,0,6.982-9.324V17.97A.737.737,0,0,0,64.915,17.3ZM55.2,12.892h2.145a.167.167,0,0,1,.168.166V16.3a7.047,7.047,0,0,1-.668-.66.739.739,0,0,0-1.106,0,6.817,6.817,0,0,1-.538.544ZM37.156,9.515a1.912,1.912,0,0,1,1.911-1.909H41.5a.737.737,0,0,0,.738-.738,2.113,2.113,0,0,1,4.227,0,.737.737,0,0,0,.738.738H49.64a1.912,1.912,0,0,1,1.911,1.909v1.9h-14.4Zm-2.172,3.377h18.74v4.315a6.862,6.862,0,0,1-6.058.1.737.737,0,0,0-1.053.666V30.422a9.575,9.575,0,0,0,7.111,9.328v4.306H34.983ZM57.511,47.637a.168.168,0,0,1-.168.168H31.361a.167.167,0,0,1-.166-.168V13.058a.165.165,0,0,1,.166-.166h2.147V44.135a1.4,1.4,0,0,0,1.4,1.4H53.8a1.4,1.4,0,0,0,1.4-1.4V40.048a9.447,9.447,0,0,0,2.313,0Zm6.982-17.215a8.2,8.2,0,1,1-16.405,0V19.051a8.339,8.339,0,0,0,8.2-1.863,8.34,8.34,0,0,0,8.2,1.863Z" transform="translate(-29.72 -3.28)" fill="#212121"/>
      <path id="Path_1250" data-name="Path 1250" d="M157.274,112.449c-3.622-2.369-2.5-1.634-3.659-2.392v-2.32a.738.738,0,0,0-1.475,0v2.32h0c-.783.514-2.672,1.747-3.659,2.392a.737.737,0,1,0,.808,1.234c2.533-1.655,2.066-1.347,2.851-1.863h0v3.412h0l-1.732,1.451a.737.737,0,1,0,.946,1.13l1.523-1.276,1.523,1.276a.738.738,0,0,0,.948-1.13l-1.733-1.451v-3.412l2.851,1.862a.737.737,0,1,0,.808-1.234Z" transform="translate(-126.308 -87.873)" fill="#212121"/>
      <path id="Path_1251" data-name="Path 1251" d="M101.568,80.415h.518a.738.738,0,1,0,0-1.475h-.518a.738.738,0,1,0,0,1.475Z" transform="translate(-87.716 -64.987)" fill="#212121"/>
      <path id="Path_1252" data-name="Path 1252" d="M69.568,80.415H72.7a.738.738,0,0,0,0-1.475H69.568a.738.738,0,1,0,0,1.475Z" transform="translate(-61.618 -64.987)" fill="#212121"/>
      <path id="Path_1253" data-name="Path 1253" d="M75.987,107h-6.42a.738.738,0,1,0,0,1.475h6.42a.738.738,0,1,0,0-1.475Z" transform="translate(-61.618 -87.873)" fill="#212121"/>
      <path id="Path_1254" data-name="Path 1254" d="M75.987,135.058h-6.42a.738.738,0,1,0,0,1.475h6.42a.738.738,0,1,0,0-1.475Z" transform="translate(-61.618 -110.756)" fill="#212121"/>
      <path id="Path_1255" data-name="Path 1255" d="M75.987,163.116h-6.42a.738.738,0,1,0,0,1.475h6.42a.738.738,0,1,0,0-1.475Z" transform="translate(-61.618 -133.64)" fill="#212121"/>
      <path id="Path_1256" data-name="Path 1256" d="M78.463,191.174h-8.9a.738.738,0,1,0,0,1.475h8.9a.738.738,0,1,0,0-1.475Z" transform="translate(-61.618 -156.524)" fill="#212121"/>
    </g>
  </g>
</svg>
