<svg xmlns="http://www.w3.org/2000/svg" width="108.626" height="110.684" viewBox="0 0 108.626 110.684">
  <g id="checklist_4_" data-name="checklist (4)" transform="translate(-4.762)">
    <g id="Group_2279" data-name="Group 2279" transform="translate(6.383 1.621)">
      <g id="Group_2275" data-name="Group 2275" transform="translate(0)">
        <path id="Path_12777" data-name="Path 12777" d="M82.791,156.493H27.007A14.747,14.747,0,0,1,12.26,141.746V75.261A14.747,14.747,0,0,1,27.007,60.513H82.791A14.747,14.747,0,0,1,97.538,75.261v66.485A14.747,14.747,0,0,1,82.791,156.493Z" transform="translate(-12.26 -49.052)" fill="#f4fbff"/>
        <path id="Path_12778" data-name="Path 12778" d="M34.022,156.5H27.01a14.747,14.747,0,0,1-14.749-14.749V75.264A14.746,14.746,0,0,1,27.01,60.518h7.012A14.746,14.746,0,0,0,19.276,75.264v66.484A14.747,14.747,0,0,0,34.022,156.5Z" transform="translate(-12.261 -49.056)" fill="#e4f6ff"/>
        <path id="Path_12779" data-name="Path 12779" d="M125.92,16.013a13.482,13.482,0,0,0-25.065,0H96.105a9.226,9.226,0,0,0,0,18.452h34.564a9.226,9.226,0,1,0,0-18.452Z" transform="translate(-70.748 -7.499)" fill="#ffe07d"/>
        <path id="Path_12780" data-name="Path 12780" d="M117.781,8.233a13.509,13.509,0,0,0-8.139,7.776h-4.75a9.227,9.227,0,0,0,0,18.454H96.1a9.227,9.227,0,1,1,0-18.454h4.747a13.485,13.485,0,0,1,16.93-7.776Z" transform="translate(-70.746 -7.497)" fill="#ffd064"/>
        <circle id="Ellipse_146" data-name="Ellipse 146" cx="5.517" cy="5.517" r="5.517" transform="translate(37.123 7.967)" fill="#365e7d"/>
      </g>
      <g id="Group_2276" data-name="Group 2276" transform="translate(12.253 36.667)">
        <path id="Path_12781" data-name="Path 12781" d="M83.88,197.533H74.42a5.482,5.482,0,0,1-5.482-5.482v-9.46a5.482,5.482,0,0,1,5.482-5.482h9.46a5.482,5.482,0,0,1,5.482,5.482v9.46A5.482,5.482,0,0,1,83.88,197.533Z" transform="translate(-68.938 -177.108)" fill="#b3e59f"/>
      </g>
      <g id="Group_2277" data-name="Group 2277" transform="translate(12.253 67.539)">
        <path id="Path_12782" data-name="Path 12782" d="M83.88,340.339H74.42a5.482,5.482,0,0,1-5.482-5.482V325.4a5.482,5.482,0,0,1,5.482-5.482h9.46a5.482,5.482,0,0,1,5.482,5.482v9.46A5.482,5.482,0,0,1,83.88,340.339Z" transform="translate(-68.938 -319.914)" fill="#b3e59f"/>
      </g>
      <g id="Group_2278" data-name="Group 2278" transform="translate(52.055 11.205)">
        <path id="Path_12783" data-name="Path 12783" d="M397.121,155.03a5.273,5.273,0,0,0,7.4-.894L415.77,139.8a5.273,5.273,0,0,0-8.3-6.51l-11.245,14.332A5.273,5.273,0,0,0,397.121,155.03Z" transform="translate(-364.394 -115.722)" fill="#80b4fb"/>
        <path id="Path_12784" data-name="Path 12784" d="M266.355,306.108l-1.877,2.392a6.392,6.392,0,1,1-10.058-7.891l1.877-2.392,10.025-.869Z" transform="translate(-253.056 -245.893)" fill="#ffe07d"/>
        <path id="Path_12785" data-name="Path 12785" d="M257.049,308.421a6.439,6.439,0,0,0,.741,2.31,6.393,6.393,0,0,1-3.373-10.122l1.876-2.391,10.024-.869.013,3.443-6.087.526-1.876,2.391A6.382,6.382,0,0,0,257.049,308.421Z" transform="translate(-253.053 -245.893)" fill="#ffd064"/>
        <path id="Path_12786" data-name="Path 12786" d="M305.047,150.624,278.1,184.968l-10.057-7.89,26.9-34.28" transform="translate(-264.805 -124.753)" fill="#e27f83"/>
        <path id="Path_12787" data-name="Path 12787" d="M298.943,145.834,272,180.178l-3.951-3.1,26.9-34.28" transform="translate(-264.805 -124.753)" fill="#c8646d"/>
        <path id="Path_12788" data-name="Path 12788" d="M419,80.692l9.76-14.893a4.177,4.177,0,0,0-6.548-5.137L410.065,73.684" transform="translate(-376.122 -59.332)" fill="#9dc6fb"/>
        <path id="Path_12789" data-name="Path 12789" d="M427.847,60.22c-.161-.126-.565.085-1.1.538a15.593,15.593,0,0,0-1.877,1.988L413.7,76.527l-3.628-2.846,12.141-13.022a4.176,4.176,0,0,1,5.634-.439Z" transform="translate(-376.128 -59.329)" fill="#80b4fb"/>
        <path id="Path_12790" data-name="Path 12790" d="M400.069,130.23l-8.931-7.007a3.228,3.228,0,1,0-3.985,5.079l8.931,7.007a3.228,3.228,0,0,0,3.985-5.079Z" transform="translate(-357.194 -108.871)" fill="#9dc6fb"/>
        <path id="Path_12791" data-name="Path 12791" d="M390.378,129.629a3.218,3.218,0,0,0,1.213,2.152l-4.442-3.485a3.228,3.228,0,0,1,3.985-5.079l4.442,3.485a3.23,3.23,0,0,0-5.2,2.927Z" transform="translate(-357.19 -108.866)" fill="#80b4fb"/>
      </g>
    </g>
    <g id="Group_2280" data-name="Group 2280" transform="translate(4.762)">
      <path id="Path_12792" data-name="Path 12792" d="M183.617,36.848a7.138,7.138,0,1,0,7.138,7.138A7.146,7.146,0,0,0,183.617,36.848Zm0,11.033a3.9,3.9,0,1,1,3.9-3.9A3.9,3.9,0,0,1,183.617,47.881Z" transform="translate(-139.357 -28.882)"/>
      <path id="Path_12793" data-name="Path 12793" d="M68.542,193.275H78a7.112,7.112,0,0,0,7.1-7.1v-9.46a7.112,7.112,0,0,0-7.1-7.1h-9.46a7.112,7.112,0,0,0-7.1,7.1v9.46a7.112,7.112,0,0,0,7.1,7.1Zm-3.861-16.564a3.865,3.865,0,0,1,3.861-3.861H78a3.865,3.865,0,0,1,3.861,3.861v9.46A3.865,3.865,0,0,1,78,190.033h-9.46a3.865,3.865,0,0,1-3.861-3.861Z" transform="translate(-49.186 -132.942)"/>
      <path id="Path_12794" data-name="Path 12794" d="M90.418,209.074a1.621,1.621,0,0,0,1.251.59q.052,0,.1,0a1.621,1.621,0,0,0,1.269-.755l5.654-8.993a1.621,1.621,0,0,0-2.745-1.726l-4.458,7.091-2.35-2.852a1.621,1.621,0,0,0-2.5,2.062Z" transform="translate(-68.648 -154.748)"/>
      <path id="Path_12795" data-name="Path 12795" d="M191.034,201.128h25.258a1.621,1.621,0,1,0,0-3.243H191.034a1.621,1.621,0,1,0,0,3.243Z" transform="translate(-149.495 -155.106)"/>
      <path id="Path_12796" data-name="Path 12796" d="M191.034,239.052h12.629a1.621,1.621,0,0,0,0-3.243H191.034a1.621,1.621,0,0,0,0,3.243Z" transform="translate(-149.495 -184.831)"/>
      <path id="Path_12797" data-name="Path 12797" d="M61.438,328.978a7.112,7.112,0,0,0,7.1,7.1H78a7.112,7.112,0,0,0,7.1-7.1v-9.46a7.112,7.112,0,0,0-7.1-7.1h-9.46a7.112,7.112,0,0,0-7.1,7.1Zm3.243-9.46a3.865,3.865,0,0,1,3.861-3.861H78a3.865,3.865,0,0,1,3.861,3.861v9.46A3.865,3.865,0,0,1,78,332.839h-9.46a3.865,3.865,0,0,1-3.861-3.861Z" transform="translate(-49.186 -244.876)"/>
      <path id="Path_12798" data-name="Path 12798" d="M90.418,351.879a1.621,1.621,0,0,0,1.251.59q.052,0,.1,0a1.621,1.621,0,0,0,1.269-.755l5.654-8.993a1.621,1.621,0,0,0-2.745-1.726l-4.458,7.091-2.35-2.852a1.621,1.621,0,0,0-2.5,2.062Z" transform="translate(-68.648 -266.682)"/>
      <path id="Path_12799" data-name="Path 12799" d="M203.663,381.858a1.621,1.621,0,0,0,0-3.243H191.034a1.621,1.621,0,1,0,0,3.243Z" transform="translate(-149.495 -296.765)"/>
      <path id="Path_12800" data-name="Path 12800" d="M109.921,28.228a6.9,6.9,0,0,0-2.04-1.108l4.547-6.939a5.765,5.765,0,0,0-1.27-7.739,5.795,5.795,0,0,0-7.82.606l-1.747,1.872a1.621,1.621,0,1,0,2.371,2.212l1.747-1.872a2.556,2.556,0,0,1,4.007,3.144l-8.791,13.416-6.154-4.828,4.773-5.118a1.621,1.621,0,0,0-2.372-2.212l-4.285,4.595a16.44,16.44,0,0,0-15.973-12.8H73.727A10.805,10.805,0,0,0,66.3,8.513H62.612a15.1,15.1,0,0,0-27.18,0H31.74a10.8,10.8,0,0,0-7.423,2.949H21.131A16.387,16.387,0,0,0,4.762,27.828V94.315a16.388,16.388,0,0,0,16.369,16.369H24.9a1.621,1.621,0,1,0,0-3.243h-3.77A13.141,13.141,0,0,1,8,94.315V27.828A13.14,13.14,0,0,1,21.131,14.7h.813a10.844,10.844,0,0,0,9.8,15.5H66.3a10.844,10.844,0,0,0,9.8-15.5h.815a13.181,13.181,0,0,1,12.8,10.218,4.842,4.842,0,0,0-3.785,6.7l-27.4,34.924a7.961,7.961,0,0,0-1.651,5.907,8.135,8.135,0,0,0,.239,1.2H46.3a1.621,1.621,0,1,0,0,3.243H58.528l-.986,1.257a1.621,1.621,0,1,0,2.551,2l1.169-1.49a7.926,7.926,0,0,0,3.554.838,8.117,8.117,0,0,0,.976-.059,7.961,7.961,0,0,0,5.344-3.009L89.592,52.908c.142.139.292.271.447.4V94.315a13.14,13.14,0,0,1-13.124,13.127H31.387a1.621,1.621,0,1,0,0,3.243H76.915A16.387,16.387,0,0,0,93.282,94.315V54.785a6.911,6.911,0,0,0,6.563-2.543L111.09,37.909a6.9,6.9,0,0,0-1.169-9.681ZM66.3,26.965H31.74a7.6,7.6,0,1,1,0-15.21h4.749A1.621,1.621,0,0,0,38,10.732a11.861,11.861,0,0,1,22.052,0,1.621,1.621,0,0,0,1.507,1.023H66.3a7.6,7.6,0,1,1,0,15.21Zm22.821,1.761a1.605,1.605,0,0,1,2.255-.272l8.931,7.007h0a1.606,1.606,0,1,1-1.983,2.528L89.4,30.981a1.606,1.606,0,0,1-.272-2.256ZM71.461,70.764l-2.477-1.943L86.725,46.209a1.621,1.621,0,0,0-2.551-2L66.433,66.819l-2.477-1.943L88.108,34.092l7.505,5.889ZM65.4,76.224a4.771,4.771,0,0,1-4.325-7.681l.876-1.116,7.506,5.889-.876,1.116A4.739,4.739,0,0,1,65.4,76.224Zm43.136-40.316L97.293,50.24a3.64,3.64,0,0,1-5.675.085l6.917-8.816a4.846,4.846,0,0,0,4.816-7.476l2.633-4.019a3.654,3.654,0,0,1,2.554,5.894Z" transform="translate(-4.762)"/>
    </g>
  </g>
</svg>
