<svg xmlns="http://www.w3.org/2000/svg" width="36.044" height="46" viewBox="0 0 36.044 46">
  <g id="letter" transform="translate(-55.41)">
    <g id="Group_276" data-name="Group 276" transform="translate(55.41 0)">
      <path id="Path_1257" data-name="Path 1257" d="M62.91,79v25.374a.9.9,0,0,0,.9.9h32.9a.9.9,0,0,0,.9-.9V79L80.258,65.864Z" transform="translate(-62.236 -59.947)" fill="#fea613"/>
      <path id="Path_1258" data-name="Path 1258" d="M65.121,81.212,82.469,68.075,97.606,79.537V79L80.258,65.864,62.91,79v25.374a.9.9,0,0,0,.9.9h1.313Z" transform="translate(-62.236 -59.947)" fill="#fe9901"/>
      <path id="Path_1259" data-name="Path 1259" d="M73.432,58.364a.673.673,0,0,1,.407.137L91.186,71.637a.674.674,0,0,1,.267.537V97.548a1.574,1.574,0,0,1-1.572,1.572h-32.9a1.574,1.574,0,0,1-1.572-1.572V72.174a.674.674,0,0,1,.267-.537L73.025,58.5A.673.673,0,0,1,73.432,58.364ZM90.106,72.509,73.432,59.883,56.758,72.509V97.548a.225.225,0,0,0,.225.225h32.9a.225.225,0,0,0,.225-.225Z" transform="translate(-55.41 -53.12)"/>
      <path id="Path_1260" data-name="Path 1260" d="M385.375,58.458l2.549-2.394V37.837a.449.449,0,0,0-.449-.449h-2.1Z" transform="translate(-355.73 -34.029)" fill="#01c0fa"/>
      <path id="Path_1261" data-name="Path 1261" d="M378.549,52.306a.674.674,0,0,1-.674-.674V30.562a.674.674,0,0,1,.674-.674h2.1a1.124,1.124,0,0,1,1.123,1.123V32.5a.674.674,0,0,1-1.348,0V31.236h-1.2V50.075l1.2-1.128v-13.3a.674.674,0,0,1,1.348,0v13.59a.674.674,0,0,1-.213.491l-2.549,2.394A.674.674,0,0,1,378.549,52.306Z" transform="translate(-348.904 -27.203)"/>
      <g id="Group_274" data-name="Group 274" transform="translate(5.724 0)">
        <path id="Path_1262" data-name="Path 1262" d="M135.3,39.4l2.354-2.085a.9.9,0,0,1,1.191,0L141.2,39.4l8.674-8.145V7.949a.449.449,0,0,0-.449-.449H127.074a.449.449,0,0,0-.449.449V31.255Z" transform="translate(-125.951 -6.826)" fill="#dff6fd"/>
        <g id="Group_270" data-name="Group 270" transform="translate(0.674 0.674)">
          <path id="Path_1263" data-name="Path 1263" d="M130.432,7.949a.449.449,0,0,1,.449-.449h-3.807a.449.449,0,0,0-.449.449V31.255l3.807,3.575Z" transform="translate(-126.625 -7.5)" fill="#c8effe"/>
        </g>
        <path id="Path_1264" data-name="Path 1264" d="M134.372,33.248a.672.672,0,0,1-.447-.169l-2.354-2.085a.225.225,0,0,0-.3,0l-2.354,2.085a.674.674,0,0,1-.908-.013l-8.674-8.145a.674.674,0,0,1-.213-.491V1.123A1.124,1.124,0,0,1,120.248,0H142.6a1.124,1.124,0,0,1,1.123,1.123V24.429a.674.674,0,0,1-.213.491l-8.674,8.145A.672.672,0,0,1,134.372,33.248Zm-2.95-3.658a1.571,1.571,0,0,1,1.042.4l1.894,1.677,8.013-7.525V1.348h-21.9v22.79l8.013,7.525,1.894-1.677A1.571,1.571,0,0,1,131.422,29.59Z" transform="translate(-119.125 0)"/>
        <g id="Group_272" data-name="Group 272" transform="translate(4.142 4.275)">
          <circle id="Ellipse_78" data-name="Ellipse 78" cx="7.482" cy="7.482" r="7.482" transform="translate(0.674 0.674)" fill="#ffe177"/>
          <path id="Path_1265" data-name="Path 1265" d="M175.754,62.568a7.484,7.484,0,0,1,5.967-7.328,7.482,7.482,0,1,0,0,14.656A7.484,7.484,0,0,1,175.754,62.568Z" transform="translate(-172.05 -54.412)" fill="#ffd15b"/>
          <path id="Path_1266" data-name="Path 1266" d="M173.38,63.9a8.156,8.156,0,1,1,8.032-9.561.674.674,0,1,1-1.328.231,6.8,6.8,0,1,0-.108,2.863.674.674,0,1,1,1.306.333A8.148,8.148,0,0,1,173.38,63.9Z" transform="translate(-165.224 -47.586)"/>
          <path id="Path_1267" data-name="Path 1267" d="M207.668,136.307a4.776,4.776,0,0,1-4.771-4.771.674.674,0,0,1,1.348,0,3.423,3.423,0,1,0,6.847,0,.674.674,0,0,1,1.348,0A4.776,4.776,0,0,1,207.668,136.307Z" transform="translate(-199.512 -123.38)"/>
          <g id="Group_271" data-name="Group 271" transform="translate(5.79 4.988)">
            <path id="Line_2" data-name="Line 2" d="M-6.826-4.995A.674.674,0,0,1-7.5-5.668V-6.826A.674.674,0,0,1-6.826-7.5a.674.674,0,0,1,.674.674v1.158A.674.674,0,0,1-6.826-4.995Z" transform="translate(7.5 7.5)"/>
            <path id="Line_3" data-name="Line 3" d="M-6.826-4.995A.674.674,0,0,1-7.5-5.668V-6.826A.674.674,0,0,1-6.826-7.5a.674.674,0,0,1,.674.674v1.158A.674.674,0,0,1-6.826-4.995Z" transform="translate(10.885 7.5)"/>
          </g>
        </g>
        <g id="Group_273" data-name="Group 273" transform="translate(4.543 22.506)">
          <path id="Line_4" data-name="Line 4" d="M7.336-6.152H-6.826A.674.674,0,0,1-7.5-6.826.674.674,0,0,1-6.826-7.5H7.336a.674.674,0,0,1,.674.674A.674.674,0,0,1,7.336-6.152Z" transform="translate(7.5 7.5)"/>
          <path id="Line_5" data-name="Line 5" d="M2.448-6.152H-6.826A.674.674,0,0,1-7.5-6.826.674.674,0,0,1-6.826-7.5H2.448a.674.674,0,0,1,.674.674A.674.674,0,0,1,2.448-6.152Z" transform="translate(9.944 10.576)"/>
        </g>
      </g>
      <path id="Path_1268" data-name="Path 1268" d="M62.91,212.076V237.45a.9.9,0,0,0,.9.9h32.9a.9.9,0,0,0,.9-.9V212.076l-17.348,16.29Z" transform="translate(-62.236 -193.022)" fill="#ffe177"/>
      <g id="Group_275" data-name="Group 275" transform="translate(0.674 19.054)">
        <path id="Path_1269" data-name="Path 1269" d="M65.957,237.451V214.938l-3.047-2.861v25.374a.9.9,0,0,0,.9.9h3.047A.9.9,0,0,1,65.957,237.451Z" transform="translate(-62.91 -212.077)" fill="#ffd15b"/>
      </g>
      <path id="Path_1270" data-name="Path 1270" d="M56.084,204.576a.674.674,0,0,1,.461.183l16.887,15.857,16.887-15.857a.674.674,0,0,1,1.135.491v25.374a1.574,1.574,0,0,1-1.572,1.572h-32.9a1.574,1.574,0,0,1-1.572-1.572V205.25a.674.674,0,0,1,.674-.674Zm17.348,17.638a.672.672,0,0,1-.461-.183L56.758,206.807v23.817a.225.225,0,0,0,.225.225h32.9a.225.225,0,0,0,.225-.225V206.807L73.893,222.031A.672.672,0,0,1,73.432,222.214Z" transform="translate(-55.41 -186.196)"/>
      <path id="Path_1271" data-name="Path 1271" d="M83.689,337.071a.9.9,0,0,0-1.191,0L66.025,351.66a.894.894,0,0,0,.618.248h32.9a.894.894,0,0,0,.619-.248Z" transform="translate(-65.071 -306.582)" fill="#ffd15b"/>
      <path id="Path_1272" data-name="Path 1272" d="M84.981,338.215l-1.292-1.144a.9.9,0,0,0-1.191,0L66.025,351.66a.894.894,0,0,0,.618.248h3.776a.894.894,0,0,1-.618-.248Z" transform="translate(-65.071 -306.582)" fill="#ffc344"/>
      <path id="Path_1273" data-name="Path 1273" d="M92.716,345.76h-32.9a1.565,1.565,0,0,1-1.083-.433.674.674,0,0,1,.018-.993l16.472-14.589a1.574,1.574,0,0,1,2.085,0l8.47,7.5a.674.674,0,1,1-.894,1.009l-8.47-7.5a.225.225,0,0,0-.3,0L60.7,344.413H91.838l-4.594-4.069a.674.674,0,0,1,.894-1.009l5.644,5a.674.674,0,0,1,.018.993A1.565,1.565,0,0,1,92.716,345.76Z" transform="translate(-58.245 -299.76)"/>
    </g>
    <path id="Path_1274" data-name="Path 1274" d="M213.212,427.921h-8.376a.449.449,0,0,1-.449-.449v-2.126a.449.449,0,0,1,.449-.449h8.376a.449.449,0,0,1,.449.449v2.126A.449.449,0,0,1,213.212,427.921Z" transform="translate(-135.592 -386.723)" fill="#fff"/>
    <path id="Path_1275" data-name="Path 1275" d="M207.406,427.472v-2.126a.449.449,0,0,1,.449-.449h-3.02a.449.449,0,0,0-.449.449v2.126a.449.449,0,0,0,.449.449h3.02A.449.449,0,0,1,207.406,427.472Z" transform="translate(-135.591 -386.723)" fill="#f5f8f9"/>
    <path id="Path_1276" data-name="Path 1276" d="M206.386,421.769H198.01a1.124,1.124,0,0,1-1.123-1.123V418.52a1.124,1.124,0,0,1,1.123-1.123h8.376a1.124,1.124,0,0,1,1.123,1.123v2.126A1.124,1.124,0,0,1,206.386,421.769Zm-8.151-1.348h7.927v-1.677h-7.927Z" transform="translate(-128.766 -379.896)"/>
  </g>
</svg>
