<svg xmlns="http://www.w3.org/2000/svg" width="110.611" height="110.685" viewBox="0 0 110.611 110.685">
  <g id="Page-1" transform="translate(0 0.034)">
    <g id="_024---Selection-Agreement" data-name="024---Selection-Agreement" transform="translate(0 -0.034)">
      <g id="Icons" transform="translate(1.844 1.9)">
        <path id="Shape" d="M69.307,28.656a27.527,27.527,0,0,1-7.024,18.417l-18.14.018a5.614,5.614,0,0,0-4.166,1.844L38.3,50.779,25.044,50.76a27.653,27.653,0,1,1,44.263-22.1Z" transform="translate(11.808 -0.996)" fill="#60a917"/>
        <path id="Shape-2" data-name="Shape" d="M30.265,1c-.933,0-1.855.05-2.765.14A27.653,27.653,0,0,1,45.364,47.07h5.531A27.653,27.653,0,0,0,30.265,1Z" transform="translate(23.197 -0.993)" fill="#549414"/>
        <path id="Shape-3" data-name="Shape" d="M30.2,34.81a3.687,3.687,0,0,1-2.607-1.08L22.06,28.2a3.687,3.687,0,0,1,5.213-5.213l2.784,2.782,13.99-15.546a3.688,3.688,0,1,1,5.483,4.933L32.938,33.589a3.687,3.687,0,0,1-2.644,1.22Z" transform="translate(17.735 5.755)" fill="#f5f5f5"/>
        <g id="Group_2281" data-name="Group 2281" transform="translate(20.202 46.059)">
          <path id="Shape-4" data-name="Shape" d="M22.686,49.609a4.281,4.281,0,0,1-.24,1.438l-2.673,7.061a4.609,4.609,0,0,1-8.609-3.245l2.6-6.895a3.746,3.746,0,0,1,.627-1.125,4.609,4.609,0,0,1,8.3,2.765Z" transform="translate(-10.958 -9.936)" fill="#ffe0b2"/>
          <path id="Shape-5" data-name="Shape" d="M28.061,50.447a4.482,4.482,0,0,1-.295,1.6L24.5,60.661a4.609,4.609,0,1,1-8.628-3.245l2.673-7.061.59-1.549a4.609,4.609,0,0,1,8.923,1.641Z" transform="translate(-7.061 -9.245)" fill="#ffe0b2"/>
          <path id="Shape-6" data-name="Shape" d="M36.085,55.826a4.482,4.482,0,0,1-.295,1.6l-1.125,2.987-.83,2.175a4.609,4.609,0,0,1-8.628-3.226L27.2,54.093a4.609,4.609,0,0,1,8.886,1.733Z" transform="translate(0.863 -4.705)" fill="#ffe0b2"/>
          <path id="Shape-7" data-name="Shape" d="M32.741,52.207a4.481,4.481,0,0,1-.295,1.6l-1.272,3.337-1.991,5.272a4.609,4.609,0,1,1-8.628-3.245l3.263-8.609a4.609,4.609,0,0,1,8.923,1.641Z" transform="translate(-3.113 -7.76)" fill="#ffe0b2"/>
          <path id="Shape-8" data-name="Shape" d="M64.827,58.5a4.609,4.609,0,0,0-2.175-6.139L39.866,40.673,29.284,50.222a5.49,5.49,0,0,1-9.144-4.111,5.387,5.387,0,0,1,1.42-3.687L33.118,29.7,34.8,27.86a5.614,5.614,0,0,1,4.166-1.844L57.1,26l10.711-.018L73.86,59.2H64.4a3.379,3.379,0,0,0,.424-.7Z" transform="translate(-3.214 -25.98)" fill="#ffe0b2"/>
        </g>
        <path id="Shape-9" data-name="Shape" d="M48.53,25.98,43,25.989,49.046,59.2h5.531Z" transform="translate(36.272 20.079)" fill="#dfc49c"/>
        <path id="Shape-10" data-name="Shape" d="M68.146,27.687V60.87a3.7,3.7,0,0,1-3.687,3.687H55.315a3.086,3.086,0,0,1-3.042-2.544l-.2-1.143L46.023,27.65A3.09,3.09,0,0,1,49.065,24H64.459A3.7,3.7,0,0,1,68.146,27.687Z" transform="translate(38.779 18.408)" fill="#02a9f4"/>
        <path id="Shape-11" data-name="Shape" d="M58.531,24H53a3.7,3.7,0,0,1,3.687,3.687V60.87A3.7,3.7,0,0,1,53,64.558h5.531a3.7,3.7,0,0,0,3.687-3.687V27.687A3.7,3.7,0,0,0,58.531,24Z" transform="translate(44.707 18.408)" fill="#0377bc"/>
        <path id="Shape-12" data-name="Shape" d="M74.46,56.813a3.379,3.379,0,0,1-.424.7,4.544,4.544,0,0,1-5.715,1.475,4.609,4.609,0,0,1,2.618,4.166,4.8,4.8,0,0,1-.442,1.991,4.592,4.592,0,0,1-4.166,2.618,4.721,4.721,0,0,1-1.973-.442,4.609,4.609,0,0,1-1.973,8.757,4.8,4.8,0,0,1-1.991-.442A4.592,4.592,0,0,1,63.012,79.8a4.8,4.8,0,0,1-.442,1.991,4.577,4.577,0,0,1-6.12,2.157L48.374,80,49.5,77.018a4.482,4.482,0,0,0,.295-1.6,4.609,4.609,0,0,0-8.886-1.733l1.272-3.337a4.482,4.482,0,0,0,.295-1.6A4.609,4.609,0,0,0,33.552,67.1a4.482,4.482,0,0,0,.295-1.6,4.609,4.609,0,0,0-8.923-1.641l-.59,1.549a4.281,4.281,0,0,0,.24-1.438,4.609,4.609,0,0,0-8.3-2.765H8.72l6.047-33.22L29.5,28l13.255.018L31.193,40.737a5.387,5.387,0,0,0-1.42,3.687,5.49,5.49,0,0,0,9.144,4.111L49.5,38.986,72.285,50.674a4.609,4.609,0,0,1,2.175,6.139Z" transform="translate(7.356 21.766)" fill="#ffe0b2"/>
        <path id="Shape-13" data-name="Shape" d="M54.543,45.638,31.757,33.95l-2,1.808,19.259,9.879a4.609,4.609,0,0,1-1.973,8.775,4.555,4.555,0,0,1-1.991-.461,4.609,4.609,0,0,1-1.991,8.775,4.721,4.721,0,0,1-1.973-.442,4.609,4.609,0,0,1-1.973,8.757,4.8,4.8,0,0,1-1.991-.442A4.627,4.627,0,0,1,39.3,76.757a4.509,4.509,0,0,1-1.475,1.727l.878.43a4.577,4.577,0,0,0,6.121-2.157A4.629,4.629,0,0,0,42.645,70.6a4.8,4.8,0,0,0,1.991.442,4.609,4.609,0,0,0,1.973-8.757,4.722,4.722,0,0,0,1.973.442,4.609,4.609,0,0,0,1.991-8.775,4.607,4.607,0,0,0,3.971-8.314Z" transform="translate(25.097 26.802)" fill="#dfc49c"/>
        <path id="Shape-14" data-name="Shape" d="M22.122,29.65,16.076,62.87l-.2,1.143a3.086,3.086,0,0,1-3.042,2.544H3.687A3.7,3.7,0,0,1,0,62.87V29.687A3.7,3.7,0,0,1,3.687,26H19.08a3.09,3.09,0,0,1,3.042,3.65Z" transform="translate(0 20.095)" fill="#02a9f4"/>
        <path id="Shape-15" data-name="Shape" d="M15.74,26H10.21a3.09,3.09,0,0,1,3.042,3.65L7.2,62.87,7,64.013A3.086,3.086,0,0,1,3.96,66.558H9.491a3.086,3.086,0,0,0,3.042-2.544l.2-1.143,6.047-33.22A3.09,3.09,0,0,0,15.74,26Z" transform="translate(3.34 20.095)" fill="#0377bc"/>
      </g>
      <g id="Icons_copy">
        <path id="Shape-16" data-name="Shape" d="M28.151,36.875a5.494,5.494,0,0,0,3.91,1.62h.147a5.556,5.556,0,0,0,3.964-1.829L52.764,18.232a5.531,5.531,0,1,0-8.222-7.4l-12.693,14.1-1.407-1.408a5.669,5.669,0,0,0-7.822,0,5.531,5.531,0,0,0,0,7.822ZM25.227,26.129a1.844,1.844,0,0,1,2.607,0l2.784,2.782a1.762,1.762,0,0,0,1.351.54,1.844,1.844,0,0,0,1.322-.61L47.281,13.3a1.844,1.844,0,0,1,2.743,2.465L33.433,34.2a1.844,1.844,0,0,1-1.325.612l-.046,1.844V34.809a1.831,1.831,0,0,1-1.3-.54l-5.531-5.531a1.844,1.844,0,0,1,0-2.609Z" transform="translate(17.714 5.812)"/>
        <path id="Shape-17" data-name="Shape" d="M105.081,43.43H89.691a4.933,4.933,0,0,0-4.767,3.652H79.679a29.5,29.5,0,1,0-45.762,3.687l-8.229-.011a4.933,4.933,0,0,0-4.767-3.641H5.531A5.531,5.531,0,0,0,0,52.648V85.831a5.531,5.531,0,0,0,5.531,5.531h9.14a4.926,4.926,0,0,0,4.76-3.687h3.178l-2.081,5.531a6.425,6.425,0,0,0,8.751,8.088c.009.022.013.044.022.066a6.432,6.432,0,0,0,8.6,3.18.188.188,0,0,0,.022.066,6.433,6.433,0,0,0,8.6,3.178c.009.022.011.044.02.065a6.452,6.452,0,0,0,11.918-.369l.111-.291,6.268,3.06a6.375,6.375,0,0,0,2.786.643,6.449,6.449,0,0,0,6.032-8.679l.065-.022a6.452,6.452,0,0,0,3.9-8.3l.059-.02a6.452,6.452,0,0,0,3.9-8.3,6.441,6.441,0,0,0,2.468-1.591h7.116a4.926,4.926,0,0,0,4.76,3.687h9.14a5.531,5.531,0,0,0,5.531-5.531V48.961a5.531,5.531,0,0,0-5.531-5.531ZM29.5,30.525A25.809,25.809,0,1,1,75.063,47.1l-17.268.022a7.485,7.485,0,0,0-5.531,2.445L51.139,50.8l-11.778-.015A25.586,25.586,0,0,1,29.5,30.525ZM15.9,86.646a1.254,1.254,0,0,1-1.233,1.029H5.531a1.844,1.844,0,0,1-1.844-1.844V52.648A1.844,1.844,0,0,1,5.531,50.8H20.92a1.25,1.25,0,0,1,1.231,1.475ZM31.758,89.5l-1.523,4.028L29.13,96.444a2.765,2.765,0,0,1-5.1.157,2.719,2.719,0,0,1-.061-2.1l2.6-6.9A2.693,2.693,0,0,1,28,86.08a2.752,2.752,0,0,1,1.147-.249,2.847,2.847,0,0,1,1,.184A2.747,2.747,0,0,1,31.93,88.6a2.627,2.627,0,0,1-.164.9Zm6,10.18a2.765,2.765,0,0,1-5.11.162,2.725,2.725,0,0,1-.066-2.1l1.154-3.051,1.471-3.825c.015-.035.018-.072.031-.107l.612-1.622a2.762,2.762,0,0,1,5.171,1.941Zm10.576-1.923-1.95,5.162a2.764,2.764,0,0,1-5.177-1.941l3.252-8.6a2.765,2.765,0,0,1,5.108-.162,2.725,2.725,0,0,1,.066,2.1Zm8.626,3.248-1.95,5.162a2.763,2.763,0,1,1-5.175-1.939l1.95-5.162a2.765,2.765,0,0,1,5.108-.159,2.725,2.725,0,0,1,.066,2.1ZM81.989,80.669a2.791,2.791,0,0,1-3.663,1.29l-4.978-2.378A1.844,1.844,0,0,0,71.759,82.9l4.978,2.374.015.011a2.765,2.765,0,1,1-2.371,4.994l-5.346-2.561a1.844,1.844,0,0,0-1.593,3.318L72.788,93.6a2.764,2.764,0,0,1-2.373,4.992h-.028L65.34,96.164a1.844,1.844,0,0,0-1.6,3.318l5.07,2.433a2.784,2.784,0,0,1,1.29,3.7,2.732,2.732,0,0,1-3.646,1.29l-6.568-3.191.531-1.407a6.4,6.4,0,0,0-6.945-8.62,6.417,6.417,0,0,0-9.14-6.168.188.188,0,0,0-.022-.066,6.432,6.432,0,0,0-9.795-2.443,6.408,6.408,0,0,0-9.859-1.021H20.135L25.5,54.456l13.089.017c.041,0,.081.02.122.02s.055-.018.083-.018l9,.011L39.035,64.12A7.343,7.343,0,0,0,49.358,74.538l9.634-8.7,21.7,11.128a2.78,2.78,0,0,1,1.3,3.7ZM85.86,80.3a6.428,6.428,0,0,0-3.538-6.637L61.915,63.195l2-1.8a1.844,1.844,0,0,0-2.47-2.736L46.9,71.791A3.656,3.656,0,0,1,41.761,66.6L55,52.036A3.79,3.79,0,0,1,57.8,50.8l18.067-.024a1.952,1.952,0,0,0,.232,0l9.007-.011L90.476,80.3Zm21.064,1.844a1.844,1.844,0,0,1-1.844,1.844h-9.14a1.254,1.254,0,0,1-1.233-1.029L88.46,48.592a1.25,1.25,0,0,1,1.231-1.475h15.39a1.844,1.844,0,0,1,1.844,1.844Z" transform="translate(0 -0.966)"/>
      </g>
    </g>
  </g>
</svg>
