<svg id="phone_3_" data-name="phone (3)" xmlns="http://www.w3.org/2000/svg" width="36.791" height="36.791" viewBox="0 0 36.791 36.791">
  <path id="Path_53" data-name="Path 53" d="M124.863,116.336l-.017-.018-.009-.008-2.06-2.06a3.066,3.066,0,0,0-4.326-.01l-.012.012-1.095,1.1L112.3,110.3l1.095-1.095.012-.012a3.07,3.07,0,0,0-.01-4.326l-2.057-2.057-.011-.011A3.066,3.066,0,0,0,107,102.8l-.023.024-.945.945-.893.894c-1.459,1.459-1.8,3.784-.96,6.548a18.779,18.779,0,0,0,4.765,7.5c3.216,3.216,7.154,5.213,10.277,5.213a5.181,5.181,0,0,0,3.765-1.4l1.173-1.172.686-.686,0,0a3.071,3.071,0,0,0,.032-4.3l-.018-.02Zm-1.534,2.787-.019.02-.674.674-1.169,1.169a3.053,3.053,0,0,1-2.245.777c-2.534,0-5.969-1.8-8.752-4.581a16.6,16.6,0,0,1-4.227-6.6c-.589-1.938-.435-3.54.423-4.4l.893-.893.96-.96.01-.011a.911.911,0,0,1,1.272,0l.008.008,2.065,2.066a.912.912,0,0,1,0,1.288l0,0h0l-1.857,1.857a1.078,1.078,0,0,0,0,1.524l6.567,6.567a1.078,1.078,0,0,0,1.524,0l1.845-1.846.02-.019a.91.91,0,0,1,1.282.006l2.06,2.06,0,0,.006.007a.912.912,0,0,1,.006,1.278Zm0,0" transform="translate(-96.276 -94.583)" fill="#e59c27"/>
  <path id="Path_54" data-name="Path 54" d="M31.4,5.388A18.4,18.4,0,0,0,5.387,31.4,18.4,18.4,0,0,0,31.4,5.388ZM18.395,34.635A16.24,16.24,0,1,1,34.634,18.4a16.258,16.258,0,0,1-16.24,16.24Zm0,0" transform="translate(0.001)" fill="#e59c27"/>
</svg>
