<svg xmlns="http://www.w3.org/2000/svg" width="110.673" height="110.685" viewBox="0 0 110.673 110.685">
  <g id="tick" transform="translate(0 0)">
    <path id="Path_12761" data-name="Path 12761" d="M114.99,187.367v58.227A10.31,10.31,0,0,1,104.679,255.9H17.914A10.308,10.308,0,0,1,7.605,245.594V187.367Zm0,0" transform="translate(-5.961 -146.861)" fill="#fec970"/>
    <path id="Path_12762" data-name="Path 12762" d="M61.736,254.648H17.915A10.309,10.309,0,0,1,7.605,244.34V185.766l11.451,9.882.714.594v29.386c0,10,4.034,19.473,13.232,23.4,8.486,3.619,23.584,5.624,28.734,5.624Zm0,0" transform="translate(-5.961 -145.607)" fill="#fba028"/>
    <path id="Path_12763" data-name="Path 12763" d="M114.987,46.468,73.71,12.1a19.405,19.405,0,0,0-24.833,0L7.6,46.468h0L19.767,56.6l29.11,24.239a19.4,19.4,0,0,0,24.832,0L102.822,56.6Z" transform="translate(-5.958 -5.962)" fill="#fba028"/>
    <path id="Path_12764" data-name="Path 12764" d="M146.934,44.926V76.5l-29.113,24.239a19.4,19.4,0,0,1-24.832,0L63.879,76.5V44.926A11.924,11.924,0,0,1,75.8,33h59.208a11.922,11.922,0,0,1,11.922,11.922Zm0,0" transform="translate(-50.069 -25.869)" fill="#bfdadd"/>
    <path id="Path_12765" data-name="Path 12765" d="M146.934,44.926V69.272L117.821,93.51a19.4,19.4,0,0,1-24.832,0L63.879,69.272V44.926A11.924,11.924,0,0,1,75.8,33h59.208a11.922,11.922,0,0,1,11.922,11.922Zm0,0" transform="translate(-50.069 -25.869)" fill="#e4f5f7"/>
    <path id="Path_12766" data-name="Path 12766" d="M328.131,31.017a22.9,22.9,0,1,1-22.9-22.9,22.9,22.9,0,0,1,22.9,22.9Zm0,0" transform="translate(-221.293 -6.36)" fill="#26bf64"/>
    <path id="Path_12767" data-name="Path 12767" d="M360.319,32.58a22.908,22.908,0,0,1-18.461,22.472,22.906,22.906,0,0,1,0-44.942A22.906,22.906,0,0,1,360.319,32.58Zm0,0" transform="translate(-253.482 -7.924)" fill="#49d685"/>
    <path id="Path_12768" data-name="Path 12768" d="M356.008,382.03a1.644,1.644,0,0,0,2.1-2.527L331.9,357.682a1.644,1.644,0,1,0-2.1,2.527Zm0,0" transform="translate(-258.039 -280.059)"/>
    <path id="Path_12769" data-name="Path 12769" d="M47.946,382.41A1.638,1.638,0,0,0,49,382.03l26.209-21.822a1.644,1.644,0,1,0-2.1-2.526L46.895,379.5a1.643,1.643,0,0,0,1.051,2.907Zm0,0" transform="translate(-36.292 -280.059)"/>
    <path id="Path_12770" data-name="Path 12770" d="M138.5,213.912H173.13a1.644,1.644,0,0,0,0-3.287H138.5a1.644,1.644,0,1,0,0,3.287Zm0,0" transform="translate(-107.273 -165.091)"/>
    <path id="Path_12771" data-name="Path 12771" d="M186.716,254.781H138.5a1.644,1.644,0,1,0,0,3.287h48.213a1.644,1.644,0,1,0,0-3.287Zm0,0" transform="translate(-107.272 -199.702)"/>
    <path id="Path_12772" data-name="Path 12772" d="M138.5,125.6h24.107a1.644,1.644,0,0,0,0-3.287H138.5a1.644,1.644,0,1,0,0,3.287Zm0,0" transform="translate(-107.273 -95.868)"/>
    <path id="Path_12773" data-name="Path 12773" d="M211.617,168.109a1.644,1.644,0,0,0,1.644,1.643h11.89a1.644,1.644,0,0,0,0-3.287h-11.89A1.644,1.644,0,0,0,211.617,168.109Zm0,0" transform="translate(-165.869 -130.478)"/>
    <path id="Path_12774" data-name="Path 12774" d="M138.5,169.752h10.682a1.644,1.644,0,1,0,0-3.287H138.5a1.644,1.644,0,1,0,0,3.287Zm0,0" transform="translate(-107.273 -130.478)"/>
    <path id="Path_12775" data-name="Path 12775" d="M355.595,58.573l-8.809,20.556-7.815-9.306a1.643,1.643,0,1,0-2.516,2.115l9.531,11.35a1.644,1.644,0,0,0,1.258.587,1.666,1.666,0,0,0,.241-.018,1.643,1.643,0,0,0,1.27-.979l9.862-23.011a1.644,1.644,0,1,0-3.021-1.295Zm0,0" transform="translate(-263.417 -45.129)"/>
    <path id="Path_12776" data-name="Path 12776" d="M109.259,38.557l-3.419-2.847a24.517,24.517,0,0,0-.854-23.686,1.644,1.644,0,0,0-2.818,1.694,21.3,21.3,0,1,1-3.8-4.672A1.644,1.644,0,0,0,100.6,6.632,24.519,24.519,0,0,0,69.1,5.119L68.8,4.875a21.043,21.043,0,0,0-26.937,0l-.739.616H25.734A13.582,13.582,0,0,0,12.166,19.057V29.716L1.046,38.975c-.033.014-.066.027-.1.043A1.642,1.642,0,0,0,0,40.506V85.712a1.644,1.644,0,0,0,3.287,0v-41.7l38.58,32.123a21.042,21.042,0,0,0,26.935,0l38.582-32.123V98.732a8.675,8.675,0,0,1-8.666,8.666H11.954a8.675,8.675,0,0,1-8.666-8.666V92.287a1.644,1.644,0,0,0-3.287,0v6.445a11.967,11.967,0,0,0,11.953,11.953H98.719a11.967,11.967,0,0,0,11.953-11.953V40.548c.02-.8-.226-1-1.414-1.99ZM63.9,5.492H46.773A17.76,17.76,0,0,1,63.9,5.492Zm-51.733,28.5V47.128L4.279,40.561ZM66.7,73.611a17.754,17.754,0,0,1-22.728,0L15.454,49.865V19.057A10.291,10.291,0,0,1,25.734,8.778h39.5A24.545,24.545,0,0,0,88.693,48.74a24.3,24.3,0,0,0,6.528-2.287v3.411ZM98.508,47.127V44.4a24.677,24.677,0,0,0,5.634-5.828l2.319,1.93Zm0,0"/>
  </g>
</svg>
