<svg xmlns="http://www.w3.org/2000/svg" width="53.996" height="46" viewBox="0 0 53.996 46">
  <g id="visa_10_" data-name="visa (10)" transform="translate(0 -37.911)">
    <rect id="Rectangle_423" data-name="Rectangle 423" width="36.041" height="14.086" transform="translate(53.018 50.014) rotate(124.381)" fill="#ffcd35"/>
    <g id="Group_1995" data-name="Group 1995" transform="translate(28.75 42.063)">
      <rect id="Rectangle_424" data-name="Rectangle 424" width="2.19" height="14.086" transform="translate(24.27 7.954) rotate(124.381)" fill="#fff"/>
      <path id="Path_11873" data-name="Path 11873" d="M272.611,409.319,276.524,412h0Z" transform="translate(-272.611 -374.301)" fill="#fff"/>
    </g>
    <g id="Group_1996" data-name="Group 1996" transform="translate(20.061 41.076)">
      <path id="Path_11874" data-name="Path 11874" d="M203.011,107.584l-12.786-8.752L211.374,67.92l12.786,8.752Zm-10.822-9.119,10.455,7.156L222.2,77.039l-10.455-7.156Z" transform="translate(-190.225 -67.92)" fill="#122436"/>
      <path id="Path_11875" data-name="Path 11875" d="M311.039,208.956l-1.166-.8.8-1.166,1.166.8Zm-2.338-1.6-1.166-.8.8-1.166,1.166.8Zm-2.331-1.6-1.166-.8.8-1.166,1.166.8Zm-2.331-1.6-1.166-.8.8-1.166,1.166.8Zm-2.331-1.6-1.166-.8.8-1.166,1.166.8Z" transform="translate(-288.908 -186.613)" fill="#122436"/>
      <path id="Path_11876" data-name="Path 11876" d="M379.2,157.5l-.834,1.243-4.21-2.621a1.017,1.017,0,0,1-.417-1.385h0a1.021,1.021,0,0,1,1.441-.141Z" transform="translate(-354.265 -145.252)" fill="#122436"/>
      <path id="Path_11877" data-name="Path 11877" d="M421.235,183.125l-1.95,2.9-.523-1.554.834-1.243Z" transform="translate(-394.661 -170.975)" fill="#122436"/>
      <path id="Path_11878" data-name="Path 11878" d="M384.117,182.37l1.858-2.769-1.66-1.031-.784,3.412Z" transform="translate(-363.145 -166.901)" fill="#122436"/>
      <path id="Path_11879" data-name="Path 11879" d="M403.516,146.205l-1.851,2.769-1.589-1.144,2.861-2.013Z" transform="translate(-377.945 -137.602)" fill="#122436"/>
    </g>
    <path id="Path_11880" data-name="Path 11880" d="M39.46,89.2h-31A1.767,1.767,0,0,1,6.7,87.43V46.375a1.767,1.767,0,0,1,1.766-1.766h31a1.767,1.767,0,0,1,1.766,1.766V87.437A1.776,1.776,0,0,1,39.46,89.2Z" transform="translate(-5.992 -5.992)" fill="#4ea4db"/>
    <g id="Group_1997" data-name="Group 1997" transform="translate(0.706 38.617)">
      <path id="Path_11881" data-name="Path 11881" d="M39.46,44.609h-31A1.767,1.767,0,0,0,6.7,46.375V49.2a1.767,1.767,0,0,1,1.766-1.766h31A1.767,1.767,0,0,1,41.233,49.2V46.375A1.777,1.777,0,0,0,39.46,44.609Z" transform="translate(-6.698 -44.609)" fill="#fff"/>
      <rect id="Rectangle_425" data-name="Rectangle 425" width="1.413" height="0.706" transform="translate(2.606 43.881)" fill="#fff"/>
      <path id="Path_11882" data-name="Path 11882" d="M32.827,104.893H31.414V103.5h1.413Zm0-2.783H31.414v-1.392h1.413Zm0-2.79H31.414V97.928h1.413Zm0-2.783H31.414V95.145h1.413Zm0-2.783H31.414V92.362h1.413Zm0-2.79H31.414V89.572h1.413Zm0-2.783H31.414V86.789h1.413Zm0-2.783H31.414V84.005h1.413Zm0-2.79H31.414V81.215h1.413Zm0-2.783H31.414V78.432h1.413Zm0-2.79H31.414V75.642h1.413Zm0-2.783H31.414V72.859h1.413Zm0-2.783H31.414V70.075h1.413Zm0-2.79H31.414V67.285h1.413Zm0-2.783H31.414V64.5h1.413Z" transform="translate(-28.807 -62.404)" fill="#fff"/>
      <rect id="Rectangle_426" data-name="Rectangle 426" width="1.413" height="0.706" transform="translate(2.606 0)" fill="#fff"/>
    </g>
    <path id="Path_11883" data-name="Path 11883" d="M33.469,83.911h-31A2.475,2.475,0,0,1,0,81.439V40.383a2.475,2.475,0,0,1,2.472-2.472h31a2.475,2.475,0,0,1,2.472,2.472V81.446A2.484,2.484,0,0,1,33.469,83.911Zm-31-44.587a1.058,1.058,0,0,0-1.06,1.06V81.446a1.058,1.058,0,0,0,1.06,1.06h31a1.058,1.058,0,0,0,1.06-1.06V40.383a1.058,1.058,0,0,0-1.06-1.06Z" fill="#122436"/>
    <circle id="Ellipse_125" data-name="Ellipse 125" cx="10.694" cy="10.694" r="10.694" transform="translate(8.951 48.485)" fill="#fff"/>
    <g id="Group_1998" data-name="Group 1998" transform="translate(8.244 47.765)">
      <path id="Path_11884" data-name="Path 11884" d="M89.568,154.219a11.4,11.4,0,1,1,11.4-11.4A11.414,11.414,0,0,1,89.568,154.219Zm0-21.382a9.988,9.988,0,1,0,9.988,9.988A10,10,0,0,0,89.568,132.837Z" transform="translate(-78.167 -131.41)" fill="#122436"/>
      <path id="Path_11885" data-name="Path 11885" d="M133.307,154.18c-3.5,0-6.245-5.015-6.245-11.415s2.741-11.415,6.245-11.415,6.244,5.015,6.244,11.415S136.81,154.18,133.307,154.18Zm0-21.425c-2.621,0-4.832,4.584-4.832,10s2.211,10,4.832,10,4.832-4.584,4.832-10S135.927,132.755,133.307,132.755Z" transform="translate(-121.905 -131.349)" fill="#122436"/>
      <rect id="Rectangle_427" data-name="Rectangle 427" width="1.413" height="21.425" transform="translate(10.695 0.699)" fill="#122436"/>
      <path id="Path_11886" data-name="Path 11886" d="M107.346,283.245l-.713-1.222a18.821,18.821,0,0,1,16.8,0l-.713,1.215a17.45,17.45,0,0,0-15.371.007Z" transform="translate(-103.631 -264.363)" fill="#122436"/>
      <path id="Path_11887" data-name="Path 11887" d="M115.032,171.985a17.127,17.127,0,0,1-8.4-1.978l.713-1.215a17.481,17.481,0,0,0,15.371,0l.713,1.215A17.109,17.109,0,0,1,115.032,171.985Z" transform="translate(-103.631 -164.843)" fill="#122436"/>
      <rect id="Rectangle_428" data-name="Rectangle 428" width="21.425" height="1.413" transform="translate(0.692 10.709)" fill="#122436"/>
    </g>
    <path id="Path_11888" data-name="Path 11888" d="M106.1,393.457H87.885a1.413,1.413,0,1,1,0-2.826H106.1a1.413,1.413,0,1,1,0,2.826Z" transform="translate(-77.353 -315.522)" fill="#fff"/>
  </g>
</svg>
