<svg xmlns="http://www.w3.org/2000/svg" xmlns:xlink="http://www.w3.org/1999/xlink" width="115.998" height="115.997" viewBox="0 0 115.998 115.997">
  <defs>
    <linearGradient id="linear-gradient" x1="0.5" x2="0.5" y2="1" gradientUnits="objectBoundingBox">
      <stop offset="0" stop-color="#008e9a"/>
      <stop offset="1" stop-color="#a92a8d"/>
    </linearGradient>
  </defs>
  <g id="Layer_2" data-name="Layer 2" transform="translate(0 -0.003)">
    <g id="Number" transform="translate(0 0.003)">
      <g id="_40" data-name="40" transform="translate(0 0)">
        <g id="B">
          <path id="Path_11799" data-name="Path 11799" d="M115.4,61.347C110.035,28.322,57.559-4.509,30.635.514,6.09,5.093-2.733,34.321.718,61.347,4.819,93.444,26.392,116,58.062,116S120.7,93.938,115.4,61.347ZM58.046,103.313c-24.742,0-41.6-17.615-44.809-42.7-2.7-21.118,4.207-43.957,23.381-47.534C57.657,9.155,98.659,34.8,102.857,60.613c4.139,25.481-20.062,42.7-44.811,42.7Z" transform="translate(0 -0.003)" fill="url(#linear-gradient)"/>
        </g>
        <g id="Group_1941" data-name="Group 1941" transform="translate(24.192 39.62)">
          <path id="Path_11800" data-name="Path 11800" d="M124.121,216.865V208.34H106.78v-4.669l15.556-25.051h8.736v24.527h4.721l-.34,5.193h-4.382v8.525ZM113.6,203.174h10.519V185.335Z" transform="translate(-106.78 -177.773)" fill="url(#linear-gradient)"/>
          <path id="Path_11801" data-name="Path 11801" d="M272.6,213.463a15.32,15.32,0,0,1-11.212,0,11.4,11.4,0,0,1-4.119-2.886,15.871,15.871,0,0,1-2.719-4.368,22.992,22.992,0,0,1-1.547-5.376,40.369,40.369,0,0,1,.014-12.212,23.109,23.109,0,0,1,1.575-5.437,15.633,15.633,0,0,1,2.741-4.368,11.7,11.7,0,0,1,4.105-2.873,15.082,15.082,0,0,1,11.122,0,11.476,11.476,0,0,1,4.1,2.893,15.859,15.859,0,0,1,2.719,4.382,23.6,23.6,0,0,1,1.561,5.417,40.183,40.183,0,0,1,.011,12.2,23.657,23.657,0,0,1-1.534,5.39,15.449,15.449,0,0,1-2.712,4.368,11.555,11.555,0,0,1-4.108,2.873Zm-9.194-5.6a5.943,5.943,0,0,0,7.175,0,7.476,7.476,0,0,0,2.266-3.346,22.821,22.821,0,0,0,1.1-4.563,39.076,39.076,0,0,0,.34-5.392q0-14.214-7.293-14.217-7.25,0-7.345,14.112a39.56,39.56,0,0,0,.342,5.437,22.47,22.47,0,0,0,1.133,4.6,7.517,7.517,0,0,0,2.286,3.364Z" transform="translate(-219.525 -174.88)" fill="url(#linear-gradient)"/>
        </g>
      </g>
    </g>
  </g>
</svg>
